<svg width="174" height="37" viewBox="0 0 174 37" fill="none" xmlns="http://www.w3.org/2000/svg">
<path d="M0.65625 24.2767L12.9514 18.8042L20.0282 22.9084L21.4579 36.373L12.737 36.3013L14.0236 26.9404L12.5225 26.0764L5.15968 31.8369L0.65625 24.2767Z" fill="#B1B7BC"/>
<path d="M20.8154 22.3328L31.6811 30.3249L35.97 22.6208L27.2487 19.0926V17.3645L35.97 13.7643L31.6811 6.13196L20.8154 14.1244V22.3328Z" fill="#B1B7BC"/>
<path d="M20.0282 13.4763L21.4579 0.0115967L12.737 0.15561L14.0236 9.51605L12.5225 10.3801L5.0882 4.61983L0.65625 12.1082L12.9514 17.5805L20.0282 13.4763Z" fill="#B1B7BC"/>
<path d="M65.0646 16.5796V29.1943H69.7582V13.118H62.9229V16.5796H65.0646Z" fill="#B1B7BC"/>
<path d="M64.9176 10.8585C65.3479 11.3082 66.0031 11.5331 66.883 11.5331C67.7635 11.5331 68.4085 11.3082 68.8189 10.8585C69.2497 10.3889 69.4643 9.80218 69.4643 9.0983C69.4643 8.3746 69.2497 7.78788 68.8189 7.33816C68.4085 6.8688 67.7635 6.63403 66.883 6.63403C66.0031 6.63403 65.3479 6.8688 64.9176 7.33816C64.5072 7.78788 64.3018 8.3746 64.3018 9.0983C64.3018 9.80218 64.5072 10.3889 64.9176 10.8585Z" fill="#B1B7BC"/>
<path d="M48.7253 28.8415C50.055 29.4477 51.688 29.751 53.6238 29.751C55.4429 29.751 57.0071 29.467 58.3178 28.9001C59.6281 28.3332 60.635 27.5409 61.3391 26.5238C62.063 25.4873 62.4245 24.2846 62.4245 22.9155C62.4245 21.5857 62.0829 20.4612 61.3982 19.5419C60.7329 18.6033 59.8045 17.8699 58.611 17.342C57.418 16.7942 56.0394 16.4519 54.4747 16.3152L52.832 16.1685C51.8542 16.0901 51.1501 15.8263 50.7198 15.3763C50.2895 14.9266 50.0744 14.3984 50.0744 13.7923C50.0744 13.3228 50.1921 12.8926 50.4262 12.5015C50.6612 12.0908 51.013 11.7681 51.4825 11.5333C51.9714 11.2988 52.5679 11.1814 53.272 11.1814C54.0149 11.1814 54.6312 11.3181 55.1202 11.5922C55.2277 11.65 55.33 11.7119 55.4259 11.7776L55.4492 11.7938C55.485 11.8187 55.5204 11.8444 55.5548 11.8704C55.8519 12.0974 56.0883 12.3664 56.2642 12.6775C56.5181 13.1078 56.6461 13.5868 56.6461 14.115H61.3391C61.3391 12.7068 61.0164 11.4845 60.3714 10.448C59.726 9.39194 58.7971 8.58039 57.5847 8.01301C56.3912 7.42629 54.954 7.13293 53.272 7.13293C51.6681 7.13293 50.2798 7.40691 49.1062 7.95442C47.9331 8.4826 47.0138 9.24526 46.349 10.2425C45.7031 11.24 45.3804 12.4233 45.3804 13.7923C45.3804 15.6893 46.0166 17.2147 47.2876 18.3687C48.5586 19.5226 50.2604 20.1875 52.392 20.3634L54.0057 20.5101C55.3154 20.6275 56.2642 20.8916 56.851 21.3021C57.4374 21.6932 57.731 22.231 57.731 22.9155C57.731 23.2302 57.6797 23.5252 57.5764 23.8009C57.4999 24.0055 57.3952 24.1993 57.262 24.3825C56.9484 24.7929 56.4891 25.1156 55.8829 25.3506C55.2767 25.5852 54.5237 25.7024 53.6238 25.7024C52.6266 25.7024 51.8149 25.5658 51.1893 25.2915C50.5633 24.9984 50.0942 24.617 49.7807 24.1479C49.4875 23.6783 49.3412 23.1699 49.3412 22.6222H44.6768C44.6768 24.0108 45.0189 25.2431 45.7031 26.3183C46.3878 27.3747 47.3952 28.2159 48.7253 28.8415Z" fill="#B1B7BC"/>
<path d="M80.2309 29.3982C78.6076 29.3982 77.2974 29.2029 76.3001 28.8113C75.3024 28.4009 74.5692 27.7259 74.0997 26.7873C73.65 25.8288 73.4252 24.5384 73.4252 22.915V16.5492H70.9902V13.117H73.4252V8.77539H77.796V13.117H82.49V16.5492H77.796V23.0912C77.796 23.8539 77.9918 24.4405 78.3828 24.851C78.7932 25.2425 79.3703 25.4378 80.1137 25.4378H82.49V29.3982H80.2309Z" fill="#B1B7BC"/>
<path fill-rule="evenodd" clip-rule="evenodd" d="M88.1401 29.0465C89.196 29.5156 90.4088 29.7506 91.7777 29.7506C93.1268 29.7506 94.3203 29.5156 95.3567 29.0465C96.3932 28.577 97.2538 27.9219 97.938 27.0811C98.6227 26.2399 99.0826 25.2814 99.3166 24.2062H95.0045C94.8092 24.6951 94.4375 25.1055 93.89 25.438C93.3424 25.7704 92.6378 25.9371 91.7777 25.9371C91.2447 25.9371 90.7684 25.8736 90.3487 25.7476C90.0294 25.6516 89.743 25.5194 89.4896 25.3502C88.9028 24.9592 88.4725 24.4112 88.1987 23.7074C88.1226 23.5069 88.0577 23.2971 88.0029 23.0786C87.9472 22.8573 87.9022 22.627 87.8682 22.3873H99.6103V20.8031C99.6103 19.3363 99.2972 17.9869 98.6717 16.7548C98.0456 15.503 97.1361 14.4958 95.9436 13.7331C94.7699 12.9508 93.3225 12.5597 91.6013 12.5597C90.2911 12.5597 89.1174 12.7945 88.081 13.2638C87.0648 13.7135 86.2139 14.3295 85.5292 15.1119C84.845 15.8941 84.3168 16.7842 83.9447 17.7816C83.5929 18.7593 83.417 19.786 83.417 20.8616V21.4484C83.417 22.485 83.5929 23.5019 83.9447 24.4993C84.3168 25.4772 84.845 26.3669 85.5292 27.1688C86.2333 27.9514 87.1031 28.577 88.1401 29.0465ZM87.9492 19.4865C87.9622 19.4244 87.9758 19.3632 87.9908 19.303C88.0315 19.1372 88.0785 18.9782 88.1318 18.8263C88.1619 18.7399 88.1939 18.6556 88.2283 18.5736C88.5214 17.8499 88.9517 17.3024 89.5187 16.9308C89.7309 16.7919 89.9606 16.679 90.2072 16.5921C90.622 16.4464 91.0872 16.3734 91.6013 16.3734C92.4038 16.3734 93.0681 16.5593 93.5963 16.9308C94.1439 17.2828 94.5548 17.801 94.8286 18.4855C94.8509 18.5408 94.8717 18.597 94.892 18.6539C94.9245 18.7446 94.9546 18.8377 94.9827 18.9331C95.0238 19.075 95.0602 19.222 95.0922 19.3738C95.1154 19.4858 95.1353 19.6004 95.1532 19.7177H87.9041C87.9177 19.6393 87.9327 19.5623 87.9492 19.4865Z" fill="#B1B7BC"/>
<path d="M101.548 29.1935V13.1173H105.274V17.1662C105.324 16.9255 105.382 16.6945 105.446 16.473C105.501 16.2863 105.561 16.1064 105.625 15.9335C106.036 14.8382 106.652 14.017 107.474 13.4692C108.295 12.9021 109.302 12.6187 110.495 12.6187H110.7C111.913 12.6187 112.92 12.9021 113.722 13.4692C114.543 14.017 115.16 14.8382 115.57 15.9335L115.603 16.0161L115.63 16.0917C115.649 16.0383 115.668 15.9857 115.688 15.9335C116.118 14.8382 116.744 14.017 117.565 13.4692C118.387 12.9021 119.394 12.6187 120.587 12.6187H120.792C122.004 12.6187 123.021 12.9021 123.843 13.4692C124.684 14.017 125.32 14.8382 125.75 15.9335C126.18 17.0288 126.396 18.3978 126.396 20.0405V29.1935H121.702V19.7764C121.702 18.8964 121.467 18.1826 120.997 17.635C120.548 17.0873 119.902 16.8136 119.062 16.8136C118.22 16.8136 117.556 17.0972 117.067 17.6644C116.578 18.2119 116.333 18.9453 116.333 19.8645V29.1935H111.61V19.7764C111.61 18.8964 111.375 18.1826 110.906 17.635C110.456 17.0873 109.82 16.8136 109 16.8136C108.138 16.8136 107.464 17.0972 106.975 17.6644C106.486 18.2119 106.241 18.9453 106.241 19.8645V29.1935H101.548Z" fill="#B1B7BC"/>
<path fill-rule="evenodd" clip-rule="evenodd" d="M138.933 26.0956V29.1934H142.659V19.3364C142.659 17.85 142.365 16.6376 141.779 15.6987C141.192 14.7404 140.332 14.0266 139.197 13.5573C138.083 13.0879 136.704 12.8531 135.061 12.8531C134.705 12.8531 134.333 12.8569 133.946 12.8647C133.717 12.8695 133.482 12.8753 133.242 12.8825C132.597 12.902 131.97 12.9314 131.365 12.9706L130.902 13.0017C130.664 13.0182 130.44 13.0346 130.23 13.0511C130.072 13.0634 129.922 13.0757 129.781 13.0879V17.0483C130.387 17.0091 131.061 16.9699 131.805 16.9309C132.013 16.92 132.219 16.9099 132.423 16.9005C132.719 16.8867 133.01 16.8749 133.298 16.8645C133.526 16.8563 133.752 16.8489 133.976 16.8428C134.679 16.8232 135.247 16.8135 135.677 16.8135C136.538 16.8135 137.163 17.0188 137.555 17.4296C137.946 17.8403 138.141 18.4563 138.141 19.2778V19.3364H135.237C133.809 19.3364 132.548 19.5223 131.452 19.8938C130.357 20.2458 129.506 20.8032 128.901 21.5659C128.294 22.3092 127.991 23.2674 127.991 24.4408C127.991 25.5166 128.235 26.4455 128.724 27.228C129.213 27.9903 129.888 28.5771 130.748 28.9875C131.629 29.3984 132.646 29.6039 133.799 29.6039C134.914 29.6039 135.853 29.3984 136.616 28.9875C137.398 28.5771 138.004 27.9903 138.435 27.228C138.51 27.0991 138.581 26.9659 138.647 26.8273C138.74 26.6315 138.823 26.4256 138.896 26.2095L138.933 26.0956ZM138.141 23.2382V21.9473H135.207C134.386 21.9473 133.751 22.1526 133.301 22.5634C132.871 22.9545 132.655 23.4923 132.655 24.1767C132.655 24.499 132.709 24.7916 132.816 25.0557C132.924 25.3203 133.085 25.5553 133.301 25.7608C133.751 26.1523 134.386 26.3476 135.207 26.3476C135.364 26.3476 135.515 26.3398 135.661 26.3248C135.78 26.3122 135.896 26.2943 136.008 26.2715C136.223 26.2279 136.426 26.1649 136.616 26.0835C137.046 25.8882 137.398 25.5655 137.671 25.1153C137.946 24.6656 138.102 24.0396 138.141 23.2382Z" fill="#B1B7BC"/>
<path d="M145.468 29.1936V13.1174H149.194V18.4236C149.372 16.9088 149.822 15.6875 150.543 14.7602C151.521 13.5281 152.929 12.9121 154.768 12.9121H155.383V16.9603H154.21C152.919 16.9603 151.922 17.3123 151.218 18.0164C150.514 18.7009 150.161 19.6984 150.161 21.0086V29.1936H145.468Z" fill="#B1B7BC"/>
<path d="M161.335 21.6834H162.89L167.965 29.1936H173.245L166.81 19.9702L172.101 13.1174H167.173L161.335 20.7613V7.77832H156.642V29.1936H161.335V21.6834Z" fill="#B1B7BC"/>
</svg>
