<svg width="189" height="32" viewBox="0 0 189 32" fill="none" xmlns="http://www.w3.org/2000/svg">
<path fill-rule="evenodd" clip-rule="evenodd" d="M19.9263 1.62183C16.9321 1.62183 14.5048 4.04909 14.5048 7.0433C14.5048 10.0375 16.9321 12.4648 19.9263 12.4648C22.9207 12.4648 25.3478 10.0375 25.3478 7.0433C25.3478 4.04909 22.9207 1.62183 19.9263 1.62183ZM9.32612 12.1689C14.9696 12.1689 19.5444 16.7439 19.5444 22.3874V30.7622H14.4618V22.3874C14.4618 21.7863 14.3586 21.2096 14.1689 20.6735L6.70325 28.1392L3.10929 24.5451L10.3089 17.3455C9.9908 17.2838 9.66222 17.2515 9.32612 17.2515H0.951172V12.1689H9.32612ZM30.653 12.1689C25.0096 12.1689 20.4346 16.7439 20.4346 22.3874V30.7622H25.5172V22.3874C25.5172 21.9164 25.5806 21.4606 25.6992 21.0273L33.5088 28.8369L37.1029 25.2431L29.2933 17.4335C29.7263 17.3149 30.1824 17.2515 30.653 17.2515H39.0279V12.1689H30.653Z" fill="#B1B7BC"/>
<path d="M47.1602 31.0556V1.84119H55.434L64.3049 26.876H64.9446V1.84119H69.6786V31.0556H61.5755L52.4912 5.97811H51.8941V31.0556H47.1602Z" fill="#B1B7BC"/>
<path d="M88.644 27.217L89.8381 27.089L89.9234 30.5434C86.6821 31.1974 83.8104 31.5244 81.3084 31.5244C78.1524 31.5244 75.8778 30.6573 74.4848 28.9228C73.1199 27.1886 72.4375 24.4162 72.4375 20.6062C72.4375 13.0434 75.5223 9.26184 81.6923 9.26184C87.663 9.26184 90.6486 12.5174 90.6486 19.0282L90.35 22.355H77.1288C77.1572 24.1176 77.5411 25.4113 78.2805 26.2361C79.0195 27.0605 80.3986 27.4729 82.4174 27.4729C84.4359 27.4729 86.5116 27.3875 88.644 27.217ZM86.085 18.7724C86.085 16.6685 85.7438 15.2042 85.0614 14.3797C84.4078 13.5267 83.2845 13.1002 81.6923 13.1002C80.1001 13.1002 78.9345 13.5409 78.1951 14.4223C77.4842 15.3037 77.1145 16.7538 77.0864 18.7724H86.085Z" fill="#B1B7BC"/>
<path d="M104.459 13.6969H98.5729V23.0797C98.5729 24.8139 98.701 25.9656 98.9568 26.5342C99.2126 27.1028 99.8666 27.387 100.919 27.387L104.416 27.2593L104.629 30.9696C102.724 31.3393 101.274 31.524 100.279 31.524C97.8623 31.524 96.199 30.9696 95.2892 29.8606C94.4075 28.7519 93.967 26.6619 93.967 23.5913V13.6969H91.2373V9.73057H93.967V3.54651H98.5729V9.73057H104.459V13.6969Z" fill="#B1B7BC"/>
<path d="M104.476 9.73169H109.039L112.408 27.0896H113.261L117.313 10.1582H122.09L126.141 27.0896H126.994L130.321 9.73169H134.927L130.406 31.0561H123.028L119.701 16.4275L116.375 31.0561H108.996L104.476 9.73169Z" fill="#B1B7BC"/>
<path d="M137.894 12.034C139.372 10.1859 141.817 9.26184 145.229 9.26184C148.641 9.26184 151.072 10.1859 152.522 12.034C154.001 13.8821 154.74 16.6543 154.74 20.3504C154.74 24.0468 154.029 26.8331 152.607 28.7096C151.186 30.5861 148.727 31.5244 145.229 31.5244C141.732 31.5244 139.273 30.5861 137.851 28.7096C136.429 26.8331 135.719 24.0468 135.719 20.3504C135.719 16.6543 136.444 13.8821 137.894 12.034ZM141.391 25.8949C142.045 27.032 143.324 27.6006 145.229 27.6006C147.134 27.6006 148.414 27.032 149.068 25.8949C149.722 24.7574 150.049 22.8951 150.049 20.3077C150.049 17.7207 149.693 15.8866 148.982 14.8062C148.3 13.7257 147.049 13.1855 145.229 13.1855C143.409 13.1855 142.144 13.7257 141.434 14.8062C140.751 15.8866 140.41 17.7207 140.41 20.3077C140.41 22.8951 140.737 24.7574 141.391 25.8949Z" fill="#B1B7BC"/>
<path d="M157.226 31.0554V9.731H161.832V12.2899C164.248 10.7261 166.665 9.71677 169.082 9.26184V13.9105C166.637 14.3939 164.547 15.0194 162.813 15.7871L161.875 16.1709V31.0554H157.226Z" fill="#B1B7BC"/>
<path d="M175.151 31.0556H170.503V0.860229H175.151V18.3036L177.796 18.0478L182.828 9.73114H188.032L181.89 19.7108L188.373 31.0556H183.127L177.924 22.0566L175.151 22.3551V31.0556Z" fill="#B1B7BC"/>
</svg>
