<svg width="128" height="34" viewBox="0 0 128 34" fill="none" xmlns="http://www.w3.org/2000/svg">
<path fill-rule="evenodd" clip-rule="evenodd" d="M25.5751 6.28652H11.6436V0.376221H31.4853V20.2179H25.5751V6.28652Z" fill="#B1B7BC"/>
<path fill-rule="evenodd" clip-rule="evenodd" d="M14.6926 18.0469C13.7901 17.4438 12.729 17.1219 11.6435 17.1219V11.2117C13.898 11.2117 16.1017 11.8802 17.9762 13.1326C19.8506 14.3851 21.3116 16.1653 22.1743 18.2481C23.0371 20.331 23.2629 22.6228 22.8231 24.8338C22.3833 27.0447 21.2977 29.0759 19.7034 30.6699C18.1094 32.2642 16.0783 33.3497 13.8673 33.7896C11.6562 34.2294 9.36434 34.0036 7.28153 33.1408C5.19875 32.2781 3.41858 30.8173 2.1661 28.9427C0.913616 27.0681 0.245117 24.8645 0.245117 22.61H6.15542C6.15542 23.6955 6.47729 24.7567 7.08034 25.659C7.68336 26.5616 8.5405 27.2652 9.54331 27.6803C10.5462 28.0958 11.6496 28.2047 12.7142 27.9927C13.7788 27.7811 14.7567 27.2584 15.5242 26.4907C16.2918 25.7232 16.8145 24.7452 17.0262 23.6806C17.238 22.616 17.1293 21.5126 16.7139 20.5099C16.2985 19.507 15.5951 18.6499 14.6926 18.0469Z" fill="#B1B7BC"/>
<path d="M40.7725 29.3786V4.58167H49.9473C51.9311 4.58167 53.5724 4.9123 54.8713 5.57356C56.1702 6.23479 57.1384 7.14403 57.776 8.30121C58.4136 9.45838 58.7324 10.7573 58.7324 12.1979C58.7324 13.5676 58.4254 14.831 57.8115 15.9882C57.1972 17.1218 56.2408 18.0428 54.942 18.7513C53.6431 19.4362 51.9781 19.7786 49.9473 19.7786H45.3066V29.3786H40.7725ZM45.3066 16.0945H49.6637C51.2462 16.0945 52.3797 15.7521 53.0647 15.0672C53.7729 14.3587 54.1272 13.4023 54.1272 12.1979C54.1272 10.9698 53.7729 10.0134 53.0647 9.3285C52.3797 8.62001 51.2462 8.26578 49.6637 8.26578H45.3066V16.0945Z" fill="#B1B7BC"/>
<path d="M68.0502 29.8033C66.279 29.8033 64.7087 29.4253 63.3388 28.6698C61.969 27.9142 60.8946 26.8513 60.1153 25.4814C59.3361 24.1119 58.9463 22.5297 58.9463 20.7349C58.9463 18.9164 59.3243 17.2986 60.0798 15.8817C60.8591 14.4647 61.922 13.3666 63.2682 12.5873C64.6377 11.7843 66.2435 11.3828 68.0857 11.3828C69.8098 11.3828 71.3328 11.7607 72.6553 12.5164C73.9779 13.2721 75.0053 14.3112 75.7372 15.6337C76.4931 16.9326 76.8707 18.385 76.8707 19.9908C76.8707 20.2505 76.8589 20.5223 76.8356 20.8056C76.8356 21.0889 76.8237 21.3844 76.8001 21.6913H63.445C63.5396 23.0608 64.0119 24.1356 64.8622 24.9148C65.7357 25.6941 66.7868 26.0839 68.015 26.0839C68.9359 26.0839 69.7033 25.883 70.3173 25.4814C70.9552 25.0565 71.4275 24.5132 71.7344 23.8519H76.3396C76.009 24.9621 75.4539 25.9774 74.6746 26.8986C73.9187 27.7958 72.9741 28.5044 71.8406 29.0241C70.7307 29.5437 69.4673 29.8033 68.0502 29.8033ZM68.0857 15.0669C66.9758 15.0669 65.9957 15.3857 65.1455 16.0234C64.2952 16.6374 63.7523 17.582 63.516 18.8573H72.2659C72.1949 17.7001 71.7699 16.7791 70.9904 16.0942C70.2111 15.4094 69.2429 15.0669 68.0857 15.0669Z" fill="#B1B7BC"/>
<path d="M78.9131 29.3784V11.8079H82.9158L83.2701 14.7835C83.8134 13.7444 84.5926 12.9178 85.6082 12.3038C86.6471 11.6898 87.8635 11.3828 89.2567 11.3828C91.4294 11.3828 93.1181 12.0677 94.3223 13.4374C95.5268 14.8072 96.1289 16.8145 96.1289 19.4595V29.3784H91.5947V19.8847C91.5947 18.3732 91.2878 17.216 90.6738 16.413C90.0599 15.6101 89.1032 15.2086 87.8043 15.2086C86.5291 15.2086 85.4784 15.6573 84.6518 16.5547C83.8489 17.4521 83.4473 18.7038 83.4473 20.3096V29.3784H78.9131Z" fill="#B1B7BC"/>
<path d="M106.523 29.3785C104.681 29.3785 103.205 28.9295 102.095 28.0323C100.985 27.1347 100.43 25.5407 100.43 23.25V15.5984H97.4189V11.8081H100.43L100.962 7.09668H104.964V11.8081H109.711V15.5984H104.964V23.2855C104.964 24.1357 105.141 24.726 105.496 25.0566C105.874 25.3636 106.511 25.5171 107.409 25.5171H109.605V29.3785H106.523Z" fill="#B1B7BC"/>
<path d="M117.891 29.8033C116.379 29.8033 115.139 29.567 114.171 29.0947C113.203 28.5988 112.483 27.9493 112.01 27.1464C111.538 26.3435 111.302 25.4581 111.302 24.4899C111.302 22.8604 111.939 21.5378 113.215 20.5223C114.49 19.5067 116.403 18.999 118.953 18.999H123.417V18.5739C123.417 17.3695 123.074 16.4839 122.389 15.9171C121.704 15.3503 120.854 15.0669 119.839 15.0669C118.918 15.0669 118.115 15.2913 117.43 15.74C116.745 16.1651 116.32 16.8027 116.155 17.6529H111.727C111.845 16.3776 112.27 15.2677 113.002 14.323C113.758 13.3784 114.726 12.6581 115.907 12.1622C117.087 11.6426 118.41 11.3828 119.874 11.3828C122.378 11.3828 124.35 12.0086 125.79 13.2603C127.231 14.5119 127.951 16.2832 127.951 18.5739V29.3784H124.09L123.665 26.5443C123.145 27.4889 122.413 28.2681 121.469 28.8824C120.547 29.4963 119.355 29.8033 117.891 29.8033ZM118.918 26.261C120.217 26.261 121.22 25.8357 121.929 24.9858C122.661 24.1356 123.122 23.0845 123.31 21.833H119.449C118.245 21.833 117.383 22.0571 116.863 22.5061C116.344 22.931 116.084 23.4625 116.084 24.1001C116.084 24.785 116.344 25.3164 116.863 25.6941C117.383 26.072 118.068 26.261 118.918 26.261Z" fill="#B1B7BC"/>
</svg>
