<svg width="144" height="40" viewBox="0 0 144 40" fill="none" xmlns="http://www.w3.org/2000/svg">
<path d="M18.208 39.9042H5.37988L18.208 20.5054H31.0364L18.208 39.9042Z" fill="#B1B7BC"/>
<path d="M13.5141 0.480713H26.6551L13.5141 20.5051H0.373047L13.5141 0.480713Z" fill="#B1B7BC"/>
<path d="M57.2057 17.356C57.2057 18.5455 56.9188 19.6609 56.3452 20.702C55.7929 21.7427 54.9114 22.5818 53.7006 23.2193C52.5108 23.8564 51.0027 24.1752 49.1758 24.1752H45.4473V32.7149H40.9863V10.4731H49.1758C50.8964 10.4731 52.3621 10.7705 53.5729 11.3654C54.7841 11.9602 55.6866 12.778 56.2817 13.819C56.8978 14.8599 57.2057 16.0389 57.2057 17.356ZM48.9843 20.5743C50.2165 20.5743 51.1299 20.2984 51.725 19.7457C52.3197 19.1724 52.6171 18.3758 52.6171 17.356C52.6171 15.1892 51.4063 14.1058 48.9843 14.1058H45.4473V20.5743H48.9843Z" fill="#B1B7BC"/>
<path d="M63.5596 17.8026C64.1333 16.8678 64.8766 16.135 65.7901 15.6039C66.7249 15.0728 67.787 14.8073 68.9768 14.8073V19.4913H67.7976C66.3957 19.4913 65.3335 19.8205 64.6112 20.4794C63.9103 21.1379 63.5596 22.2849 63.5596 23.9207V32.7153H59.0986V15.0622H63.5596V17.8026Z" fill="#B1B7BC"/>
<path d="M78.546 33.0021C76.8464 33.0021 75.3169 32.6304 73.9574 31.887C72.5979 31.1222 71.5249 30.0492 70.7391 28.6684C69.9744 27.2875 69.5918 25.6945 69.5918 23.8887C69.5918 22.0832 69.9849 20.4898 70.771 19.109C71.5782 17.7281 72.6723 16.6659 74.0531 15.9224C75.434 15.1577 76.9741 14.7753 78.6737 14.7753C80.3729 14.7753 81.913 15.1577 83.2938 15.9224C84.6747 16.6659 85.7582 17.7281 86.5444 19.109C87.3515 20.4898 87.7551 22.0832 87.7551 23.8887C87.7551 25.6945 87.3407 27.2875 86.5124 28.6684C85.7049 30.0492 84.6003 31.1222 83.1984 31.887C81.8176 32.6304 80.2666 33.0021 78.546 33.0021ZM78.546 29.1144C79.3532 29.1144 80.1075 28.9233 80.8084 28.5411C81.5307 28.1375 82.1044 27.5424 82.529 26.7566C82.954 25.9705 83.1665 25.0146 83.1665 23.8887C83.1665 22.2105 82.7205 20.9253 81.8281 20.0329C80.9571 19.1195 79.8845 18.6629 78.6098 18.6629C77.3352 18.6629 76.2622 19.1195 75.3916 20.0329C74.5416 20.9253 74.117 22.2105 74.117 23.8887C74.117 25.5669 74.5311 26.8629 75.3597 27.7763C76.2093 28.6684 77.2714 29.1144 78.546 29.1144Z" fill="#B1B7BC"/>
<path d="M94.2139 29.1783H99.0049V32.7153H89.7529V7.73315H94.2139V29.1783Z" fill="#B1B7BC"/>
<path d="M102.465 12.959C101.679 12.959 101.02 12.7147 100.489 12.2261C99.9795 11.7163 99.7246 11.0896 99.7246 10.3461C99.7246 9.60258 99.9795 8.98652 100.489 8.49792C101.02 7.98808 101.679 7.73315 102.465 7.73315C103.251 7.73315 103.899 7.98808 104.409 8.49792C104.94 8.98652 105.205 9.60258 105.205 10.3461C105.205 11.0896 104.94 11.7163 104.409 12.2261C103.899 12.7147 103.251 12.959 102.465 12.959ZM104.664 15.0621V32.7153H100.203V15.0621H104.664Z" fill="#B1B7BC"/>
<path d="M117.58 14.8073C119.683 14.8073 121.382 15.4764 122.678 16.8148C123.974 18.1318 124.622 19.9801 124.622 22.3592V32.7153H120.16V22.9648C120.16 21.5626 119.81 20.4899 119.109 19.7462C118.408 18.9814 117.452 18.5992 116.241 18.5992C115.009 18.5992 114.032 18.9814 113.309 19.7462C112.608 20.4899 112.258 21.5626 112.258 22.9648V32.7153H107.797V15.0622H112.258V17.2609C112.853 16.4961 113.607 15.9013 114.521 15.4764C115.455 15.0303 116.475 14.8073 117.58 14.8073Z" fill="#B1B7BC"/>
<path d="M144 23.5065C144 24.1436 143.958 24.7173 143.873 25.2271H130.968C131.073 26.5017 131.52 27.5 132.306 28.2224C133.092 28.9447 134.058 29.3059 135.205 29.3059C136.862 29.3059 138.042 28.594 138.743 27.1708H143.554C143.044 28.8704 142.067 30.2723 140.622 31.3772C139.178 32.4603 137.404 33.0021 135.301 33.0021C133.602 33.0021 132.072 32.6304 130.713 31.887C129.374 31.1222 128.323 30.0492 127.558 28.6684C126.814 27.2875 126.442 25.6945 126.442 23.8887C126.442 22.0618 126.814 20.4579 127.558 19.077C128.301 17.6963 129.342 16.6341 130.681 15.8905C132.019 15.147 133.559 14.7753 135.301 14.7753C136.979 14.7753 138.477 15.1364 139.794 15.8587C141.132 16.581 142.163 17.6113 142.885 18.9498C143.628 20.2668 144 21.7855 144 23.5065ZM139.38 22.2319C139.359 21.0845 138.944 20.1711 138.137 19.4912C137.33 18.7902 136.342 18.4399 135.174 18.4399C134.069 18.4399 133.134 18.7797 132.369 19.4596C131.626 20.1181 131.169 21.0421 130.999 22.2319H139.38Z" fill="#B1B7BC"/>
</svg>
