<svg width="236" height="180" viewBox="0 0 236 180" fill="none" xmlns="http://www.w3.org/2000/svg">
<path d="M20.052 166.203C20.052 171.584 15.6903 175.946 10.3097 175.946C4.92917 175.946 0.567383 171.584 0.567383 166.203C0.567383 160.823 4.92917 156.461 10.3097 156.461C15.6903 156.461 20.052 160.823 20.052 166.203Z" fill="#F5F5F5"/>
<rect x="25.4092" y="155" width="82.8098" height="24.843" rx="2.70679" fill="#F5F5F5"/>
<path d="M34.665 163.768H97.5031M34.665 171.561H70.8931" stroke="white" stroke-width="3.60905" stroke-linecap="round"/>
<path d="M104.105 11.4806C104.105 16.8612 108.467 21.2229 113.848 21.2229C119.228 21.2229 123.59 16.8612 123.59 11.4806C123.59 6.10007 119.228 1.73828 113.848 1.73828C108.467 1.73828 104.105 6.10007 104.105 11.4806Z" fill="white"/>
<rect width="69.1706" height="24.843" rx="2.70679" transform="matrix(-1 0 0 1 98.7471 0.276367)" fill="white"/>
<rect width="91.5779" height="26.3043" rx="2.70679" transform="matrix(-1 0 0 1 98.7471 30.4775)" fill="white"/>
<path d="M89.4922 9.04492H41.2676M89.4922 16.8388H61.6893" stroke="#F5F5F5" stroke-width="3.60905" stroke-linecap="round"/>
<path d="M89.4922 39.7334H20.3216M89.4922 47.5273H36.8836" stroke="#F5F5F5" stroke-width="3.60905" stroke-linecap="round"/>
<path d="M235.569 18.3101H9.53223V9.73489C9.53223 7.00414 11.6712 4.78125 14.3169 4.78125H230.792C233.43 4.78125 235.577 6.99582 235.577 9.73489V18.3101H235.569Z" fill="#0B1433"/>
<rect x="16.2969" y="8.16406" width="51.2968" height="6.76442" rx="3.38221" fill="white"/>
<path d="M216.205 11.4455C216.205 12.6353 215.242 13.5999 214.053 13.5999C212.865 13.5999 211.901 12.6353 211.901 11.4455C211.901 10.2556 212.865 9.29102 214.053 9.29102C215.242 9.29102 216.205 10.2556 216.205 11.4455Z" fill="white"/>
<path d="M223.583 11.4455C223.583 12.6353 222.62 13.5999 221.431 13.5999C220.243 13.5999 219.279 12.6353 219.279 11.4455C219.279 10.2556 220.243 9.29102 221.431 9.29102C222.62 9.29102 223.583 10.2556 223.583 11.4455Z" fill="#E8F4FF"/>
<path d="M230.969 11.4455C230.969 12.6353 230.006 13.5999 228.817 13.5999C227.629 13.5999 226.665 12.6353 226.665 11.4455C226.665 10.2556 227.629 9.29102 228.817 9.29102C230.006 9.29102 230.969 10.2556 230.969 11.4455Z" fill="#CEDFFD"/>
<path d="M9.53223 18.3105H235.577V134.271C235.577 140.898 230.204 146.271 223.577 146.271H21.5322C14.9048 146.271 9.53223 140.898 9.53223 134.271V18.3105Z" fill="#655AFF"/>
<rect x="27.0068" y="26.2021" width="179.257" height="9.01923" rx="4.50961" fill="white" stroke="#0B1433" stroke-width="0.25"/>
<path d="M216.793 33.0385L215.525 31.7704C216.243 30.6539 216.113 29.1478 215.135 28.174C214.01 27.0488 212.179 27.0488 211.054 28.174C209.929 29.2992 209.929 31.1299 211.054 32.2552C212.032 33.2333 213.534 33.3631 214.65 32.6447L215.918 33.9127C216.161 34.1551 216.55 34.1551 216.793 33.9127C217.035 33.6704 217.035 33.2765 216.793 33.0385ZM211.768 31.5367C211.037 30.8053 211.037 29.6152 211.768 28.8838C212.499 28.1524 213.69 28.1524 214.421 28.8838C215.152 29.6152 215.152 30.8053 214.421 31.5367C213.69 32.2725 212.499 32.2725 211.768 31.5367Z" fill="white"/>
<rect x="122.836" y="56.6426" width="79.4819" height="7.89182" rx="3.94591" fill="#8880FF"/>
<rect x="122.836" y="67.916" width="54.6791" height="7.89182" rx="3.94591" fill="#8880FF"/>
<rect x="122.836" y="110.758" width="23.1118" height="7.89182" rx="3.94591" fill="#0B1433"/>
<rect x="122.836" y="80.8809" width="87.3737" height="3.38221" rx="1.6911" fill="#8880FF"/>
<rect x="122.836" y="87.2627" width="87.3737" height="3.38221" rx="1.6911" fill="#8880FF"/>
<rect x="122.836" y="93.6445" width="32.131" height="3.38221" rx="1.6911" fill="#8880FF"/>
<rect x="27.0068" y="54.3867" width="80.6093" height="70.4627" rx="6" fill="white"/>
<rect x="41.6631" y="82.5723" width="52.988" height="3.38221" rx="1.6911" fill="#D9D9D9"/>
<rect x="41.6631" y="91.0273" width="52.988" height="3.38221" rx="1.6911" fill="#D9D9D9"/>
<rect x="41.6631" y="99.4834" width="52.988" height="3.38221" rx="1.6911" fill="#D9D9D9"/>
<rect x="41.6631" y="107.938" width="19.7296" height="3.38221" rx="1.6911" fill="#D9D9D9"/>
<path d="M61.4465 66.2589C65.0452 59.535 62.5117 51.1668 55.7879 47.5681C49.064 43.9694 40.6959 46.5028 37.0971 53.2267C33.4984 59.9506 36.0318 68.3187 42.7557 71.9174C49.4796 75.5162 57.8477 72.9827 61.4465 66.2589Z" fill="#6CCB71"/>
<path d="M45.5023 65.7522L42.1258 61.8365C41.642 61.2771 41.7529 60.4859 42.3677 60.0727C42.9825 59.6645 43.8796 59.7854 44.3633 60.3448L46.1725 62.4463C46.4144 62.7285 46.8428 62.7486 47.1149 62.4967L54.5179 55.5321C55.0571 55.0282 55.8987 55.0584 56.4027 55.5976C56.9066 56.1368 56.8764 56.9784 56.3371 57.4824L47.4223 65.858C46.868 66.3771 45.9961 66.3267 45.5023 65.7522Z" fill="white"/>
</svg>
