<svg width="391" height="253" viewBox="0 0 391 253" fill="none" xmlns="http://www.w3.org/2000/svg">
<rect x="34.2285" y="29.9961" width="137.555" height="148.213" rx="13" stroke="#E4E4E4" stroke-width="1.5" stroke-linejoin="round" stroke-dasharray="3 3"/>
<path d="M84.8558 3.9707H66.5478C56.9767 3.9707 49.2178 11.7296 49.2178 21.3007L49.239 184.263C58.9294 184.263 56.9767 184.32 66.5478 184.32H181.103C190.674 184.32 189.909 184.262 198.433 184.262V21.3007C198.433 11.7296 190.674 3.9707 181.103 3.9707H162.249L162.153 12.2508C161.888 15.2316 159.391 17.5166 156.399 17.5166H90.5898C87.5729 17.5166 85.0641 15.1952 84.8304 12.1874L84.8558 3.9707Z" fill="url(#paint0_linear_621_334)"/>
<rect x="69.1875" y="41.7451" width="42.75" height="43.8505" rx="5" fill="#2D2D2D"/>
<g filter="url(#filter0_d_621_334)">
<rect x="119.228" y="49.7812" width="45.9023" height="5.90918" rx="2.95459" fill="white"/>
</g>
<g filter="url(#filter1_d_621_334)">
<rect x="119.228" y="69.0879" width="45.9023" height="5.90918" rx="2.95459" fill="white"/>
</g>
<g filter="url(#filter2_d_621_334)">
<rect x="119.228" y="59.4346" width="63.041" height="5.90918" rx="2.95459" fill="white"/>
</g>
<path d="M101.841 60.7512C102.456 63.0446 102.336 65.4729 101.5 67.6951C100.664 69.9173 99.1522 71.8216 97.178 73.1407C95.2038 74.4599 92.866 75.1274 90.493 75.0498C88.1199 74.9721 85.8308 74.153 83.9471 72.7076C82.0634 71.2622 80.6798 69.2631 79.9905 66.991C79.3013 64.7189 79.3411 62.2879 80.1043 60.0396C80.8675 57.7913 82.3158 55.8385 84.2458 54.4555C86.1757 53.0725 88.4904 52.3287 90.8648 52.3287L90.8648 54.2678C88.8956 54.2678 86.9759 54.8847 85.3752 56.0317C83.7746 57.1787 82.5734 58.7982 81.9405 60.6629C81.3075 62.5276 81.2745 64.5437 81.8461 66.4281C82.4178 68.3125 83.5653 69.9705 85.1275 71.1692C86.6898 72.368 88.5883 73.0473 90.5564 73.1117C92.5245 73.1761 94.4634 72.6225 96.1007 71.5284C97.738 70.4344 98.9915 68.855 99.6852 67.0121C100.379 65.1691 100.478 63.1551 99.9681 61.2531L101.841 60.7512Z" fill="#5E53FA"/>
<path d="M90.865 52.3271C93.2393 52.3271 95.554 53.0709 97.484 54.4539C99.414 55.8369 100.862 57.7897 101.625 60.038C102.389 62.2863 102.428 64.7173 101.739 66.9894C101.05 69.2615 99.6663 71.2606 97.7827 72.706C95.899 74.1514 93.6098 74.9705 91.2368 75.0482C88.8637 75.1259 86.5259 74.4583 84.5517 73.1391C82.5775 71.82 81.0661 69.9157 80.2297 67.6935C79.3934 65.4714 79.2741 63.043 79.8886 60.7496L81.7616 61.2515C81.252 63.1536 81.3509 65.1675 82.0446 67.0105C82.7382 68.8534 83.9917 70.4328 85.629 71.5268C87.2663 72.6209 89.2052 73.1745 91.1733 73.1101C93.1414 73.0457 95.04 72.3664 96.6022 71.1676C98.1645 69.9689 99.312 68.3109 99.8836 66.4265C100.455 64.5421 100.422 62.526 99.7893 60.6613C99.1563 58.7966 97.9551 57.1771 96.3545 56.0301C94.7539 54.8831 92.8341 54.2663 90.865 54.2663V52.3271Z" fill="#FFCE50"/>
<path d="M204.934 21.3007V21.3009L204.955 183.263C204.955 184.652 206.086 185.762 207.458 185.763C211.585 185.765 213.374 185.778 215.157 185.791L215.351 185.793C217.207 185.807 219.147 185.82 223.764 185.82H338.319C342.912 185.82 345.128 185.807 347.131 185.793L347.568 185.789C349.402 185.776 351.186 185.764 354.645 185.762C356.014 185.761 357.149 184.653 357.149 183.262V21.3007C357.149 10.9012 348.719 2.4707 338.319 2.4707H320.454C319.084 2.4707 317.97 3.57231 317.954 4.94153L317.869 12.1714C317.649 14.352 315.812 16.0166 313.615 16.0166H247.806C245.591 16.0166 243.746 14.3267 243.546 12.127L243.569 4.97842C243.573 3.59469 242.452 2.4707 241.069 2.4707H223.764C213.364 2.4707 204.934 10.9012 204.934 21.3007Z" fill="url(#paint1_linear_621_334)" stroke="url(#paint2_linear_621_334)" stroke-width="3"/>
<mask id="mask0_621_334" style="mask-type:alpha" maskUnits="userSpaceOnUse" x="206" y="3" width="150" height="182">
<path d="M242.072 3.9707H223.764C214.193 3.9707 206.434 11.7296 206.434 21.3007L206.455 184.263C216.145 184.263 214.193 184.32 223.764 184.32H338.319C347.89 184.32 347.125 184.262 355.649 184.262V21.3007C355.649 11.7296 347.89 3.9707 338.319 3.9707H319.465L319.369 12.2508C319.104 15.2316 316.607 17.5166 313.615 17.5166H247.806C244.789 17.5166 242.28 15.1952 242.046 12.1874L242.072 3.9707Z" fill="url(#paint3_linear_621_334)"/>
</mask>
<g mask="url(#mask0_621_334)">
<path d="M403.609 74.4944L402.621 72.8L384.9 83.3197C382.358 81.0604 372.897 72.7294 372.121 72.094C371.274 71.4586 350.234 57.5501 346.845 55.2908C353.482 45.4772 353.764 33.1925 353.764 32.5571V32.4159V32.2747C353.623 31.6393 349.528 16.3187 343.668 9.7528C342.115 8.05836 341.903 3.96348 342.892 -1.75525L358.424 0.433395L401.35 12.8593L402.268 9.6116L359.13 -2.74368L343.457 -5.00293C345.786 -14.7459 350.375 -24.5596 351.788 -25.2656C355.035 -26.6776 375.368 -38.7505 376.216 -39.2447L375.227 -40.9391C375.086 -40.7979 354.188 -28.4426 351.081 -27.0306C348.399 -25.901 343.668 -14.1811 341.55 -5.21473L338.656 -5.63834C340.985 -15.452 345.645 -25.4068 347.057 -26.1128C350.305 -27.5248 370.638 -39.5977 371.485 -40.0919L370.497 -41.7863C370.285 -41.6451 349.387 -29.2193 346.281 -27.8778C343.598 -26.7482 338.797 -14.8165 336.749 -5.92075L326.865 -7.33278L311.05 -1.75525L295.165 -2.46127L285.775 -8.81541C280.198 -12.6279 273.773 -16.9346 267.348 -21.2413L273.208 -25.2656L297.071 -61.2724L296.153 -68.6855L292.765 -68.2619L293.471 -62.1196L270.666 -27.666L264.312 -23.2181C249.345 -33.3848 235.507 -42.8454 234.448 -43.8338C234.448 -43.8338 234.589 -43.6926 234.659 -43.5514L231.694 -41.7863C231.977 -41.2921 232.259 -40.8685 258.17 -23.2181C259.37 -22.4415 260.57 -21.5943 261.771 -20.8177L243.908 2.26904L223.787 14.6243C221.175 12.1533 218.633 9.894 216.444 7.91716C215.385 6.92874 214.397 6.01092 213.408 5.1637L232.118 -11.0747L232.188 -11.1453L240.872 -23.9241L234.095 -29.1487L232.894 -27.5954L238.26 -23.5711L234.165 -17.4994L230.141 -22.7239L228.588 -21.5237L232.965 -15.805L230.706 -12.4867L230 -11.9219L224.422 -21.2413L222.869 -20.1823L228.588 -10.5804L211.996 3.82227C210.373 2.26904 209.172 1.13941 208.678 0.503998C205.219 -4.0145 197.876 -17.0052 197.735 -17.1464L193.922 -14.9577C194.205 -14.3929 201.547 -1.47285 205.289 3.18686C206.348 4.52829 209.243 7.14055 213.55 11.0942C215.456 12.7887 217.645 14.7655 219.974 16.9542L200.841 28.7446L197.805 32.6277C191.734 22.7435 187.356 15.7539 186.933 15.4715L185.733 17.0248C185.662 16.9542 185.591 16.9542 185.591 16.9542C186.156 17.5896 190.604 24.7203 196.464 34.3222L188.557 44.3476L181.567 47.3834L182.344 49.1485L186.015 47.5952L171.542 65.9517L174.225 68.0697L192.652 44.7006L200.206 41.3823L200.63 41.0999C206.136 50.1369 212.349 60.3035 217.645 68.9169L208.819 71.1056L169.988 98.0754L171.965 100.899L186.297 90.9446L196.605 108.454L202.042 119.044L182.767 122.433C182.132 120.809 180.437 116.644 178.672 112.478C173.872 101.323 173.166 101.182 172.46 101.041L172.107 102.876C171.895 102.876 171.824 102.735 171.824 102.735C172.813 103.653 177.119 113.396 180.861 122.645L167.8 124.975L168.153 126.881L181.426 124.551L183.12 133.8L193.358 141.495L184.109 176.373L186.015 176.867L195.123 142.413L221.598 153.003L220.892 156.745L196.888 207.367L198.653 208.214L222.728 157.381L223.363 153.78L236.213 158.863C225.693 175.172 210.584 201.86 209.737 203.413L211.432 204.401C211.714 203.907 238.613 156.251 245.744 148.909C242.355 155.121 239.813 160.205 238.401 163.947C228.164 180.256 215.385 202.919 214.609 204.331L216.303 205.319C216.444 205.037 227.246 185.904 236.989 170.018C236.848 171.854 236.636 173.76 236.354 175.596C235.366 183.997 234.448 191.905 237.625 196.565C241.225 201.719 260.005 222.405 260.782 223.252L264.03 220.287C263.818 220.075 244.614 198.965 241.225 194.023C238.966 190.775 239.813 183.291 240.661 176.09C240.943 173.76 241.225 171.43 241.367 169.101C241.578 166.276 245.179 158.934 249.768 150.532C250.192 150.038 250.615 149.615 250.898 149.332C255.416 145.308 272.573 129.846 284.928 117.914C285.634 119.609 286.128 120.88 286.269 121.656C286.763 124.198 283.375 138.459 280.692 149.968C275.044 173.972 272.573 185.692 274.408 189.081C274.973 190.21 276.526 192.681 278.574 196.07L263.112 212.521L264.524 213.862L279.845 197.694C284.081 204.472 289.941 213.862 295.024 221.911C293.824 223.252 293.047 224.099 292.835 224.24C292.835 224.24 292.835 224.24 292.906 224.24L294.035 225.864C294.177 225.723 294.953 224.946 296.153 223.676C300.954 231.23 304.767 237.231 305.12 237.867L308.862 235.537C308.721 235.395 304.484 228.688 299.26 220.357C306.108 212.803 318.252 199.106 327.289 188.94L346.916 206.519C340.562 213.933 330.678 225.158 329.548 225.864C329.548 225.864 329.619 225.794 329.689 225.794L330.254 227.7C330.678 227.559 331.172 227.417 340.279 217.11C343.668 213.227 347.057 209.414 348.399 207.79L373.039 229.889L374.309 228.406L359.695 215.345L374.451 200.801L382.993 208.779L384.97 206.661L363.366 186.398L363.296 186.327L350.517 177.008L357.365 170.089L381.158 193.176L382.499 191.764L357.294 167.336L348.893 175.878L335.479 160.417L344.939 154.557L355.247 154.91L361.248 151.944L367.461 148.909L385.676 160.417L386.735 158.793L367.602 146.72L363.154 148.909L383.205 116.079C387.159 126.387 391.042 136.13 391.042 136.271L392.878 135.565C392.807 135.424 388.43 124.198 384.123 113.114C377.981 97.1576 376.498 92.4978 376.145 91.1564L384.264 86.3555L393.231 115.796L395.066 115.232L385.959 85.2965L403.609 74.4944ZM383.064 84.3787L362.872 96.3103L354.47 85.4377L365.202 81.837L368.944 72.447C370.003 73.153 370.638 73.5766 370.779 73.7178C371.485 74.1414 378.193 80.072 383.064 84.3787ZM367.39 71.388L363.79 80.3544L351.293 84.5199L361.178 97.44L358.636 98.9226L348.681 104.853L348.469 104.994L345.151 109.795L337.385 112.76L335.69 113.82L323.053 76.1183C328.418 70.9644 333.784 66.3753 338.373 63.6218C341.338 61.8568 343.668 59.5975 345.575 57.0559C350.87 60.4447 361.742 67.6461 367.39 71.388ZM292.129 110.995C295.024 108.03 297.212 105.7 298.06 104.43C300.884 100.193 310.98 87.9088 321.57 77.4597L334.067 114.667L304.696 132.67L292.129 110.995ZM224.069 139.236L209.737 131.399L210.867 128.575L224.846 134.859L224.069 139.236ZM225.411 131.894L225.269 132.811L211.643 126.669L212.844 123.563L225.693 125.892L225.411 131.894ZM214.679 118.903C219.198 119.256 224.069 119.891 225.976 120.597L225.834 123.916L213.62 121.727L214.679 118.903ZM220.68 117.561C218.562 117.279 216.444 117.067 215.244 116.997L217.362 105.136L226.682 107.042L226.117 118.691C224.916 118.267 223.222 117.914 220.68 117.561ZM230.565 69.0581L257.181 62.1392C257.605 63.057 258.099 63.9042 258.523 64.822L258.029 68.9169L242.637 82.9666C237.413 82.19 231.765 81.2722 229.929 80.8486L230.565 69.0581ZM231.412 47.3834C231.341 47.3128 227.741 42.7943 223.999 38.417C221.81 35.8048 220.045 33.7573 218.774 32.2747C218.068 31.4275 217.503 30.7921 217.009 30.3685L227.105 23.8025C236.919 33.3337 247.65 44.7712 253.157 54.726C253.934 56.138 254.71 57.6207 255.487 59.0327L230.776 65.4574L231.694 47.6659L231.412 47.3834ZM323.194 26.0618C320.935 25.7794 315.781 25.144 314.439 24.9321C314.298 24.7909 314.157 24.5085 313.945 24.1555L324.394 15.5421L323.194 26.0618ZM313.874 26.8384C314.792 26.9796 321.711 27.8268 322.982 27.968L321.711 38.2758L317.546 41.5941L313.874 37.9934L295.236 46.9598L291.564 41.4529L293.965 40.6763L312.533 25.3558C313.168 26.6972 313.592 26.7678 313.874 26.8384ZM278.079 57.4089L285.563 66.7283L283.092 68.6345L274.62 59.6681L278.079 57.4089ZM287.116 65.5281L279.845 56.4204L294.459 49.4309L298.978 56.138L287.116 65.5281ZM277.797 55.2202L263.465 64.822C262.688 63.2688 261.912 61.7862 261.135 60.2329L284.787 43.571L289.446 42.0883L293.329 47.8071L277.797 55.2202ZM273.067 60.7977L281.61 69.9053L270.031 79.013C269.748 78.5893 269.607 78.1657 269.466 77.9539C267.913 74.2826 266.218 70.4702 264.383 66.5871L273.067 60.7977ZM282.951 71.3174L283.304 71.6704L283.375 71.741L303.92 87.3439C298.06 93.9099 293.4 99.7698 291.635 102.453C290.858 103.653 288.74 105.912 285.846 108.877C281.115 99.1344 274.267 86.5673 271.019 80.7074L282.951 71.3174ZM305.19 85.9319L284.716 70.3289L284.504 70.1172L307.873 51.6901L319.311 71.4586C314.51 75.9771 309.568 81.0604 305.19 85.9319ZM300.531 54.9378L296.224 48.5837L313.38 40.3233L315.922 42.7943L300.531 54.9378ZM292.2 37.6404L289.446 38.4876L284.151 30.6509C292.482 25.9912 301.307 21.1197 308.862 16.9542C309.638 19.1428 310.344 20.8372 310.909 22.1787L292.2 37.6404ZM287.54 39.1231L283.304 40.4645L259.582 57.1971C258.735 55.6438 257.958 54.0906 257.111 52.608C256.193 50.9841 255.205 49.3603 254.075 47.6659C257.323 45.689 269.113 39.0525 282.457 31.6393L287.54 39.1231ZM280.762 30.3685C261.488 41.0999 255.134 44.7712 252.945 46.042C250.757 42.9355 248.286 39.8291 245.603 36.652L270.384 13.7065L281.327 29.9449C281.186 30.1567 280.974 30.2273 280.762 30.3685ZM260.147 67.9991C262.194 72.1646 263.959 76.2595 265.583 80.0014L261.841 87.2027L258.593 105.206L255.628 106.971L260.147 67.9991ZM275.82 98.9932C278.291 103.723 280.692 108.313 282.527 112.196C275.891 118.691 266.854 127.093 259.229 134.082C260.005 132.741 260.711 131.47 261.488 130.199C269.96 115.514 275.185 106.406 275.82 103.017C275.961 101.888 275.961 100.546 275.82 98.9932ZM286.693 110.784C289.941 107.536 292.27 104.994 293.188 103.582C296.295 98.852 308.368 84.3787 320.158 73.3648L320.864 75.4829C309.85 86.2143 299.331 98.9932 296.365 103.37C295.306 104.994 291.988 108.383 287.611 112.76C287.328 112.125 287.046 111.419 286.693 110.784ZM342.115 11.0942C347.41 17.0248 351.364 31.1451 351.788 32.6983C351.717 34.4634 350.658 53.7376 337.385 61.7862C332.937 64.5396 327.642 68.9169 322.417 73.9296L321.711 71.8822C325.877 68.0697 329.972 64.7514 333.572 62.6334C348.328 53.667 348.893 32.6277 348.893 31.7805V31.6393V31.4981C348.752 30.8627 344.657 15.5421 338.797 8.97619C337.314 7.28175 337.032 3.25746 338.02 -2.32007L340.915 -1.89645C339.715 4.52829 340.138 8.90559 342.115 11.0942ZM246.238 4.81069L264.595 -18.9114C274.832 -11.9925 283.657 -5.99134 283.798 -5.92075L293.965 0.998207L311.474 1.77483L327.148 -3.8027L335.973 -2.53187C334.843 3.82227 335.267 8.12897 337.244 10.3176C342.539 16.2482 346.492 30.3685 346.916 31.9217C346.845 33.6867 345.786 52.961 332.513 61.0096C328.983 63.1982 324.888 66.3753 320.793 70.1172L309.427 50.4193L323.476 39.3349L326.583 13.7065L327.148 13.2123L328.489 5.86972L325.1 5.2343L323.97 11.3766L312.533 20.9079C311.827 19.2134 311.05 17.166 310.344 15.2597L309.991 14.2007L309.003 14.7655C308.862 14.8361 296.295 21.7551 283.163 29.0976L270.808 10.8118L244.403 35.24C238.754 28.8152 232.33 22.5317 226.54 16.9542L246.238 4.81069ZM203.101 31.2863L222.516 19.3546C223.575 20.343 224.634 21.3315 225.693 22.3905L201.265 38.2758C200.7 37.358 200.206 36.5108 199.641 35.6636L203.101 31.2863ZM199.288 39.5467L195.193 41.3117L198.37 37.2874C198.794 37.9934 199.218 38.6289 199.641 39.3349L199.288 39.5467ZM202.324 39.9703L215.385 31.4981C217.362 33.4043 224.846 42.4413 229.647 48.3719L228.729 66.0223L219.551 68.4227C213.832 58.8915 207.69 48.7955 202.324 39.9703ZM228.588 69.5523L226.752 105.065L216.515 103.017L209.243 104.571L214.326 89.0384L209.031 75.2005L210.302 74.3533L228.588 69.5523ZM207.407 76.3301L212.279 89.0384L207.054 104.994L197.947 106.901L187.921 89.815L207.407 76.3301ZM198.935 108.666L215.315 105.206L213.197 117.067L204.089 118.691L198.935 108.666ZM183.332 124.269L202.395 120.95L201.124 129.281L194.275 139.801L184.956 132.811L183.332 124.269ZM195.97 140.719L202.959 129.987L204.442 120.597L212.561 119.185L207.337 132.247L223.716 141.213L221.951 151.027L195.97 140.719ZM227.317 132.247L227.952 120.456L228.447 120.244C228.376 120.032 228.235 119.821 227.952 119.609L228.658 105.63V105.489L228.941 99.4874L242.214 101.747L242.567 99.8404L229.082 97.5812L229.859 82.896C231.694 83.3196 235.366 83.9551 242.849 85.0141L243.273 85.0847L257.676 71.9528L253.369 108.595L231.482 141.778L229.223 153.921L223.787 151.733L227.317 132.247ZM244.967 146.932C243.414 148.344 240.661 152.156 237.342 157.169L231.059 154.627L233.389 142.413L255.063 109.513L260.288 106.336L263.606 87.7675L266.501 82.3312C270.172 91.58 272.078 98.852 271.443 102.17C270.949 104.924 263.889 117.138 257.676 127.94C254.428 133.588 251.392 138.812 248.78 143.543C247.085 145.025 245.815 146.226 244.967 146.932ZM253.016 144.884C254.004 143.119 254.993 141.354 255.981 139.589C264.171 132.105 275.326 121.868 283.375 114.031C283.728 114.737 284.01 115.373 284.292 116.008C273.985 125.892 259.935 138.671 253.016 144.884ZM278.503 186.963C278.362 186.469 278.009 184.28 279.986 174.254C281.257 167.9 283.022 160.134 284.857 152.509L297.283 154.768L297.636 152.862L285.351 150.674C289.164 134.294 291.494 124.127 290.858 120.88C290.647 119.609 289.799 117.42 288.599 114.737C289.093 114.243 289.588 113.749 290.082 113.325L304.202 137.753L313.521 139.448L322.7 150.038L282.104 192.823C280.268 189.928 278.997 187.881 278.503 186.963ZM315.569 160.064L333.714 178.491C331.595 180.891 329.336 183.433 327.006 186.045L307.52 168.536L315.569 160.064ZM298.06 218.522C292.906 210.332 286.975 200.942 282.951 194.447L306.108 170.018L325.665 187.528C315.569 198.965 304.484 211.461 298.06 218.522ZM346.775 177.855L361.319 188.445L372.968 199.318L358.212 213.933L328.56 187.386C331.525 183.997 334.067 181.173 335.902 179.126L336.538 178.42L317.052 158.652L323.9 151.38L346.775 177.714V177.855ZM325.877 149.332L333.219 142.766L342.962 153.145L333.996 158.722L325.877 149.332ZM354.682 152.792L345.01 152.439L333.431 140.083L324.676 147.85L314.933 136.624L305.967 135L305.614 134.435L338.303 114.384L346.492 111.278L349.881 106.336L359.483 100.688L372.262 129.917L359.765 150.321L354.682 152.792ZM382.217 113.537L373.462 127.869L361.107 99.6992L374.239 91.933C374.309 92.2154 374.38 92.4978 374.521 92.7803C374.945 93.9805 375.51 95.7455 376.357 98.0048C377.769 101.747 379.746 106.971 382.217 113.537ZM322.841 121.021L321.217 122.08L313.521 109.795L315.145 108.736L322.841 121.021ZM340.421 52.3256L330.183 42.6531L334.208 31.8511L336.043 32.5571L332.443 42.1589L341.691 50.9135L340.421 52.3256Z" fill="url(#paint4_linear_621_334)"/>
</g>
<g filter="url(#filter3_d_621_334)">
<rect x="16.1475" y="96.6807" width="182.413" height="123.525" rx="10" fill="white"/>
</g>
<rect x="32.749" y="162.171" width="150.398" height="47.5259" rx="10" fill="#FFCE50"/>
<path d="M50.7973 173.602C49.2505 173.602 47.7384 174.06 46.4523 174.92C45.1662 175.779 44.1638 177 43.5719 178.429C42.98 179.858 42.8251 181.431 43.1268 182.948C43.4286 184.465 44.1735 185.859 45.2672 186.952C46.3609 188.046 47.7545 188.791 49.2715 189.093C50.7886 189.394 52.3611 189.24 53.7901 188.648C55.2192 188.056 56.4406 187.053 57.3 185.767C58.1593 184.481 58.618 182.969 58.618 181.422C58.614 179.349 57.7888 177.362 56.323 175.897C54.8572 174.431 52.8702 173.606 50.7973 173.602ZM54.5196 180.054L50.113 184.265C49.999 184.372 49.8483 184.431 49.6919 184.43C49.6154 184.431 49.5395 184.417 49.4685 184.389C49.3975 184.36 49.3329 184.318 49.2783 184.265L47.0749 182.159C47.0138 182.106 46.9641 182.041 46.9288 181.968C46.8935 181.895 46.8733 181.815 46.8695 181.734C46.8657 181.653 46.8783 181.572 46.9065 181.496C46.9348 181.42 46.9781 181.351 47.0339 181.292C47.0897 181.233 47.1568 181.186 47.2312 181.154C47.3057 181.122 47.3858 181.105 47.4669 181.104C47.548 181.104 47.6284 181.12 47.7032 181.151C47.778 181.183 47.8456 181.229 47.9021 181.287L49.6919 182.994L53.6925 179.181C53.8094 179.079 53.9613 179.026 54.1164 179.034C54.2714 179.041 54.4177 179.108 54.5245 179.221C54.6313 179.333 54.6904 179.483 54.6895 179.638C54.6886 179.793 54.6278 179.942 54.5196 180.054Z" fill="white"/>
<rect x="65.2354" y="174.203" width="99.8645" height="7.82072" rx="3.91036" fill="#FFE7A8"/>
<rect x="65.2354" y="186.836" width="64.9721" height="7.82072" rx="3.91036" fill="#FFE7A8"/>
<rect x="32.1475" y="106.824" width="150.398" height="47.5259" rx="10" fill="#5E53FA"/>
<path d="M50.1957 118.255C48.6489 118.255 47.1369 118.714 45.8508 119.573C44.5647 120.432 43.5623 121.654 42.9703 123.083C42.3784 124.512 42.2235 126.084 42.5253 127.601C42.827 129.118 43.5719 130.512 44.6656 131.606C45.7594 132.699 47.1529 133.444 48.67 133.746C50.187 134.048 51.7595 133.893 53.1886 133.301C54.6176 132.709 55.8391 131.707 56.6984 130.421C57.5578 129.134 58.0164 127.622 58.0164 126.076C58.0125 124.003 57.1872 122.016 55.7214 120.55C54.2556 119.084 52.2687 118.259 50.1957 118.255ZM53.9181 124.707L49.5114 128.918C49.3975 129.025 49.2467 129.085 49.0903 129.084C49.0138 129.085 48.9379 129.071 48.8669 129.042C48.796 129.014 48.7313 128.972 48.6767 128.918L46.4734 126.813C46.4122 126.759 46.3625 126.694 46.3272 126.621C46.2919 126.548 46.2718 126.469 46.2679 126.388C46.2641 126.307 46.2767 126.226 46.3049 126.15C46.3332 126.074 46.3765 126.004 46.4323 125.945C46.4881 125.886 46.5553 125.839 46.6297 125.807C46.7041 125.775 46.7843 125.758 46.8654 125.758C46.9465 125.757 47.0268 125.773 47.1016 125.804C47.1764 125.836 47.2441 125.882 47.3005 125.94L49.0903 127.647L53.0909 123.835C53.2079 123.733 53.3598 123.68 53.5148 123.687C53.6699 123.694 53.8161 123.761 53.9229 123.874C54.0297 123.987 54.0889 124.136 54.088 124.291C54.0871 124.447 54.0262 124.596 53.9181 124.707Z" fill="white"/>
<rect x="64.6338" y="118.856" width="99.8645" height="7.82072" rx="3.91036" fill="#837AFF"/>
<rect x="64.6338" y="131.489" width="64.9721" height="7.82072" rx="3.91036" fill="#837AFF"/>
<g filter="url(#filter4_d_621_334)">
<rect x="256.143" y="126.261" width="118.429" height="90.887" rx="10" fill="#25262A"/>
</g>
<path d="M318.334 150.1C309.984 149.395 302.2 153.059 297.388 159.401L291.303 157.428L294.558 173.775L307.153 162.783L301.492 160.951C305.597 156.3 311.541 153.764 317.909 154.328C327.674 155.032 335.6 163.065 336.024 172.929C336.59 184.203 327.533 193.645 316.353 193.645C312.39 193.645 308.569 192.518 305.455 190.404C304.606 189.84 303.332 189.981 302.625 190.827C301.917 191.813 302.059 193.222 303.049 193.927C307.012 196.604 311.682 198.014 316.353 198.014C330.08 198.014 340.978 186.599 340.27 172.788C339.704 160.669 330.222 150.945 318.334 150.1Z" fill="white"/>
<path d="M312.248 167.152C311.257 167.152 310.691 167.715 310.691 168.984V170.957H308.002V169.125C308.002 166.165 309.418 164.474 312.39 164.474C315.22 164.474 316.777 166.165 316.777 169.125C316.777 174.902 310.974 177.157 310.974 180.117C310.974 180.257 310.974 180.398 310.974 180.539H316.494V183.217H308.002V180.962C308.002 175.466 313.805 174.621 313.805 169.265C313.805 167.574 313.239 167.152 312.248 167.152Z" fill="white"/>
<path d="M317.767 177.157L323.003 164.615H326.117V177.157H327.532V179.835H326.117V183.217H323.286V179.835H317.625V177.157H317.767ZM323.428 177.157V170.252L320.456 177.157H323.428Z" fill="white"/>
<path d="M301.634 188.008C301.634 189.277 300.643 190.404 299.228 190.404C297.954 190.263 296.964 189.277 296.964 188.008C296.964 186.74 297.954 185.613 299.37 185.613C300.502 185.613 301.634 186.599 301.634 188.008Z" fill="white"/>
<path d="M297.246 182.089C297.246 183.357 296.256 184.485 294.84 184.485C293.425 184.485 292.434 183.498 292.434 182.089C292.434 180.821 293.425 179.693 294.84 179.693C296.256 179.693 297.246 180.821 297.246 182.089Z" fill="white"/>
<rect x="266.241" y="140.031" width="42.2303" height="3.6722" rx="1.8361" fill="#404040"/>
<rect x="266.241" y="146.458" width="18.361" height="3.6722" rx="1.8361" fill="#404040"/>
<rect x="345.193" y="203.377" width="18.361" height="3.6722" rx="1.8361" fill="#404040"/>
<defs>
<filter id="filter0_d_621_334" x="115.228" y="49.7812" width="53.9023" height="15.9092" filterUnits="userSpaceOnUse" color-interpolation-filters="sRGB">
<feFlood flood-opacity="0" result="BackgroundImageFix"/>
<feColorMatrix in="SourceAlpha" type="matrix" values="0 0 0 0 0 0 0 0 0 0 0 0 0 0 0 0 0 0 127 0" result="hardAlpha"/>
<feOffset dy="6"/>
<feGaussianBlur stdDeviation="2"/>
<feComposite in2="hardAlpha" operator="out"/>
<feColorMatrix type="matrix" values="0 0 0 0 0.891667 0 0 0 0 0.891667 0 0 0 0 0.891667 0 0 0 0.25 0"/>
<feBlend mode="normal" in2="BackgroundImageFix" result="effect1_dropShadow_621_334"/>
<feBlend mode="normal" in="SourceGraphic" in2="effect1_dropShadow_621_334" result="shape"/>
</filter>
<filter id="filter1_d_621_334" x="115.228" y="69.0879" width="53.9023" height="15.9092" filterUnits="userSpaceOnUse" color-interpolation-filters="sRGB">
<feFlood flood-opacity="0" result="BackgroundImageFix"/>
<feColorMatrix in="SourceAlpha" type="matrix" values="0 0 0 0 0 0 0 0 0 0 0 0 0 0 0 0 0 0 127 0" result="hardAlpha"/>
<feOffset dy="6"/>
<feGaussianBlur stdDeviation="2"/>
<feComposite in2="hardAlpha" operator="out"/>
<feColorMatrix type="matrix" values="0 0 0 0 0.891667 0 0 0 0 0.891667 0 0 0 0 0.891667 0 0 0 0.25 0"/>
<feBlend mode="normal" in2="BackgroundImageFix" result="effect1_dropShadow_621_334"/>
<feBlend mode="normal" in="SourceGraphic" in2="effect1_dropShadow_621_334" result="shape"/>
</filter>
<filter id="filter2_d_621_334" x="115.228" y="59.4346" width="71.041" height="15.9092" filterUnits="userSpaceOnUse" color-interpolation-filters="sRGB">
<feFlood flood-opacity="0" result="BackgroundImageFix"/>
<feColorMatrix in="SourceAlpha" type="matrix" values="0 0 0 0 0 0 0 0 0 0 0 0 0 0 0 0 0 0 127 0" result="hardAlpha"/>
<feOffset dy="6"/>
<feGaussianBlur stdDeviation="2"/>
<feComposite in2="hardAlpha" operator="out"/>
<feColorMatrix type="matrix" values="0 0 0 0 0.891667 0 0 0 0 0.891667 0 0 0 0 0.891667 0 0 0 0.25 0"/>
<feBlend mode="normal" in2="BackgroundImageFix" result="effect1_dropShadow_621_334"/>
<feBlend mode="normal" in="SourceGraphic" in2="effect1_dropShadow_621_334" result="shape"/>
</filter>
<filter id="filter3_d_621_334" x="0.147461" y="96.6807" width="214.413" height="155.524" filterUnits="userSpaceOnUse" color-interpolation-filters="sRGB">
<feFlood flood-opacity="0" result="BackgroundImageFix"/>
<feColorMatrix in="SourceAlpha" type="matrix" values="0 0 0 0 0 0 0 0 0 0 0 0 0 0 0 0 0 0 127 0" result="hardAlpha"/>
<feOffset dy="16"/>
<feGaussianBlur stdDeviation="8"/>
<feComposite in2="hardAlpha" operator="out"/>
<feColorMatrix type="matrix" values="0 0 0 0 0.558333 0 0 0 0 0.558333 0 0 0 0 0.558333 0 0 0 0.25 0"/>
<feBlend mode="normal" in2="BackgroundImageFix" result="effect1_dropShadow_621_334"/>
<feBlend mode="normal" in="SourceGraphic" in2="effect1_dropShadow_621_334" result="shape"/>
</filter>
<filter id="filter4_d_621_334" x="240.143" y="126.261" width="150.429" height="122.887" filterUnits="userSpaceOnUse" color-interpolation-filters="sRGB">
<feFlood flood-opacity="0" result="BackgroundImageFix"/>
<feColorMatrix in="SourceAlpha" type="matrix" values="0 0 0 0 0 0 0 0 0 0 0 0 0 0 0 0 0 0 127 0" result="hardAlpha"/>
<feOffset dy="16"/>
<feGaussianBlur stdDeviation="8"/>
<feComposite in2="hardAlpha" operator="out"/>
<feColorMatrix type="matrix" values="0 0 0 0 0.558333 0 0 0 0 0.558333 0 0 0 0 0.558333 0 0 0 0.25 0"/>
<feBlend mode="normal" in2="BackgroundImageFix" result="effect1_dropShadow_621_334"/>
<feBlend mode="normal" in="SourceGraphic" in2="effect1_dropShadow_621_334" result="shape"/>
</filter>
<linearGradient id="paint0_linear_621_334" x1="125.183" y1="20.7132" x2="123.826" y2="184.32" gradientUnits="userSpaceOnUse">
<stop stop-color="#E7E7E7"/>
<stop offset="1" stop-color="#D9D9D9" stop-opacity="0"/>
</linearGradient>
<linearGradient id="paint1_linear_621_334" x1="281.041" y1="3.9707" x2="281.041" y2="184.32" gradientUnits="userSpaceOnUse">
<stop stop-color="#E7E7E7"/>
<stop offset="1" stop-color="#D9D9D9" stop-opacity="0"/>
</linearGradient>
<linearGradient id="paint2_linear_621_334" x1="284.677" y1="-19.6636" x2="280.442" y2="126.136" gradientUnits="userSpaceOnUse">
<stop stop-color="#9891FF"/>
<stop offset="1" stop-color="#5E53FA" stop-opacity="0"/>
</linearGradient>
<linearGradient id="paint3_linear_621_334" x1="281.041" y1="3.9707" x2="281.041" y2="184.32" gradientUnits="userSpaceOnUse">
<stop stop-color="#E7E7E7"/>
<stop offset="1" stop-color="#D9D9D9" stop-opacity="0"/>
</linearGradient>
<linearGradient id="paint4_linear_621_334" x1="285.704" y1="-68.6855" x2="290.695" y2="249.68" gradientUnits="userSpaceOnUse">
<stop stop-color="white"/>
<stop offset="1" stop-color="white"/>
</linearGradient>
</defs>
</svg>
