<svg width="155" height="179" viewBox="0 0 155 179" fill="none" xmlns="http://www.w3.org/2000/svg">
<g filter="url(#filter0_d_0_5537)">
<path d="M22.0466 146.118H133.201C136.257 146.118 138.732 143.64 138.732 140.579V6.32885C138.732 3.26763 136.257 0.789062 133.201 0.789062H22.0466C18.9902 0.789062 16.5156 3.26763 16.5156 6.32885V140.579C16.5156 143.64 18.9902 146.118 22.0466 146.118Z" fill="white"/>
</g>
<path d="M121.133 15.9668H113.696L121.497 48.2957L84.6177 56.1716L74.9249 15.9668H67.4734L77.5446 57.6843L38.4971 65.9728L26.4321 15.9668H19.0388L31.555 67.523L16.4482 70.7734V77.2242L33.1704 73.6362L40.7238 105.24L16.5065 110.441V116.891L42.2082 111.366L50.3729 145.982H57.8098L49.0776 109.878L59.4398 107.665C59.7851 107.585 60.1464 107.568 60.5 107.615C60.8535 107.662 61.1915 107.773 61.4919 107.94C61.7944 108.1 62.056 108.311 62.2611 108.561C62.4662 108.81 62.6105 109.092 62.6853 109.391L71.9996 145.982H79.4366L69.802 108.065C69.5182 106.948 68.9764 105.892 68.2088 104.958C67.4413 104.023 66.4634 103.231 65.3331 102.627C64.2028 102.024 62.9431 101.621 61.6283 101.442C60.3136 101.264 58.9706 101.314 57.6788 101.59L47.5931 103.752L39.967 72.136L79.0145 63.8101L82.4346 77.9867C82.8815 79.8615 84.0106 81.5657 85.6586 82.8532C87.3067 84.1408 89.3885 84.9452 91.6034 85.1501L131.291 88.9006L138.685 119.529V83.2749L92.4039 78.8744C91.7182 78.8076 91.0746 78.5565 90.565 78.1569C90.0553 77.7573 89.7057 77.2295 89.5659 76.6491L86.073 62.2224L138.685 50.971V44.5202L128.497 46.683L121.133 15.9668Z" fill="#FCD369"/>
<path d="M16.5156 15.9379H138.741V6.32885C138.741 3.26763 136.267 0.789062 133.21 0.789062H22.0466C18.9902 0.789062 16.5156 3.26763 16.5156 6.32885V15.9379Z" fill="#0B1433"/>
<path d="M36.876 9.06382C36.876 10.3697 37.9291 11.4245 39.2329 11.4245C40.5367 11.4245 41.5898 10.3697 41.5898 9.06382C41.5898 7.75791 40.5367 6.70312 39.2329 6.70312C37.9291 6.70312 36.876 7.76418 36.876 9.06382Z" fill="white"/>
<path d="M31.1621 9.06382C31.1621 10.3697 32.2152 11.4245 33.519 11.4245C34.8229 11.4245 35.876 10.3697 35.876 9.06382C35.876 7.75791 34.8229 6.70312 33.519 6.70312C32.2152 6.70312 31.1621 7.76418 31.1621 9.06382Z" fill="#E8F4FF"/>
<path d="M25.4482 9.06382C25.4482 10.3697 26.5013 11.4245 27.8052 11.4245C29.109 11.4245 30.1621 10.3697 30.1621 9.06382C30.1621 7.75791 29.109 6.70312 27.8052 6.70312C26.5013 6.70312 25.4482 7.76418 25.4482 9.06382Z" fill="white"/>
<defs>
<filter id="filter0_d_0_5537" x="0.515625" y="0.789062" width="154.217" height="177.329" filterUnits="userSpaceOnUse" color-interpolation-filters="sRGB">
<feFlood flood-opacity="0" result="BackgroundImageFix"/>
<feColorMatrix in="SourceAlpha" type="matrix" values="0 0 0 0 0 0 0 0 0 0 0 0 0 0 0 0 0 0 127 0" result="hardAlpha"/>
<feOffset dy="16"/>
<feGaussianBlur stdDeviation="8"/>
<feComposite in2="hardAlpha" operator="out"/>
<feColorMatrix type="matrix" values="0 0 0 0 0.558333 0 0 0 0 0.558333 0 0 0 0 0.558333 0 0 0 0.25 0"/>
<feBlend mode="normal" in2="BackgroundImageFix" result="effect1_dropShadow_0_5537"/>
<feBlend mode="normal" in="SourceGraphic" in2="effect1_dropShadow_0_5537" result="shape"/>
</filter>
</defs>
</svg>
