<svg width="299" height="296" viewBox="0 0 299 296" fill="none" xmlns="http://www.w3.org/2000/svg">
<path d="M71.8723 0.746094H35.3754C16.2955 0.746094 0.828125 16.2134 0.828125 35.2934L0.870531 223.157C20.1882 223.157 16.2955 223.271 35.3754 223.271H263.741C282.821 223.271 281.295 223.155 298.288 223.155V35.2934C298.288 16.2134 282.821 0.746094 263.741 0.746094H226.156L225.963 17.2525C225.436 23.1945 220.458 27.7498 214.493 27.7498H83.3029C77.2889 27.7498 72.2876 23.1221 71.8218 17.126L71.8723 0.746094Z" fill="url(#paint0_linear_25_6768)"/>
<g filter="url(#filter0_d_25_6768)">
<path d="M247.934 183.846C251.8 183.846 254.957 180.708 254.706 176.85C253.014 150.878 241.946 126.305 223.43 107.789C203.258 87.6175 175.9 76.2852 147.373 76.2852C118.846 76.2852 91.487 87.6174 71.3154 107.789C52.7991 126.305 41.7309 150.877 40.0391 176.85C39.7878 180.708 42.9455 183.846 46.8115 183.846L65.8581 183.846C69.724 183.846 72.8239 180.705 73.1864 176.856C74.8063 159.658 82.366 143.473 94.6829 131.156C108.657 117.182 127.61 109.332 147.373 109.332C167.135 109.332 186.088 117.182 200.062 131.156C212.379 143.473 219.939 159.658 221.559 176.856C221.921 180.705 225.021 183.846 228.887 183.846H247.934Z" fill="white"/>
</g>
<path d="M247.934 183.846C251.8 183.846 254.957 180.709 254.706 176.851C253.417 157.065 246.678 137.971 235.172 121.712C223.666 105.454 207.9 92.7476 189.67 84.9508C186.116 83.4306 182.106 85.3649 180.821 89.0108L174.485 106.973C173.2 110.619 175.131 114.587 178.64 116.209C190.437 121.663 200.642 130.127 208.197 140.802C215.751 151.477 220.339 163.917 221.559 176.856C221.921 180.705 225.021 183.846 228.887 183.846L247.934 183.846Z" fill="#FFCE50"/>
<path d="M247.934 183.846C251.8 183.846 254.957 180.709 254.706 176.851C253.486 158.126 247.386 140.041 237.015 124.403C234.879 121.181 230.466 120.597 227.39 122.938L212.234 134.474C209.158 136.816 208.594 141.193 210.637 144.475C216.736 154.276 220.476 165.363 221.559 176.856C221.921 180.705 225.021 183.846 228.887 183.846L247.934 183.846Z" fill="#5E53FA"/>
<path d="M213.962 183.403C213.962 174.639 212.236 165.961 208.882 157.865C205.528 149.768 200.613 142.412 194.416 136.215C188.219 130.018 180.863 125.102 172.766 121.749C164.669 118.395 155.992 116.669 147.228 116.669C138.464 116.669 129.787 118.395 121.69 121.749C113.594 125.102 106.237 130.018 100.04 136.215C93.8432 142.412 88.9276 149.768 85.574 157.865C82.2203 165.961 80.4941 174.639 80.4941 183.403L81.325 183.403C81.325 174.748 83.0296 166.179 86.3416 158.183C89.6535 150.187 94.5079 142.922 100.628 136.802C106.747 130.683 114.012 125.828 122.008 122.516C130.004 119.204 138.574 117.5 147.228 117.5C155.883 117.5 164.452 119.204 172.448 122.516C180.444 125.828 187.709 130.683 193.828 136.802C199.948 142.922 204.803 150.187 208.114 158.183C211.426 166.179 213.131 174.748 213.131 183.403H213.962Z" fill="url(#paint1_linear_25_6768)"/>
<path d="M264.019 180.964C264.019 165.876 261.047 150.936 255.273 136.996C249.499 123.057 241.036 110.391 230.367 99.722C219.698 89.0531 207.032 80.5901 193.093 74.8161C179.153 69.0421 164.213 66.0703 149.125 66.0703C134.036 66.0703 119.096 69.0421 105.156 74.8161C91.2169 80.5901 78.551 89.0531 67.8821 99.722C57.2133 110.391 48.7502 123.057 42.9763 136.996C37.2023 150.936 34.2305 165.876 34.2305 180.964L35.3266 180.964C35.3266 166.02 38.27 151.222 43.9889 137.416C49.7078 123.609 58.0901 111.064 68.6572 100.497C79.2243 89.9299 91.7693 81.5477 105.576 75.8288C119.383 70.1099 134.18 67.1664 149.125 67.1664C164.069 67.1664 178.866 70.1099 192.673 75.8288C206.48 81.5476 219.025 89.9299 229.592 100.497C240.159 111.064 248.541 123.609 254.26 137.416C259.979 151.222 262.922 166.02 262.922 180.964H264.019Z" fill="white"/>
<path d="M177.331 136.821C173.449 144.876 169.664 152.932 165.587 160.988C164.034 164.094 163.161 167.005 163.549 170.596C164.228 177.39 159.279 183.214 152.97 183.99C145.496 184.864 139.382 180.496 138.12 173.314C137.052 166.811 141.323 160.114 148.117 158.95C151.708 158.367 154.232 156.62 156.755 154.291C163.258 148.273 169.761 142.256 176.263 136.238C176.652 136.335 176.943 136.627 177.331 136.821Z" fill="#0B1433"/>
<defs>
<filter id="filter0_d_25_6768" x="2.02539" y="57.2852" width="290.695" height="183.562" filterUnits="userSpaceOnUse" color-interpolation-filters="sRGB">
<feFlood flood-opacity="0" result="BackgroundImageFix"/>
<feColorMatrix in="SourceAlpha" type="matrix" values="0 0 0 0 0 0 0 0 0 0 0 0 0 0 0 0 0 0 127 0" result="hardAlpha"/>
<feOffset dy="19"/>
<feGaussianBlur stdDeviation="19"/>
<feComposite in2="hardAlpha" operator="out"/>
<feColorMatrix type="matrix" values="0 0 0 0 0.804167 0 0 0 0 0.786482 0 0 0 0 0.740503 0 0 0 1 0"/>
<feBlend mode="normal" in2="BackgroundImageFix" result="effect1_dropShadow_25_6768"/>
<feBlend mode="normal" in="SourceGraphic" in2="effect1_dropShadow_25_6768" result="shape"/>
</filter>
<linearGradient id="paint0_linear_25_6768" x1="149.558" y1="32.49" x2="149.999" y2="210" gradientUnits="userSpaceOnUse">
<stop stop-color="#FFCE50"/>
<stop offset="1" stop-color="#D9D9D9" stop-opacity="0"/>
</linearGradient>
<linearGradient id="paint1_linear_25_6768" x1="147.228" y1="116.669" x2="147.228" y2="250.137" gradientUnits="userSpaceOnUse">
<stop stop-color="#C19F48"/>
<stop offset="1" stop-color="#BFB8A8" stop-opacity="0"/>
</linearGradient>
</defs>
</svg>
