<svg width="937" height="413" viewBox="0 0 937 413" fill="none" xmlns="http://www.w3.org/2000/svg">
<rect width="937" height="413" fill="url(#paint0_linear_25_5593)"/>
<mask id="mask0_25_5593" style="mask-type:alpha" maskUnits="userSpaceOnUse" x="0" y="0" width="937" height="413">
<rect width="937" height="413" rx="20" fill="url(#paint1_linear_25_5593)"/>
</mask>
<g mask="url(#mask0_25_5593)">
<g opacity="0.21">
<mask id="mask1_25_5593" style="mask-type:luminance" maskUnits="userSpaceOnUse" x="223" y="-23" width="914" height="452">
<path d="M222.999 380.663L222.999 25.3063C222.999 -0.928101 244.464 -22.3926 270.698 -22.3926L1088.73 -22.3926C1114.97 -22.3926 1136.43 -0.928061 1136.43 25.3063L1136.43 380.663C1136.43 406.898 1114.97 428.362 1088.73 428.362L270.698 428.362C244.225 428.362 222.999 406.898 222.999 380.663Z" fill="white"/>
</mask>
<g mask="url(#mask1_25_5593)">
<path d="M523.976 2.88774C523.499 0.264296 524.93 -2.35915 527.553 -2.83614L558.558 -10.7065C561.181 -11.422 563.804 -9.75248 564.52 -7.36754C564.997 -5.45958 564.52 -3.55163 563.089 -2.35915L605.541 -16.1918L604.11 -18.3383C603.872 -18.8153 603.633 -19.2923 603.395 -19.7693L603.395 -20.0078L603.395 -20.4847L600.294 -51.7275L579.545 -51.489L581.215 -36.2254C581.215 -35.5099 581.215 -34.7944 580.976 -34.0789L577.876 -24.5391C576.922 -21.9157 574.298 -20.4847 571.675 -21.4387C570.005 -21.9157 568.813 -23.3467 568.336 -24.7777C568.097 -25.7316 568.097 -26.6856 568.336 -27.6396L571.198 -35.9869L569.767 -49.8196L544.486 -43.6187L549.256 -29.0705C549.972 -26.2086 548.541 -23.5852 546.156 -22.8697C544.963 -22.3927 543.532 -22.6312 542.34 -23.1082C541.147 -23.5852 540.193 -24.7777 539.955 -25.9701L534.947 -41.2338L529.938 -40.0413L536.378 -17.8613C537.093 -14.9994 535.662 -12.3759 533.039 -11.6605C531.846 -11.1835 530.415 -11.4219 529.223 -12.1374C528.03 -12.8529 527.315 -13.8069 526.838 -14.9994L519.206 -40.7568C517.059 -40.9953 514.675 -41.4723 512.051 -41.9493L510.859 -33.8404C510.382 -31.217 507.997 -29.3091 505.135 -29.5476C503.227 -29.786 501.557 -31.217 501.08 -33.125C500.842 -33.8405 500.842 -34.5559 500.842 -35.0329L502.034 -43.3802C497.026 -44.3342 492.972 -45.2882 489.633 -46.0037L480.331 -20.0078L464.591 -2.12067L509.905 -7.84452C513.244 -8.32151 516.344 -6.17506 517.059 -3.07463C517.059 -2.83613 517.298 -2.35916 517.298 -2.12066C517.536 -0.451202 517.059 1.45675 515.867 2.64923C514.675 4.0802 513.244 5.03419 511.574 5.27268L465.783 10.9965L467.691 17.1974L470.076 25.5447L527.792 23.1598L523.976 2.88774Z" fill="#F1F3F4"/>
<path d="M236.59 55.1184L273.318 47.2481L258.055 -12.8525L221.327 -0.450811L236.59 55.1184Z" fill="#F1F3F4"/>
<path d="M246.129 89.9368L273.079 78.4891L280.949 76.3426L276.656 60.125L240.167 67.9953L246.129 89.9368Z" fill="#F1F3F4"/>
<path d="M455.53 20.2975L448.375 -3.79043L469.124 -27.4014L478.426 -53.1588C478.187 -53.8743 478.187 -54.8283 478.426 -55.5437L482.957 -71.0459L433.589 -70.5689L416.417 -64.1296L274.036 -30.9788L300.27 71.3354L457.677 27.4524L455.53 20.2975Z" fill="#9CC0F9"/>
<path d="M212.502 104.01L233.728 95.1853L227.05 70.8589L209.64 74.6748C207.97 75.1518 206.062 74.6748 204.631 73.7208L185.79 61.5576C184.359 60.6036 183.405 59.4112 182.928 57.7417C182.451 55.8337 182.69 53.9258 183.644 52.4948C185.552 49.3944 189.845 48.4404 192.707 50.5869L209.163 61.0806L223.234 57.9802L206.539 -2.83595C205.585 -6.17487 207.493 -9.7523 210.832 -10.9448L254.238 -25.7314L250.899 -38.8486L215.125 -29.0704L157.648 77.0597L212.502 104.01Z" fill="#F1F3F4"/>
<path d="M783.698 377.801C782.744 378.04 781.551 378.04 780.359 377.563L757.94 370.408L742.438 378.517C741.246 378.994 740.053 379.232 738.861 379.232L699.032 376.37C696.886 376.132 694.978 375.178 694.024 373.27L672.082 339.165C671.844 338.688 671.367 337.973 671.367 337.496L645.371 250.684C644.894 248.776 645.132 246.868 646.086 245.198L651.095 237.328L619.613 254.977C619.136 255.215 618.421 255.454 617.944 255.692L609.835 257.6L620.806 262.132C621.998 262.609 623.191 263.563 623.906 264.755L656.58 317.701C656.819 318.178 657.057 318.893 657.296 319.37C657.296 319.609 657.534 319.847 657.534 320.324L661.588 352.282C661.588 352.759 661.588 352.998 661.588 353.475L660.157 390.442L660.396 415.722C732.898 405.467 816.371 393.542 837.836 389.965C837.359 387.341 836.882 384.479 836.167 381.856L832.589 368.5L783.698 377.801Z" fill="#F1F3F4"/>
<path d="M231.104 175.794L300.506 152.899L284.288 89.2207L277.372 91.1287L207.493 120.464L161.702 155.761L138.091 165.777L146.915 198.928L231.104 175.794Z" fill="#9CC0F9"/>
<path d="M757.225 422.161L764.141 453.643L820.426 444.818C829.489 435.278 835.689 423.115 837.836 409.998C825.911 412.144 803.016 415.722 757.225 422.161Z" fill="#FEF9E8"/>
<path d="M490.111 90.8922L514.676 85.8838L507.521 36.7539L474.37 37.9464L490.111 90.8922Z" fill="#F1F3F4"/>
<path d="M627.484 420.492L647.518 417.63L647.041 390.442L647.041 389.965L594.095 397.358C593.856 397.358 593.379 397.358 593.141 397.358L538.049 396.643L500.128 410.237L466.262 446.965L458.63 458.174L459.345 460.798L627.484 420.492Z" fill="#F1F3F4"/>
<path d="M439.55 464.611L436.45 453.878L442.65 350.849L413.077 345.363L408.546 402.841L413.554 467.473L439.55 464.611Z" fill="#F1F3F4"/>
<path d="M400.199 467.237L395.429 403.559C395.429 403.32 395.429 402.843 395.429 402.605L399.484 350.852L385.89 360.153C385.413 360.391 385.174 360.63 384.697 360.868L352.262 374.224L289.061 413.099C285.96 415.007 281.906 414.053 279.998 410.952L271.889 397.596L228.245 400.22L204.395 407.613L214.65 445.295L400.199 467.237Z" fill="#FEF9E8"/>
<path d="M224.665 387.34C225.142 387.102 225.619 387.102 226.335 387.102L274.749 384.24C277.134 384.001 279.519 385.194 280.711 387.34L287.628 398.311L345.82 362.537C346.059 362.298 346.536 362.298 346.774 362.06L378.971 348.704L403.775 331.771L404.49 331.533C404.729 331.533 404.967 331.294 405.444 331.056C405.921 330.817 406.398 330.817 406.875 330.817C406.875 330.817 407.352 330.817 407.829 330.817L408.306 330.817L408.545 330.817L443.842 337.495L443.842 337.256L435.733 311.499L308.615 164.109L235.159 188.674L150.732 211.808L200.577 394.734L224.665 387.34Z" fill="#F1F3F4"/>
<path d="M535.9 35.562L520.875 36.039L527.791 83.2609L546.632 79.445L739.574 26.7377L724.072 -30.501L535.9 35.562Z" fill="#E8EAED"/>
<path d="M534.711 5.50936L534.949 6.94032L554.506 0.500977L534.711 5.50936Z" fill="#F1F3F4"/>
<path d="M636.784 -116.597L636.546 -85.3539L694.5 -78.4375C696.408 -78.199 698.077 -76.7681 698.793 -74.8601C699.031 -74.3831 699.031 -73.9061 699.031 -73.4291L697.839 -43.8558C697.839 -41.9479 696.408 -40.0399 694.738 -39.3244L633.922 -16.4289L621.282 -10.7051L537.332 16.7218L538.286 20.7762L720.734 -43.3788L706.663 -94.6552C705.471 -99.1866 703.563 -103.718 701.416 -107.772L636.784 -116.597Z" fill="#F1F3F4"/>
<path d="M678.521 222.065L675.182 223.973C674.943 224.689 674.705 225.404 674.228 226.12L658.964 249.969L683.767 332.965L703.324 363.493L737.906 366.116L749.354 360.154L734.567 313.886L704.517 215.626L678.521 222.065Z" fill="#F1F3F4"/>
<path d="M829.488 355.859L822.095 328.671L783.22 337.734L758.655 344.65L762.71 357.767L782.982 364.445L829.488 355.859Z" fill="#F1F3F4"/>
<path d="M779.882 324.856L783.221 324.14L760.087 241.86C758.894 242.098 757.463 241.86 756.271 241.383C754.601 240.667 753.17 238.998 752.693 237.328L743.154 205.37L717.635 212.048L747.447 309.831L754.601 332.249L779.882 324.856Z" fill="#F1F3F4"/>
<path d="M319.108 145.269L349.397 132.152L477.23 93.9928L461.013 39.8545L303.368 83.976L319.108 145.269Z" fill="#FCE8E6"/>
<path d="M592.903 384.238L596.957 383.761L569.53 286.933L568.815 287.648C568.576 287.887 568.338 288.125 567.861 288.602L509.906 332.008C509.191 332.485 508.476 332.962 507.76 333.201L463.162 345.364L457.438 437.423L491.542 400.456C492.258 399.741 493.212 399.025 494.166 398.787L534.948 384.238C535.664 384 536.379 383.761 537.333 383.761L592.903 384.238Z" fill="#FCE8E6"/>
<path d="M647.753 376.369L648.469 353.712L644.653 323.423L613.649 273.578L590.276 263.8L580.021 275.248L610.31 381.616L647.753 376.369Z" fill="#F1F3F4"/>
<path d="M522.309 172.696L488.681 106.395L481.049 107.349L481.049 106.633L353.693 144.792L327.697 156.001L430.488 275.249L435.02 223.495L459.823 200.838L515.392 190.345L522.309 172.696Z" fill="#F1F3F4"/>
<path d="M743.153 39.6162L662.78 61.5577L667.789 96.3779L672.082 134.776L643.462 142.646L639.885 129.767L657.533 124.997L654.433 98.0474L649.663 65.1351L549.495 92.562L501.319 102.34L536.855 172.219L524.93 202.27L466.022 213.717L447.658 230.412L442.411 289.797L453.144 302.199L462.445 332.011L502.75 321.04L559.274 278.826L583.6 251.638C583.6 251.638 584.077 251.399 584.077 251.161C584.554 250.922 585.031 250.445 585.508 250.207C585.747 250.207 585.985 249.968 586.223 249.968L586.939 249.73L614.127 243.529L672.797 210.617C673.274 210.378 673.751 210.14 674.466 209.901L781.789 181.759L743.153 39.6162Z" fill="#F1F3F4"/>
<path d="M756.032 201.793L763.425 226.596C764.856 226.358 766.049 226.596 767.48 227.073C769.149 227.789 770.58 229.458 771.057 231.366L796.337 321.279L818.756 316.032L785.605 194.399L756.032 201.793Z" fill="#F1F3F4"/>
<path d="M751.74 54.1631L682.338 76.8201L661.589 82.5439L630.824 96.1381L603.635 103.531L557.606 110.925L519.208 121.419L492.02 128.812L427.865 151.469L363.71 174.126L324.119 198.691C324.119 198.691 291.684 217.77 286.676 219.201C281.667 220.632 248.278 229.695 248.278 229.695L213.935 254.499L188.655 275.248L175.06 301.243L155.742 318.654" stroke="#9CC0F9" stroke-width="6.72678" stroke-miterlimit="10"/>
<path d="M817.086 386.863L732.659 394.018L699.27 397.357C699.27 397.357 676.613 402.365 667.55 402.604C658.487 402.842 628.675 402.842 622.236 404.75C615.796 406.42 587.654 411.905 575.729 415.244C564.043 418.345 545.918 423.353 545.918 423.353L506.089 436.47L482.955 443.864L458.39 458.412L443.603 463.897L391.612 487.27L340.335 504.68L308.615 509.926L281.666 516.127L248.276 523.998L209.402 524.236" stroke="#9CC0F9" stroke-width="2.24215" stroke-miterlimit="10"/>
<path d="M305.514 209.663L293.35 228.504L288.104 247.107L286.911 264.517L281.187 290.99L277.848 313.408L269.978 328.433L252.806 340.835L231.342 347.513L216.078 354.429L208.208 366.831L195.568 370.17L181.258 374.94" stroke="#9CC0F9" stroke-width="2.24215" stroke-miterlimit="10"/>
<path d="M762.951 165.781C762.951 165.781 752.696 165.781 747.449 165.542C742.202 165.304 726.223 156.718 726.223 156.718C726.223 156.718 728.369 151.948 721.692 149.325C715.014 146.94 704.997 144.555 704.043 147.178C703.089 150.04 700.943 157.433 700.943 157.433L701.658 163.157L695.219 168.404C695.219 168.404 693.549 171.505 692.118 169.358C690.687 167.212 693.549 168.166 689.256 165.065C684.963 161.965 681.148 157.91 681.148 157.91L675.662 162.919L673.039 168.881C673.039 168.881 679.478 173.89 671.608 176.036C663.499 178.182 659.445 178.421 658.491 171.982C657.537 165.304 665.645 163.873 656.583 162.203C647.52 160.295 639.888 160.772 639.888 160.772L635.595 170.551L627.248 171.028L621.762 163.873C621.762 163.873 620.331 158.387 618.9 156.002C617.469 153.856 613.654 146.224 613.654 146.224L601.252 141.931C601.252 141.931 590.758 134.538 586.704 135.73C582.649 136.923 570.486 133.345 567.863 133.107C565.239 132.868 556.415 129.291 556.415 129.291L539.005 131.437L525.411 125.714L516.348 123.806L484.628 133.345L476.281 140.739C476.281 140.739 466.979 147.655 462.686 150.517C458.394 153.379 445.515 160.295 445.515 160.295C445.515 160.295 441.222 160.534 431.205 164.111C420.95 167.689 407.356 171.505 407.356 171.505L382.791 169.597" stroke="#9CC0F9" stroke-width="2.24215" stroke-miterlimit="10"/>
<path d="M755.794 496.095C757.225 495.141 758.418 493.71 758.656 492.04L764.619 466.998L828.297 457.22C831.874 456.743 834.498 453.166 833.782 449.588C833.782 449.35 833.782 449.111 833.544 448.873C832.59 445.534 829.489 443.626 826.15 444.103L764.142 453.643L757.225 422.162C848.092 409.044 849.761 408.09 851.669 406.659L854.531 404.751L845.23 390.919L844.037 391.873L843.322 389.011C837.121 390.68 741.962 404.274 661.112 415.722L660.874 390.442L662.304 353.475C662.304 352.998 662.304 352.76 662.304 352.283L658.25 320.324C658.25 320.086 658.25 319.609 658.012 319.37C657.773 318.655 657.535 318.178 657.296 317.701L624.622 264.755C623.907 263.563 622.714 262.609 621.522 262.132L610.551 257.6L618.66 255.692C619.375 255.454 619.852 255.215 620.329 254.977L651.811 237.328L646.802 245.198C645.848 246.868 645.61 248.776 646.087 250.684L672.083 337.496C672.321 337.973 672.56 338.688 672.798 339.165L694.74 373.27C695.932 374.94 697.84 376.132 699.748 376.371L739.577 379.232C740.769 379.232 741.962 378.994 743.154 378.517L758.656 370.408L781.075 377.563C782.029 377.801 783.221 378.04 784.414 377.802L862.878 363.253C864.548 363.015 866.217 362.061 867.171 360.391C868.125 358.96 868.602 357.052 868.125 355.383L867.887 354.906C866.933 351.567 863.594 349.421 860.255 350.136L783.46 364.446L763.188 358.006L758.895 344.651L783.698 337.973L830.443 327.002C832.113 326.525 833.544 325.571 834.498 324.14C835.452 322.709 835.69 320.801 835.213 318.893C834.259 315.316 830.682 313.408 827.343 314.123L796.338 321.517L770.82 231.127C770.343 229.219 768.912 227.788 767.242 226.834C766.05 226.357 764.619 226.119 763.188 226.357L755.794 201.554L785.606 193.684C787.276 193.207 788.707 192.253 789.661 190.583C790.615 189.152 790.853 187.244 790.376 185.575C789.422 181.997 785.845 180.089 782.267 180.805L674.468 209.186C673.991 209.424 673.275 209.663 672.798 209.901L614.129 242.814L586.94 249.014L586.225 249.253C585.986 249.253 585.748 249.491 585.509 249.491C585.032 249.73 584.555 249.968 584.078 250.445L583.601 250.922L559.275 278.111L502.752 320.324L462.446 331.295L453.145 301.483L442.412 289.082L447.659 229.696L466.023 213.002L524.932 201.554L536.856 171.504L501.321 101.625L549.497 91.8465L649.664 64.4196L654.434 97.3318L657.535 124.282L639.886 129.052L643.463 141.93L672.083 134.06L667.79 95.6624L662.781 60.8422L751.024 36.7542L747.447 23.8755L546.396 78.7293L527.555 82.5452L520.877 35.3232L535.902 34.6078L731.229 -33.8402L726.937 -46.2419L538.049 20.0596L537.095 16.0052L621.045 -10.7062L633.685 -16.4301L694.501 -39.3256C696.409 -40.0411 697.602 -41.7105 697.602 -43.857L698.794 -73.4303C698.794 -73.9073 698.794 -74.3843 698.556 -74.8613C698.079 -76.7692 696.409 -78.2002 694.263 -78.4387L636.309 -85.355L636.547 -116.598L716.681 -105.389C719.305 -104.912 721.928 -106.82 722.405 -109.681C722.405 -110.397 722.405 -111.112 722.167 -111.589C721.69 -113.497 720.02 -114.928 718.112 -115.167L631.777 -127.33L519.923 -122.56C518.492 -122.56 517.3 -121.845 516.584 -120.891C515.63 -119.937 515.153 -118.744 515.392 -117.313C515.392 -116.836 515.392 -116.598 515.63 -116.121C516.346 -113.974 518.254 -112.305 520.639 -112.543L572.631 -114.69L572.154 -105.15L515.869 -105.15C513.484 -105.15 511.337 -103.242 510.86 -100.857L503.944 -53.3968C496.074 -54.8277 491.781 -56.0202 489.157 -56.7357L493.212 -71.0454L494.643 -71.0454L494.643 -75.5768L505.614 -113.497C505.852 -114.451 505.852 -115.405 505.614 -116.121C505.137 -117.79 503.944 -118.983 502.275 -119.698C499.651 -120.414 496.789 -118.983 496.074 -116.359L486.772 -84.4011L430.965 -83.6856L412.362 -76.7692L270.458 -43.857L265.688 -62.2211L246.608 -57.4512L254.717 -25.7314L211.311 -10.9447C207.972 -9.75226 206.064 -6.17483 207.018 -2.83591L223.713 57.9802L209.642 61.0806L193.185 50.5869C190.085 48.6789 186.031 49.3944 184.123 52.4949C183.169 54.1643 182.692 56.0723 183.407 57.7417C183.884 59.4112 184.838 60.6036 186.269 61.5576L205.11 73.7209C206.541 74.6748 208.449 74.9133 210.119 74.6748L227.529 70.8589L234.207 95.1854L212.981 104.01L158.365 77.0598L217.274 -31.6938C217.989 -33.1247 218.228 -35.0327 217.751 -36.7022C217.274 -38.3716 216.081 -40.0411 214.412 -40.7566C212.742 -41.7105 211.073 -41.7105 209.403 -41.2335C207.734 -40.7565 206.303 -39.5641 205.349 -38.1331L143.102 76.8213C142.386 78.2523 142.148 80.1602 142.625 82.0682C143.102 83.7376 144.294 85.1686 145.964 86.1226L197.717 111.641L155.503 144.315L115.198 161.248L120.445 173.412L161.943 155.763L207.734 120.227L277.374 91.131L284.29 89.223L300.508 152.663L231.345 175.797L139.763 200.838L143.34 213.717L235.399 188.675L308.855 164.11L435.973 311.5L444.082 337.257L444.082 337.496L408.785 330.818L408.546 330.818L408.069 330.818C407.592 330.818 407.115 330.818 407.115 330.818C406.877 330.818 406.4 330.818 405.684 331.057C405.207 331.057 404.969 331.295 404.73 331.534L404.015 331.772L379.211 348.705L347.015 362.061C346.776 362.299 346.299 362.299 346.061 362.538L287.868 398.312L280.952 387.341C279.759 385.195 277.374 384.002 274.989 384.241L226.575 387.103C226.098 387.103 225.621 387.341 224.905 387.341L192.232 397.358C188.893 398.312 186.746 401.889 187.939 405.705C188.416 407.375 189.608 408.806 191.278 409.521C192.947 410.237 194.617 410.475 196.286 409.998L228.244 400.22L271.889 397.597L279.998 410.952C281.906 414.053 285.96 415.007 289.06 413.099L352.261 374.224L384.697 360.868C385.174 360.63 385.412 360.391 385.889 360.153L399.483 350.852L395.429 402.605C395.429 402.843 395.429 403.32 395.429 403.559L400.199 467.237L194.855 442.91L192.47 462.706L399.483 487.271L395.906 513.028C395.906 513.743 395.906 514.22 395.906 514.936L404.73 576.706C404.73 576.945 404.73 577.183 404.969 577.421C405.923 580.522 409.023 582.668 412.362 582.191C414.032 581.953 415.701 580.999 416.655 579.568C417.609 578.137 418.086 576.467 417.847 574.56L409.262 513.743L413.078 487.271L445.513 483.932L467.454 558.103L486.534 552.38L466.739 485.363L540.195 552.141L553.551 537.354L523.739 510.166L618.183 483.455L622.237 490.848C623.668 493.471 627.007 494.902 629.869 493.948L739.338 461.752L751.501 465.329L746.016 488.701C745.778 489.655 745.778 490.848 746.016 492.04C746.732 494.425 748.64 496.095 750.786 496.81C752.455 497.287 754.125 497.049 755.794 496.095ZM631.062 480.116L627.007 472.722C625.576 470.099 622.476 468.668 619.375 469.622L512.053 499.911L484.864 475.346L631.062 440.049C675.66 433.848 713.819 428.601 744.347 424.069L750.309 451.496L741.246 448.634C740.054 448.157 738.623 448.157 737.43 448.634L631.062 480.116ZM592.903 384.241L537.095 383.525C536.379 383.525 535.425 383.764 534.71 384.002L493.927 398.551C492.973 399.028 492.019 399.504 491.304 400.22L457.199 437.187L462.923 345.128L507.521 332.965C508.237 332.726 509.191 332.488 509.668 331.772L567.861 288.366C568.338 288.128 568.576 287.889 568.815 287.412L569.53 286.697L596.957 383.525L592.903 384.241ZM442.651 350.852L436.45 453.643L439.789 464.614L413.555 467.475L408.785 402.843L413.316 345.128L442.651 350.852ZM458.392 458.174L466.023 446.965L499.89 410.237L537.81 396.643L592.903 397.358C593.141 397.358 593.618 397.358 593.857 397.358L646.802 389.965L646.802 390.442L647.279 417.63L627.246 420.492L458.869 461.036L458.392 458.174ZM647.756 376.371L610.313 381.617L580.024 275.01L590.279 263.563L613.652 273.341L644.656 323.186L648.472 353.237L647.756 376.371ZM756.271 241.383C757.464 241.86 758.895 242.098 760.087 241.86L783.221 324.14L780.121 324.856L754.602 331.772L747.447 309.354L717.635 211.571L743.154 204.893L752.694 236.851C753.171 238.998 754.363 240.667 756.271 241.383ZM659.204 249.968L674.468 226.119C674.945 225.403 675.183 224.688 675.422 223.972L678.761 222.065L704.995 215.148L735.045 313.408L749.832 359.676L738.384 365.638L703.803 363.015L684.246 332.488L659.204 249.968ZM258.056 -12.8527L273.558 47.2479L236.83 55.1183L221.566 -0.450963L258.056 -12.8527ZM416.178 -64.3675L433.35 -70.8069L482.718 -71.2839L478.187 -55.7817C477.948 -55.0662 477.948 -54.1122 478.187 -53.3968L468.885 -27.6393L448.136 -4.02837L455.291 20.0596L457.199 26.9759L299.793 70.8589L273.558 -31.4553L416.178 -64.3675ZM687.823 -47.4344L629.869 -25.4929L617.467 -19.769L615.56 -19.0535L613.413 -22.3925L610.551 -51.4888L631.539 -51.7273C634.162 -51.7273 636.309 -53.8737 636.547 -56.7357L636.786 -75.0998L689.016 -68.8989L687.823 -47.4344ZM534.71 5.51142L554.266 0.503034L534.948 6.70389L534.71 5.51142ZM601.25 -95.6103L600.534 -61.7441L579.547 -61.5056L581.455 -95.6103L601.25 -95.6103ZM569.53 -60.3131L528.747 -50.2963L535.902 -95.6103L571.438 -95.6103L569.53 -60.3131ZM610.551 -61.7441L611.267 -100.38C611.267 -100.857 611.267 -101.334 611.028 -101.811C610.79 -102.527 610.313 -103.481 609.836 -103.958C608.882 -104.912 607.689 -105.389 606.258 -105.389L581.932 -105.389L582.409 -115.167L626.769 -117.075L626.292 -61.7441L610.551 -61.7441ZM518.969 -51.2503C517.3 -51.4888 515.63 -51.7273 513.961 -51.9658L520.162 -95.6103L525.886 -95.6103L518.969 -51.2503ZM468.17 16.4822L466.262 10.2813L512.053 4.55743C513.722 4.31894 515.392 3.36496 516.346 1.934C517.538 0.503029 518.015 -1.16643 517.777 -2.8359C517.777 -3.07439 517.777 -3.55138 517.538 -3.78988C516.584 -6.89031 513.484 -9.03676 510.383 -8.55977L465.069 -2.8359L480.81 -20.723L490.111 -46.7189C493.45 -45.7649 497.743 -45.0494 502.513 -44.0955L501.321 -35.7482C501.321 -35.0327 501.321 -34.3172 501.559 -33.8402C502.036 -31.9322 503.706 -30.5013 505.614 -30.2628C508.237 -29.7858 510.86 -31.6938 511.337 -34.5557L512.53 -42.6645C515.153 -42.1875 517.538 -41.949 519.685 -41.472L527.317 -15.7146C527.794 -14.5221 528.509 -13.3297 529.701 -12.8527C530.894 -12.1372 532.325 -12.1372 533.517 -12.3757C536.141 -13.0912 537.572 -15.7146 536.856 -18.5765L530.417 -40.7565L535.425 -41.949L540.434 -26.6854C540.911 -25.4929 541.626 -24.3004 542.819 -23.8234C544.011 -23.3464 545.442 -23.1079 546.635 -23.5849C549.02 -24.3004 550.451 -27.1624 549.735 -29.7858L544.965 -44.334L570.246 -50.5348L571.676 -36.7021L568.815 -28.3548C568.576 -27.4008 568.576 -26.4469 568.815 -25.4929C569.292 -23.8234 570.484 -22.6309 572.154 -22.154C574.777 -21.2 577.639 -22.6309 578.354 -25.2544L581.455 -34.7942C581.693 -35.5097 581.693 -36.2251 581.693 -36.9406L580.024 -52.2043L600.773 -52.4428L603.873 -21.2L603.873 -20.723L603.873 -20.4845C604.112 -20.0075 604.35 -19.5305 604.589 -19.0535L606.02 -16.9071L563.568 -3.07438C564.76 -4.26686 565.476 -6.17483 564.999 -8.08279C564.283 -10.7062 561.66 -12.1372 559.036 -11.4217L528.032 -3.55139C525.409 -2.8359 523.739 -0.212458 524.455 2.17249L528.509 21.9675L470.793 24.3525L468.17 16.4822ZM240.169 67.997L276.897 60.1267L281.19 76.5828L273.32 78.7293L246.37 89.9385L240.169 67.997ZM481.049 107.349L488.68 106.633L522.308 172.696L515.153 190.345L459.823 201.077L435.019 223.734L430.488 275.487L327.697 156.24L353.692 145.031L480.81 106.872L481.049 107.349ZM474.371 37.9467L507.76 36.5157L514.915 85.8841L490.35 90.8925L474.371 37.9467ZM303.37 83.9761L461.015 40.0931L477.233 94.2314L349.638 132.391L319.349 145.508L303.37 83.9761Z" fill="white"/>
<path d="M1037.93 341.312L1183.89 304.584L1171.25 339.166L1062.02 362.3C1058.92 363.015 1056.77 365.639 1056.77 368.501L1056.53 376.848L948.019 398.551C946.827 398.789 945.634 399.505 944.681 400.22L937.764 406.898L930.371 379.71C959.467 369.454 995.718 356.576 1037.93 341.312Z" fill="#F1F3F4"/>
<path d="M873.609 357.291C874.563 357.053 875.517 356.337 876.471 355.622L892.927 338.927L910.576 338.927C911.768 338.927 912.961 338.689 914.153 337.973L948.019 316.986C949.689 315.793 950.881 313.885 951.12 311.977L954.697 271.672C954.697 270.956 954.697 270.479 954.697 269.764L937.287 180.805C936.81 178.897 935.618 177.228 933.948 176.274L925.839 171.743L962.091 172.696C962.806 172.696 963.283 172.696 963.999 172.458L971.869 170.312L964.476 179.374C963.522 180.328 963.045 181.759 963.045 183.19L958.513 245.199C958.513 245.914 958.513 246.391 958.752 247.107C958.752 247.345 958.99 247.584 958.99 248.061L970.199 278.35C970.438 278.588 970.438 279.065 970.676 279.304L989.041 311.5L1000.49 333.919C931.563 358.722 852.145 386.865 831.396 393.543C830.442 390.919 829.726 388.296 829.011 385.672L826.149 372.317L873.609 357.291Z" fill="#F1F3F4"/>
<path d="M917.731 384.242L926.316 415.246L872.417 433.611C859.776 429.318 848.806 421.447 840.697 410.715C852.383 407.376 874.325 399.744 917.731 384.242Z" fill="#FEF9E8"/>
<path d="M934.187 -61.0284L947.542 -67.4678L963.521 -22.3923L945.157 -17.1454L738.84 29.9387L724.298 -24.4714L934.187 -61.0284Z" fill="#E8EAED"/>
<path d="M894.595 170.549L898.649 170.549C899.126 171.026 899.603 171.503 900.319 171.98L924.884 186.051L941.578 271.194L938.478 307.445L909.143 325.809L896.264 325.809L887.678 277.871L868.599 176.988L894.595 170.549Z" fill="#F1F3F4"/>
<path d="M823.065 358.961L817.103 331.534L855.501 321.518L880.543 316.032L883.166 329.865L868.141 345.129L823.065 358.961Z" fill="#F1F3F4"/>
<path d="M852.641 308.639L849.541 309.355L831.892 225.643C833.084 225.166 834.277 224.45 834.992 223.496C836.185 222.066 836.662 220.158 836.185 218.25L829.746 185.337L855.503 179.375L874.344 279.781L878.398 302.915L852.641 308.639Z" fill="#F1F3F4"/>
<path d="M742.77 39.7118L833.779 21.0143L845.465 54.165L859.297 90.1777L888.394 83.7383L885.532 70.8596L867.645 74.914L857.866 49.6336L846.657 18.3908L948.017 -4.02766L995.239 -17.8604L996.193 60.3659L1020.76 81.3534L1078 63.9433L1101.85 70.1442L1134.04 120.228L1130.23 136.207L1135.95 166.734L1094.93 175.797L1025.29 164.827L991.185 152.186C991.185 152.186 990.708 152.186 990.469 152.186C989.992 152.186 989.515 151.948 988.8 151.948C988.562 151.948 988.323 151.948 988.084 151.948L987.369 151.948L960.419 158.864L893.164 156.956C892.687 156.956 891.971 156.956 891.494 157.195L783.218 182.237L742.77 39.7118Z" fill="#F1F3F4"/>
<path d="M816.627 188.437L821.635 213.718C820.443 214.195 819.25 214.91 818.296 216.103C817.104 217.534 816.627 219.68 817.104 221.35L836.422 312.693L814.003 318.417L787.054 195.354L816.627 188.437Z" fill="#F1F3F4"/>
<path d="M749.829 54.8779L823.762 43.6687L844.749 39.1373L878.139 36.7523L905.566 30.79L949.687 16.0033L988.562 7.41749L1015.99 1.45513L1083.48 -8.32315L1150.98 -18.1014L1197.48 -14.7625C1197.48 -14.7625 1235.17 -12.8545 1240.17 -14.047C1244.94 -15.001 1279.05 -22.6328 1279.05 -22.6328L1321.02 -16.6705L1352.98 -10.2311L1377.07 6.46354L1402.11 12.9029" stroke="#9CC0F9" stroke-width="6.72678" stroke-miterlimit="10"/>
<path d="M817.324 386.626L926.316 347.752L957.559 335.112C957.559 335.112 979.978 329.149 988.086 325.095C996.195 321.04 1022.67 307.208 1029.11 305.777C1035.55 304.346 1063.21 295.999 1074.9 293.375C1086.82 290.752 1105.19 286.697 1105.19 286.697L1146.69 279.781L1170.77 275.726L1199.15 277.157L1214.66 275.011L1271.66 271.672L1325.32 263.325L1355.85 253.308L1382.56 246.392L1415.71 238.044L1450.29 220.157" stroke="#9CC0F9" stroke-width="2.24215" stroke-miterlimit="10"/>
<path d="M762.472 165.78C762.472 165.78 802.539 155.286 807.07 152.663C811.601 150.039 821.857 135.014 821.857 135.014C821.857 135.014 817.802 131.675 822.572 126.428C827.342 121.181 835.212 114.265 837.359 116.412C839.505 118.558 844.991 124.043 844.991 124.043L847.137 129.529L855.246 131.198C855.246 131.198 858.108 133.106 858.585 130.483C858.823 127.859 856.677 130.006 859.062 125.236C861.447 120.466 862.878 114.981 862.878 114.981L870.033 116.889L875.041 120.943C875.041 120.943 871.702 128.575 879.811 126.667C887.92 124.997 891.736 123.089 889.589 116.889C887.443 110.688 879.334 113.073 886.727 107.349C893.882 101.625 900.798 98.286 900.798 98.286L909.146 104.964L916.778 101.625L918.209 92.8006C918.209 92.8006 917.016 87.0767 917.255 84.4533C917.493 81.8298 917.255 73.4825 917.255 73.4825L926.079 63.9427C926.079 63.9427 932.041 52.495 936.096 51.541C940.15 50.587 949.213 41.7627 951.598 40.5703C953.744 39.1393 959.945 31.9844 959.945 31.9844L976.401 25.7836L985.703 14.3358L992.857 8.61197L1025.29 2.17262L1036.02 4.79606C1036.02 4.79606 1047.47 6.46552 1052.72 7.18101C1057.97 7.658 1072.51 7.8965 1072.51 7.8965C1072.51 7.8965 1076.33 6.22703 1087.06 4.79606C1097.8 3.3651 1111.63 0.264664 1111.63 0.264664L1132.62 -12.8525" stroke="#9CC0F9" stroke-width="2.24215" stroke-miterlimit="10"/>
<path d="M958.514 447.44C960.422 445.771 961.137 443.386 960.66 441.001C960.422 440.047 959.945 438.854 959.229 438.139L943.488 420.013L952.551 411.189L1064.41 388.771C1067.51 388.055 1069.65 385.67 1069.65 382.57L1069.89 374.222L1165.77 353.95L1151.93 391.871L1170.54 398.787L1204.64 305.536L1218.23 373.984L1237.79 370.168L1222.77 294.327L1253.05 281.925L1268.8 303.628L1289.31 361.582C1289.78 363.252 1291.21 364.683 1292.64 365.398C1294.31 366.114 1295.98 366.352 1297.65 365.637C1300.75 364.444 1302.66 361.105 1301.95 358.005C1301.95 357.766 1301.71 357.528 1301.71 357.289L1280.96 298.62C1280.72 297.904 1280.48 297.427 1280 296.95L1264.74 275.963L1436.7 157.431L1425.49 140.975L1254.96 257.837L1229.44 199.167C1229.2 198.929 1229.2 198.452 1228.97 198.213L1201.3 154.33L1217.76 156.238C1218.23 156.238 1218.71 156.238 1219.19 156.238L1254.25 152.899L1328.42 157.908C1332 158.146 1335.34 155.284 1335.57 151.707L1336.77 136.205L1376.59 118.318L1409.51 112.117C1411.18 111.878 1412.85 110.924 1413.8 109.255C1414.75 107.824 1415.23 105.916 1414.75 104.247C1414.04 100.431 1410.46 98.2842 1407.12 98.9997L1373.49 105.201C1373.02 105.201 1372.54 105.439 1372.06 105.677L1327.94 125.711C1325.8 126.665 1324.13 128.811 1324.13 131.196L1323.17 144.075L1255.2 139.544C1254.72 139.544 1254.49 139.544 1254.25 139.544L1219.43 142.883L1189.61 139.305L1188.9 139.305C1188.66 139.305 1188.18 139.305 1187.95 139.305C1187.47 139.544 1186.99 139.544 1186.75 139.782C1186.75 139.782 1186.28 139.782 1186.04 140.259L1185.56 140.498L1185.32 140.736L1157.18 163.155L1157.18 162.916L1152.41 136.205L1196.29 -53.3984L1272.61 -65.8001L1365.62 -86.3107L1362.76 -99.1894L1269.99 -78.6788L1197.96 -66.9926L1182.94 -130.909L1190.09 -132.34L1264.26 -138.541L1321.26 -128.524L1366.1 -132.34L1364.91 -145.457L1321.26 -141.88L1268.56 -151.181L1302.66 -197.688C1303.62 -199.119 1304.09 -201.027 1303.85 -202.696C1303.38 -204.604 1302.42 -206.035 1300.99 -206.989L1192.48 -279.968C1191.05 -280.922 1189.14 -281.399 1187.47 -280.922C1185.8 -280.684 1184.13 -279.491 1183.18 -278.06C1182.22 -276.629 1181.74 -274.721 1182.22 -273.052C1182.7 -271.382 1183.65 -269.952 1185.08 -268.998L1287.87 -200.073L1252.1 -150.943L1229.2 -149.035L1223.72 -173.6L1240.89 -178.37C1242.56 -178.847 1243.99 -180.039 1244.95 -181.47L1255.92 -200.788C1256.63 -202.219 1256.87 -203.888 1256.63 -205.558C1256.15 -207.466 1254.96 -208.897 1253.53 -209.851C1250.43 -211.759 1246.38 -210.566 1244.47 -207.466L1234.93 -190.533L1221.1 -186.717L1207.5 -248.248C1206.79 -251.587 1203.45 -253.972 1200.11 -253.257L1154.79 -246.102L1147.16 -277.822L1127.84 -273.29L1132.14 -254.688L991.187 -217.96L971.392 -215.336L921.547 -190.056L898.413 -214.144C896.505 -216.052 893.405 -216.29 891.497 -214.382C890.304 -213.19 889.827 -211.52 890.066 -209.612C890.304 -208.658 890.781 -207.943 891.258 -207.227L918.685 -178.847L920.831 -174.792L922.024 -175.508L932.279 -164.775C930.371 -162.867 927.032 -159.767 920.831 -154.997L892.689 -193.633C891.258 -195.541 888.635 -196.257 886.25 -195.064L836.404 -169.068L831.634 -177.177L878.618 -199.357C880.764 -200.311 881.957 -202.696 881.241 -204.842C881.241 -205.319 881.003 -205.558 880.764 -206.035C880.287 -207.227 879.095 -208.181 877.902 -208.658C876.71 -209.135 875.279 -209.135 874.087 -208.42L772.965 -160.721L702.132 -109.922C700.462 -108.729 699.747 -106.821 700.224 -104.913C700.462 -104.198 700.701 -103.721 700.939 -103.005C702.609 -100.859 705.709 -100.382 707.856 -101.813L773.442 -149.035L788.228 -121.369L740.291 -88.2186C738.622 -87.0262 737.906 -85.1182 738.145 -82.9718C738.145 -82.4948 738.383 -82.0178 738.622 -81.5408L753.408 -56.0219C754.362 -54.3524 756.27 -53.3984 758.417 -53.6369L822.81 -61.5072L836.643 -62.2227L923.693 -77.0094L924.886 -72.955L726.935 -43.8587L728.843 -30.7414L933.71 -60.7918L947.304 -67.2311L963.283 -22.3941L944.681 -16.9087L741.245 27.9282L744.107 40.8069L833.542 21.0119L845.229 54.1627L859.061 90.1753L888.158 83.736L885.296 70.8573L867.409 74.9117L857.63 49.6312L846.421 18.3885L947.781 -4.03003L995.003 -17.8627L995.957 60.3635L1020.52 81.351L1077.76 63.9409L1101.61 70.1418L1133.81 120.226L1129.99 136.205L1135.72 166.732L1094.69 175.795L1025.05 164.824L990.949 152.184C990.949 152.184 990.472 152.184 990.233 152.184C989.756 152.184 989.279 151.945 988.564 151.945C988.325 151.945 988.087 151.945 987.848 151.945L987.133 151.945L960.183 158.862L892.928 156.954C892.451 156.954 891.735 156.954 891.258 157.192L782.505 182.234C778.927 182.95 776.781 186.527 777.496 190.105C777.973 191.774 778.927 193.444 780.358 194.397C781.789 195.351 783.697 195.59 785.366 195.351L815.417 188.435L820.425 213.716C819.233 214.193 818.04 214.908 817.086 216.1C815.894 217.531 815.417 219.678 815.894 221.347L835.212 312.691L804.446 320.561C800.869 321.515 798.961 324.854 799.676 328.431C800.153 330.339 801.346 331.77 802.777 332.724C804.208 333.678 806.116 333.917 807.785 333.44L854.291 321.515L879.333 316.03L881.718 329.862L866.693 345.126L792.044 368.26C788.705 369.214 786.797 372.553 787.513 375.892L787.751 376.369C788.228 378.038 789.421 379.469 791.09 380.185C792.76 380.9 794.429 381.139 796.099 380.662L872.417 357.051C873.371 356.812 874.325 356.097 875.279 355.381L891.735 338.687L909.384 338.687C910.576 338.687 911.769 338.448 912.961 337.733L946.827 316.745C948.497 315.553 949.689 313.645 949.928 311.737L953.505 271.431C953.505 270.716 953.505 270.239 953.505 269.523L936.095 180.565C935.618 178.657 934.426 176.987 932.756 176.033L924.647 171.502L960.899 172.456C961.614 172.456 962.091 172.456 962.807 172.217L970.677 170.071L963.283 179.134C962.33 180.088 961.853 181.519 961.853 182.95L957.321 244.958C957.321 245.674 957.321 246.151 957.56 246.866C957.56 247.105 957.798 247.343 957.798 247.82L969.007 278.109C969.246 278.348 969.246 278.825 969.484 279.063L987.848 311.26L999.296 333.678C922.262 361.344 831.873 393.302 825.434 394.733L826.149 397.833L824.48 397.595L822.81 414.051L826.149 414.29C828.534 414.528 830.442 414.767 916.777 384.001L925.363 415.005L865.978 435.277C862.877 436.47 860.969 439.57 861.685 442.909C861.685 443.147 861.923 443.386 861.923 443.624C863.116 446.963 866.932 448.871 870.271 447.679L931.325 426.93L948.02 446.248C949.212 447.679 950.882 448.394 952.551 448.633C955.413 449.11 957.083 448.633 958.514 447.44ZM948.02 398.549C946.827 398.787 945.635 399.503 944.681 400.218L937.765 406.896L930.371 379.708C959.468 369.453 995.719 356.335 1037.93 341.072L1183.89 304.582L1171.25 339.164L1062.02 362.298C1058.92 363.013 1056.77 365.637 1056.77 368.499L1056.53 376.846L948.02 398.549ZM1041.75 275.486L1021 176.987L1021.95 177.464C1022.43 177.703 1022.67 177.703 1023.15 177.703L1094.69 189.151C1095.41 189.389 1096.36 189.151 1097.08 189.151L1142.15 179.134L1189.85 258.076L1142.39 241.142C1141.44 240.665 1140.25 240.665 1139.29 240.904L1096.6 246.866C1095.89 246.866 1095.17 247.105 1094.46 247.582L1045.33 274.055L1041.75 275.486ZM1186.99 156.238L1217.76 205.13L1243.28 264.515L1218.71 274.293L1216.56 263.084L1163.14 175.079L1186.99 156.238ZM1199.63 280.017L1031.73 322.231L1012.65 329.147L1000.25 304.82L1000.01 304.343L1050.33 286.218C1050.57 285.979 1051.05 285.979 1051.29 285.741L1099.7 259.507L1139.77 253.783L1186.99 270.477L1198.92 276.917L1199.63 280.017ZM982.125 272.862L971.631 244.481L975.685 186.05L991.903 166.494L1006.21 171.741L1029.11 280.017L993.572 292.657L982.125 272.862ZM835.927 218.247L829.488 185.335L855.245 179.372L874.087 279.779L878.141 302.913L852.383 308.636L849.283 309.352L831.634 225.64C832.827 225.163 834.019 224.448 834.735 223.494C835.927 222.063 836.404 220.155 835.927 218.247ZM941.342 270.954L938.242 307.205L908.907 325.57L896.028 325.57L887.442 277.632L868.363 176.749L894.597 170.787L898.651 170.787C899.128 171.263 899.605 171.74 900.321 172.217L924.886 186.289L941.342 270.954ZM1195.82 -239.186L1208.22 -182.901L1171.97 -172.884L1157.66 -233.223L1195.82 -239.186ZM1135 -241.809L1159.33 -139.256L999.535 -104.913L997.865 -112.068L993.095 -136.633L963.76 -147.842L943.488 -166.445C943.25 -167.16 942.773 -168.114 942.296 -168.591L931.087 -180.278L975.208 -202.696L993.572 -205.081L1135 -241.809ZM750.069 -82.4948L793.475 -112.307L802.061 -96.089C803.254 -93.704 806.354 -92.75 808.739 -93.9425L827.342 -103.482L838.312 -76.5324L837.835 -72.478L835.927 -72.2395L822.333 -71.524L760.802 -63.8922L750.069 -82.4948ZM921.547 -86.7877L901.513 -83.4487L921.308 -88.2186L921.547 -86.7877ZM832.827 -155.951L850.476 -126.616L831.873 -117.076L815.417 -146.888L832.827 -155.951ZM841.651 -160.482L873.133 -176.939L900.559 -139.972L859.777 -129.955L841.651 -160.482ZM808.739 -105.152L782.743 -154.043L822.81 -172.884L827.819 -164.298L806.354 -153.089C805.162 -152.374 804.208 -151.42 803.969 -149.989C803.731 -149.273 803.731 -148.319 803.969 -147.604C803.969 -147.127 804.208 -146.65 804.446 -146.173L823.287 -112.307L808.739 -105.152ZM881.957 -181.709L886.965 -184.332L912.723 -148.796C911.292 -147.842 909.861 -146.65 908.668 -145.696L881.957 -181.709ZM987.133 -100.859L934.903 -76.0554L929.417 -95.3735C928.702 -97.9969 926.078 -99.4279 923.455 -98.9509L892.212 -91.5576C889.589 -90.8421 887.919 -88.2186 888.396 -85.5952C888.873 -83.6872 890.304 -82.2563 891.974 -81.7793L848.091 -74.1475L848.329 -76.5324C848.329 -77.0094 848.329 -77.4864 848.329 -78.2019L848.329 -78.4404L848.091 -78.9173L836.404 -108.014L854.768 -117.315L860.492 -103.244C860.731 -102.528 861.208 -102.051 861.685 -101.574L868.84 -94.658C870.748 -92.75 874.087 -92.75 875.756 -94.8965C876.948 -96.089 877.425 -97.7584 876.948 -99.4279C876.71 -100.382 876.233 -101.336 875.517 -102.051L869.078 -108.252L863.831 -121.131L889.112 -127.332L891.497 -112.068C892.212 -109.206 894.597 -107.537 897.221 -108.014C898.413 -108.252 899.605 -108.968 900.559 -109.922C901.275 -111.114 901.752 -112.307 901.513 -113.738L898.89 -129.717L903.898 -130.909L908.43 -108.252C909.145 -105.39 911.53 -103.721 914.392 -104.436C915.585 -104.675 916.777 -105.39 917.493 -106.583C918.208 -107.775 918.447 -108.968 918.208 -110.399L912.961 -136.872C914.631 -138.064 916.777 -139.733 918.685 -141.164L923.455 -134.487C925.124 -132.34 928.225 -131.863 930.371 -133.294C932.041 -134.487 932.756 -136.395 932.279 -138.302C932.041 -139.018 931.802 -139.495 931.564 -140.21L926.555 -147.127C930.61 -150.227 933.71 -153.089 936.334 -155.236L956.844 -136.633L979.024 -128.047L936.095 -112.068C932.995 -110.876 931.325 -107.537 932.041 -104.436C932.041 -104.198 932.279 -103.721 932.279 -103.482C932.995 -101.813 934.187 -100.62 935.857 -99.6664C937.526 -98.9509 939.196 -98.9509 940.865 -99.4279L984.033 -115.646L985.225 -109.445L987.133 -100.859ZM1215.85 -147.604L1186.75 -144.98L1178.88 -143.311L1175.07 -159.767L1211.08 -169.784L1215.85 -147.604ZM1015.75 -23.5866L1145.97 -49.1055L1174.35 -51.0135L1138.82 102.339L1110.67 58.694L1078.24 50.1083L1024.34 66.3259L1009.79 53.9241L1008.84 -20.2477L1015.99 -23.1096L1015.75 -23.5866ZM1000.49 -33.1264L976.401 -26.21L959.706 -73.1935L989.756 -87.5031L1000.49 -33.1264ZM1176.97 -64.6077L1144.06 -62.2227L1013.13 -36.7038L1002.16 -92.0345L1162.43 -126.378L1176.97 -64.6077Z" fill="white"/>
</g>
</g>
</g>
<defs>
<linearGradient id="paint0_linear_25_5593" x1="757.608" y1="80.2302" x2="380.087" y2="228.811" gradientUnits="userSpaceOnUse">
<stop stop-color="#FFD66C"/>
<stop offset="0.453669" stop-color="#B66CFF"/>
<stop offset="1" stop-color="#434EFF"/>
</linearGradient>
<linearGradient id="paint1_linear_25_5593" x1="757.608" y1="80.2302" x2="380.087" y2="228.811" gradientUnits="userSpaceOnUse">
<stop stop-color="#FFD66C"/>
<stop offset="0.453669" stop-color="#B66CFF"/>
<stop offset="1" stop-color="#434EFF"/>
</linearGradient>
</defs>
</svg>
