<svg width="215" height="178" viewBox="0 0 215 178" fill="none" xmlns="http://www.w3.org/2000/svg">
<path d="M69.5009 15.8815C47.3152 29.6437 22.6818 54.1011 16.9531 80.3C3.5558 141.496 82.7419 178.728 132.412 177.857C163.972 177.298 196.6 160.456 208.942 131.463C216.976 112.594 215.752 90.6963 208.942 71.3591C187.252 9.73465 127.738 -20.2719 69.5009 15.8815Z" fill="#5E53FA"/>
<path d="M108.223 169.76C108.223 169.76 153.792 176.257 173.321 159.363" stroke="white" stroke-width="0.737492" stroke-miterlimit="10" stroke-linecap="round" stroke-linejoin="round"/>
<path d="M204.021 126.238C206.04 121.429 207.498 116.14 207.823 110.617" stroke="white" stroke-width="0.737492" stroke-miterlimit="10" stroke-linecap="round" stroke-linejoin="round"/>
<path d="M186.992 150.917C186.992 150.917 192.083 146.173 197.252 138.584" stroke="white" stroke-width="0.737492" stroke-miterlimit="10" stroke-linecap="round" stroke-linejoin="round"/>
<rect x="0.318359" y="37.3281" width="114.896" height="30.8607" rx="7.37492" fill="#EEF3F8"/>
<path d="M101.611 49.5322C101.611 50.1712 101.422 50.796 101.066 51.3274C100.711 51.8588 100.207 52.2729 99.6163 52.5175C99.0259 52.7621 98.3761 52.8261 97.7493 52.7014C97.1225 52.5767 96.5468 52.2689 96.0949 51.817C95.643 51.3651 95.3352 50.7894 95.2105 50.1626C95.0859 49.5357 95.1498 48.886 95.3944 48.2956C95.639 47.7051 96.0532 47.2005 96.5845 46.8454C97.1159 46.4904 97.7407 46.3009 98.3798 46.3009C98.8049 46.2979 99.2264 46.3795 99.6198 46.5408C100.013 46.7022 100.371 46.9401 100.671 47.2407C100.972 47.5414 101.21 47.8987 101.371 48.2921C101.532 48.6855 101.614 49.107 101.611 49.5322Z" fill="#5E53FA"/>
<path d="M103.957 58.3863H92.7578C92.8473 56.9649 93.475 55.6311 94.5132 54.6562C95.5514 53.6813 96.922 53.1387 98.3462 53.1387C99.7704 53.1387 101.141 53.6813 102.179 54.6562C103.217 55.6311 103.845 56.9649 103.935 58.3863H103.957Z" fill="#5E53FA"/>
<rect x="0.318359" y="27.5879" width="51.6605" height="6.20314" rx="3.10157" fill="#C6CED6"/>
<rect x="46.2422" y="93.0039" width="114.896" height="30.8607" rx="7.37492" fill="#8E86FF"/>
<rect x="129.555" y="133.959" width="53.4923" height="19.2483" rx="9.62413" fill="#263238"/>
<path d="M146.276 140.776C146.237 140.429 146.075 140.16 145.792 139.969C145.508 139.776 145.152 139.68 144.721 139.68C144.413 139.68 144.147 139.729 143.922 139.826C143.697 139.922 143.522 140.054 143.398 140.222C143.275 140.389 143.214 140.578 143.214 140.791C143.214 140.969 143.256 141.123 143.339 141.253C143.425 141.382 143.536 141.491 143.673 141.579C143.812 141.665 143.961 141.737 144.12 141.795C144.279 141.852 144.432 141.898 144.578 141.935L145.312 142.125C145.551 142.184 145.797 142.263 146.049 142.364C146.3 142.464 146.534 142.596 146.749 142.76C146.964 142.923 147.138 143.126 147.27 143.368C147.404 143.61 147.471 143.9 147.471 144.237C147.471 144.663 147.361 145.04 147.141 145.37C146.924 145.7 146.607 145.961 146.192 146.151C145.778 146.342 145.279 146.437 144.692 146.437C144.13 146.437 143.643 146.348 143.233 146.17C142.822 145.991 142.501 145.738 142.268 145.411C142.036 145.081 141.908 144.689 141.883 144.237H143.02C143.042 144.509 143.13 144.735 143.284 144.916C143.44 145.094 143.64 145.227 143.882 145.315C144.126 145.401 144.394 145.444 144.685 145.444C145.005 145.444 145.29 145.393 145.539 145.293C145.791 145.191 145.989 145.049 146.133 144.868C146.277 144.685 146.349 144.471 146.349 144.226C146.349 144.004 146.286 143.822 146.159 143.68C146.034 143.538 145.864 143.421 145.649 143.328C145.436 143.235 145.196 143.153 144.927 143.082L144.039 142.84C143.438 142.677 142.961 142.436 142.609 142.118C142.26 141.8 142.085 141.38 142.085 140.857C142.085 140.424 142.202 140.046 142.437 139.724C142.672 139.401 142.99 139.151 143.39 138.972C143.791 138.791 144.243 138.701 144.747 138.701C145.255 138.701 145.704 138.79 146.093 138.968C146.484 139.147 146.792 139.393 147.017 139.705C147.241 140.016 147.359 140.373 147.369 140.776H146.276ZM151.164 146.426C150.609 146.426 150.132 146.308 149.731 146.071C149.332 145.831 149.024 145.495 148.807 145.062C148.592 144.627 148.484 144.117 148.484 143.533C148.484 142.956 148.592 142.448 148.807 142.008C149.024 141.568 149.327 141.225 149.716 140.978C150.107 140.731 150.564 140.607 151.087 140.607C151.405 140.607 151.713 140.66 152.011 140.765C152.309 140.87 152.577 141.035 152.814 141.26C153.051 141.485 153.238 141.777 153.375 142.136C153.512 142.493 153.581 142.927 153.581 143.438V143.827H149.104V143.005H152.506C152.506 142.717 152.448 142.461 152.33 142.239C152.213 142.014 152.048 141.837 151.835 141.707C151.625 141.578 151.378 141.513 151.095 141.513C150.787 141.513 150.518 141.589 150.288 141.74C150.061 141.889 149.885 142.085 149.76 142.327C149.638 142.567 149.577 142.827 149.577 143.108V143.75C149.577 144.126 149.643 144.446 149.775 144.71C149.909 144.974 150.096 145.176 150.336 145.315C150.575 145.452 150.855 145.521 151.175 145.521C151.383 145.521 151.572 145.491 151.744 145.433C151.915 145.371 152.063 145.281 152.187 145.161C152.312 145.041 152.407 144.894 152.473 144.718L153.511 144.905C153.428 145.21 153.279 145.478 153.064 145.708C152.851 145.935 152.583 146.112 152.261 146.239C151.94 146.364 151.575 146.426 151.164 146.426ZM155.893 142.969V146.312H154.797V140.681H155.849V141.597H155.919C156.048 141.299 156.251 141.06 156.527 140.879C156.806 140.698 157.157 140.607 157.58 140.607C157.964 140.607 158.3 140.688 158.588 140.849C158.876 141.008 159.1 141.245 159.259 141.561C159.418 141.876 159.497 142.266 159.497 142.73V146.312H158.401V142.862C158.401 142.454 158.295 142.135 158.082 141.905C157.869 141.673 157.577 141.557 157.206 141.557C156.952 141.557 156.725 141.612 156.527 141.722C156.332 141.832 156.177 141.993 156.062 142.206C155.949 142.416 155.893 142.67 155.893 142.969ZM163.076 146.422C162.621 146.422 162.215 146.306 161.859 146.074C161.504 145.84 161.225 145.506 161.023 145.073C160.822 144.638 160.722 144.116 160.722 143.508C160.722 142.899 160.823 142.378 161.026 141.946C161.232 141.513 161.513 141.182 161.87 140.952C162.226 140.722 162.631 140.607 163.083 140.607C163.433 140.607 163.714 140.666 163.926 140.783C164.142 140.898 164.308 141.033 164.425 141.187C164.545 141.341 164.638 141.476 164.704 141.594H164.77V138.803H165.866V146.312H164.795V145.436H164.704C164.638 145.556 164.542 145.693 164.418 145.847C164.296 146.001 164.127 146.135 163.912 146.25C163.697 146.365 163.418 146.422 163.076 146.422ZM163.318 145.488C163.633 145.488 163.9 145.404 164.117 145.238C164.337 145.07 164.503 144.836 164.616 144.538C164.731 144.24 164.788 143.893 164.788 143.497C164.788 143.106 164.732 142.763 164.619 142.47C164.507 142.177 164.342 141.948 164.124 141.784C163.907 141.621 163.638 141.539 163.318 141.539C162.988 141.539 162.713 141.624 162.493 141.795C162.273 141.966 162.107 142.2 161.994 142.496C161.884 142.791 161.829 143.125 161.829 143.497C161.829 143.873 161.885 144.212 161.998 144.512C162.11 144.813 162.277 145.051 162.497 145.227C162.719 145.401 162.993 145.488 163.318 145.488Z" fill="white"/>
<path d="M143.713 105.713L142.477 104.721H152.179L150.722 105.674C150.305 106.005 149.726 106.488 149.323 106.833L148.278 107.821L147.321 108.731L146.3 107.869L144.935 106.719L143.713 105.713Z" fill="white"/>
<path d="M152.21 104.777V110.93H142.507V104.777L143.685 105.884L144.893 106.962L146.143 108.069H146.072C145.8 108.218 145.536 108.381 145.281 108.558C144.95 108.759 144.634 108.975 144.304 109.205L143.369 109.88C143.053 110.125 142.751 110.355 142.449 110.613C142.794 110.427 143.125 110.225 143.455 110.01C143.786 109.794 144.102 109.593 144.419 109.363C144.735 109.133 145.065 108.917 145.367 108.687C145.669 108.457 145.87 108.299 146.115 108.083L147.178 109.003L148.242 108.083C148.487 108.299 148.731 108.486 148.975 108.687L149.924 109.363C150.24 109.593 150.571 109.808 150.887 110.01C151.203 110.211 151.548 110.427 151.893 110.613C151.606 110.355 151.29 110.125 150.988 109.88L150.039 109.205C149.723 108.975 149.407 108.759 149.076 108.558C148.816 108.381 148.547 108.218 148.271 108.069H148.199L149.464 106.962L150.657 105.884L152.21 104.777Z" fill="white"/>
<rect x="45.873" y="82.4551" width="51.6605" height="6.20314" rx="3.10157" fill="#4439DE"/>
</svg>
