<svg width="65" height="53" viewBox="0 0 65 53" fill="none" xmlns="http://www.w3.org/2000/svg">
<path d="M12.4285 3.31793C9.70239 4.96513 7.49948 7.34142 5.70962 9.96073C3.78207 12.7421 2.29511 15.8204 1.33134 19.0608C-1.78027 29.4031 4.05744 37.315 12.7039 42.7427C21.9561 48.5484 41.6721 58.5126 51.3098 48.7374C56.4591 43.4988 61.8562 37.8011 64.0316 30.6452C65.6287 25.4066 64.0041 20.33 60.3142 16.3875C54.1461 9.79871 45.6098 6.61233 37.404 3.26393C29.6662 0.131551 19.9459 -1.27262 12.4285 3.31793Z" fill="black"/>
<path d="M26.2326 16.07C27.8326 16.07 29.2426 16.4 30.4626 17.06C31.6826 17.7 32.6426 18.62 33.3426 19.82C34.0426 21 34.3926 22.39 34.3926 23.99C34.3926 25.59 34.0326 27.03 33.3126 28.31C32.6126 29.57 31.6226 30.57 30.3426 31.31C29.0826 32.05 27.6026 32.42 25.9026 32.42C24.3426 32.42 22.9426 32.09 21.7026 31.43C20.4826 30.77 19.5126 29.85 18.7926 28.67C18.0926 27.47 17.7426 26.07 17.7426 24.47C17.7426 22.89 18.0926 21.47 18.7926 20.21C19.4926 18.93 20.4826 17.92 21.7626 17.18C23.0426 16.44 24.5326 16.07 26.2326 16.07ZM25.9626 16.61C24.8826 16.61 23.9926 17.3 23.2926 18.68C22.6126 20.04 22.2726 21.94 22.2726 24.38C22.2726 26.18 22.4526 27.63 22.8126 28.73C23.1726 29.83 23.6426 30.63 24.2226 31.13C24.8226 31.63 25.4726 31.88 26.1726 31.88C27.2526 31.88 28.1326 31.19 28.8126 29.81C29.5126 28.43 29.8626 26.52 29.8626 24.08C29.8626 22.28 29.6826 20.83 29.3226 19.73C28.9626 18.63 28.4826 17.84 27.8826 17.36C27.3026 16.86 26.6626 16.61 25.9626 16.61ZM44.1885 16.16V29.09C44.1885 29.97 44.3485 30.57 44.6685 30.89C45.0085 31.21 45.5685 31.37 46.3485 31.37V32C45.9485 31.98 45.3585 31.96 44.5785 31.94C43.8185 31.9 43.0285 31.88 42.2085 31.88C41.1885 31.88 40.1985 31.9 39.2385 31.94C38.2985 31.96 37.5685 31.98 37.0485 32V31.37C37.9485 31.37 38.6385 31.21 39.1185 30.89C39.6185 30.55 39.8685 29.89 39.8685 28.91V21.59C39.8685 20.63 39.7885 19.92 39.6285 19.46C39.4685 19 39.1685 18.7 38.7285 18.56C38.2885 18.42 37.6885 18.35 36.9285 18.35V17.69C38.6485 17.65 40.0685 17.52 41.1885 17.3C42.3285 17.08 43.3285 16.7 44.1885 16.16Z" fill="white"/>
</svg>
