<svg width="65" height="59" viewBox="0 0 65 59" fill="none" xmlns="http://www.w3.org/2000/svg">
<path d="M64.1547 19.0318C64.1122 18.2469 64.0272 17.4621 63.9421 16.6772C63.1132 10.0379 59.8398 4.33186 53.2506 2.18945C40.9437 -1.81962 25.6186 4.09853 14.3532 8.9773C5.29834 12.9015 -0.419368 18.6924 1.04726 29.1499C3.34285 45.6316 19.582 52.7589 33.8232 56.5558C40.3061 58.274 50.7213 60.9891 55.61 54.7104C58.9046 50.468 60.2862 42.9165 61.7103 37.8256C63.3895 31.7166 64.5373 25.3742 64.1547 19.0318Z" fill="black"/>
<path d="M25.9658 19.7139C27.5381 19.7139 28.9443 20.0459 30.1846 20.71C31.4248 21.3643 32.3916 22.292 33.085 23.4932C33.7783 24.6846 34.125 26.0615 34.125 27.624C34.125 29.2158 33.7686 30.6562 33.0557 31.9453C32.3428 33.2246 31.3418 34.2305 30.0527 34.9629C28.7637 35.6953 27.2891 36.0615 25.6289 36.0615C24.0664 36.0615 22.665 35.7344 21.4248 35.0801C20.1943 34.4258 19.2275 33.498 18.5244 32.2969C17.8213 31.0859 17.4697 29.6895 17.4697 28.1074C17.4697 26.5254 17.8213 25.0996 18.5244 23.8301C19.2373 22.5508 20.2383 21.5449 21.5273 20.8125C22.8164 20.0801 24.2959 19.7139 25.9658 19.7139ZM25.6875 20.2412C24.9648 20.2412 24.3252 20.5537 23.7686 21.1787C23.2119 21.7939 22.7773 22.6875 22.4648 23.8594C22.1523 25.0312 21.9961 26.418 21.9961 28.0195C21.9961 29.7383 22.167 31.1592 22.5088 32.2822C22.8604 33.4053 23.3291 34.2256 23.915 34.7432C24.501 35.2607 25.165 35.5195 25.9072 35.5195C26.6201 35.5195 27.2549 35.207 27.8115 34.582C28.3682 33.957 28.8027 33.0537 29.1152 31.8721C29.4375 30.6904 29.5986 29.3037 29.5986 27.7119C29.5986 26.0029 29.4229 24.5918 29.0713 23.4785C28.7295 22.3555 28.2656 21.5352 27.6797 21.0176C27.0937 20.5 26.4297 20.2412 25.6875 20.2412ZM36.5713 23.4639C37.1865 22.3213 37.9873 21.4131 38.9736 20.7393C39.9697 20.0557 41.2686 19.7139 42.8701 19.7139C43.8564 19.7139 44.7353 19.8555 45.5068 20.1387C46.2881 20.4121 46.8984 20.8076 47.3379 21.3252C47.7773 21.8428 47.9971 22.4531 47.9971 23.1562C47.9971 23.9082 47.748 24.6162 47.25 25.2803C46.7617 25.9443 46.0537 26.5254 45.126 27.0234C44.208 27.5117 43.1338 27.873 41.9033 28.1074L42.416 28.0928C43.7051 28.0928 44.8525 28.2734 45.8584 28.6348C46.8643 28.9863 47.6504 29.5039 48.2168 30.1875C48.793 30.8711 49.0811 31.6963 49.0811 32.6631C49.0811 34.1377 48.4512 35.4414 47.1914 36.5742C45.9316 37.7168 44.3154 38.6006 42.3428 39.2256C40.3799 39.8506 38.3828 40.1631 36.3516 40.1631V39.5625C37.6699 39.5234 38.9639 39.2305 40.2334 38.6836C41.5029 38.1367 42.5478 37.3506 43.3682 36.3252C44.1982 35.2998 44.6133 34.0889 44.6133 32.6924C44.6133 31.9209 44.4863 31.2275 44.2324 30.6123C43.9785 29.9971 43.6123 29.5088 43.1338 29.1475C42.665 28.7861 42.1084 28.5811 41.4639 28.5322C40.751 28.8447 40.2383 29.001 39.9258 29.001C39.5449 29.001 39.3545 28.8643 39.3545 28.5908C39.3545 28.376 39.4473 28.2148 39.6328 28.1074C39.8184 27.9902 40.0479 27.9316 40.3213 27.9316C40.4385 27.9316 40.5996 27.9512 40.8047 27.9902C41.0195 28.0195 41.2051 28.0391 41.3613 28.0488C42.9043 26.9648 43.6758 25.6221 43.6758 24.0205C43.6758 23.1318 43.4414 22.4727 42.9727 22.043C42.5137 21.6035 41.8594 21.3838 41.0098 21.3838C40.209 21.3838 39.4717 21.584 38.7979 21.9844C38.124 22.375 37.5625 22.9561 37.1133 23.7275L36.5713 23.4639Z" fill="white"/>
</svg>
