<svg width="214" height="179" viewBox="0 0 214 179" fill="none" xmlns="http://www.w3.org/2000/svg">
<path d="M38.0496 22.9372C34.9128 25.5652 31.8946 28.4429 29.0345 31.5571C9.13279 53.1986 -1.43754 84.5507 0.882133 115.009C1.83109 127.4 4.9152 139.87 11.5843 149.988C20.9948 164.245 36.6526 172.457 52.5476 175.677C101.34 185.532 162.258 168.41 195.55 127.216C210.312 108.939 218.114 82.2512 209.745 59.7161C205.211 47.4827 196.433 37.5883 186.641 29.77C144.992 -3.46104 80.3837 -12.5408 38.0496 22.9372Z" fill="#FFE39B"/>
<mask id="mask0_25_5138" style="mask-type:alpha" maskUnits="userSpaceOnUse" x="0" y="0" width="214" height="179">
<path d="M38.0496 22.9372C34.9128 25.5652 31.8946 28.4429 29.0345 31.5571C9.13279 53.1986 -1.43754 84.5507 0.882133 115.009C1.83109 127.4 4.9152 139.87 11.5843 149.988C20.9948 164.245 36.6526 172.457 52.5476 175.677C101.34 185.532 162.258 168.41 195.55 127.216C210.312 108.939 218.114 82.2512 209.745 59.7161C205.211 47.4827 196.433 37.5883 186.641 29.77C144.992 -3.46104 80.3837 -12.5408 38.0496 22.9372Z" fill="#FFE39B"/>
</mask>
<g mask="url(#mask0_25_5138)">
<path d="M45.2056 284.454C42.8254 282.073 41.4883 278.844 41.4883 275.477L41.5299 71.7771C41.5291 70.1087 41.8572 68.4565 42.4955 66.9151C43.1338 65.3736 44.0697 63.9732 45.2497 62.7937C46.4297 61.6143 47.8306 60.679 49.3723 60.0415C50.9141 59.4039 52.5664 59.0766 54.2347 59.0781H74.0348M45.2056 284.454C47.5858 286.836 50.8143 288.174 54.1813 288.176L137.256 288.223C138.924 288.225 140.576 287.898 142.117 287.261C143.659 286.623 145.059 285.689 146.239 284.51C147.419 283.331 148.355 281.931 148.994 280.39C149.632 278.85 149.961 277.198 149.961 275.53L150.003 71.8305C150.004 70.1621 149.677 68.5097 149.04 66.9677C148.403 65.4257 147.468 64.0242 146.29 62.8434C145.111 61.6625 143.711 60.7254 142.171 60.0854C140.63 59.4455 138.978 59.1153 137.31 59.1138M45.2056 284.454L45.5028 284.157C43.2013 281.855 41.9085 278.732 41.9085 275.477L41.9501 71.7771L41.9501 71.7769C41.9493 70.1637 42.2666 68.5663 42.8837 67.0758C43.5009 65.5854 44.4058 64.2313 45.5467 63.0909C46.6876 61.9505 48.0422 61.0462 49.5329 60.4298C51.0236 59.8133 52.6212 59.4968 54.2343 59.4983H54.2347H74.0301M45.2056 284.454L45.5028 284.157C47.8043 286.46 50.9259 287.754 54.1815 287.756L137.257 287.803C138.869 287.805 140.466 287.488 141.957 286.872C143.447 286.256 144.801 285.352 145.942 284.213C147.083 283.073 147.988 281.719 148.606 280.23C149.223 278.74 149.541 277.143 149.541 275.53L149.582 71.8305V71.8301C149.584 70.2169 149.268 68.6191 148.652 67.1281C148.036 65.6371 147.132 64.282 145.992 63.1402C144.853 61.9984 143.499 61.0922 142.009 60.4735C140.52 59.8547 138.923 59.5355 137.309 59.534M137.31 59.1138H121.17M137.31 59.1138V59.534H137.309M137.31 59.1138L137.309 59.534C137.309 59.534 137.309 59.534 137.309 59.534M121.17 59.1138C120.644 59.1254 120.125 59.2405 119.644 59.4525C119.162 59.6646 118.727 59.9694 118.364 60.3496C118 60.7298 117.715 61.178 117.524 61.6685C117.334 62.1589 117.242 62.6821 117.254 63.2081V66.1318M121.17 59.1138L121.179 59.5339C121.178 59.5339 121.176 59.5339 121.175 59.534M121.17 59.1138V59.534H121.175M117.254 66.1318C117.276 67.1952 116.876 68.2241 116.141 68.9928C115.405 69.7614 114.395 70.2071 113.332 70.232H81.8729C80.8111 70.2071 79.8025 69.762 79.0684 68.9945C78.3343 68.227 77.9345 67.1996 77.9568 66.1377M117.254 66.1318L117.674 66.123C117.674 66.1246 117.674 66.1262 117.674 66.1278M117.254 66.1318H117.674V66.1278M77.9568 66.1377V63.1784C77.9687 62.6516 77.8766 62.1277 77.6859 61.6365C77.4952 61.1453 77.2095 60.6965 76.8453 60.3157C76.4811 59.9349 76.0455 59.6297 75.5632 59.4173C75.081 59.205 74.5616 59.0897 74.0348 59.0781M77.9568 66.1377H77.5367V66.1333M77.9568 66.1377L77.5368 66.1289C77.5367 66.1304 77.5367 66.1319 77.5367 66.1333M74.0348 59.0781V59.4983H74.0301M74.0348 59.0781L74.0256 59.4982C74.0271 59.4982 74.0286 59.4983 74.0301 59.4983M74.0301 59.4983C74.5002 59.5092 74.9635 59.6123 75.3939 59.8018C75.8256 59.992 76.2156 60.2653 76.5417 60.6061C76.8678 60.947 77.1235 61.3488 77.2942 61.7885C77.4649 62.2283 77.5474 62.6974 77.5368 63.169L77.5367 63.169V63.1784V66.1333M137.309 59.534H121.175M121.175 59.534C120.705 59.5449 120.243 59.6478 119.813 59.837C119.382 60.0268 118.993 60.2997 118.667 60.64C118.342 60.9804 118.087 61.3815 117.916 61.8205C117.746 62.2595 117.663 62.7278 117.674 63.1986L117.674 63.2081L117.674 66.1278M117.674 66.1278C117.697 67.3008 117.255 68.4353 116.444 69.2832C115.632 70.1322 114.516 70.6245 113.342 70.6521L113.332 70.6523L81.8729 70.6522H81.863V70.6521C80.69 70.6245 79.5758 70.1329 78.7647 69.2849C77.9548 68.4381 77.5132 67.3049 77.5367 66.1333" stroke="white" stroke-width="0.84034"/>
<path d="M145.714 42.3071H129.574C129.048 42.3187 128.53 42.4338 128.048 42.6459C127.567 42.8579 127.132 43.1628 126.768 43.543C126.404 43.9232 126.119 44.3713 125.929 44.8618C125.738 45.3523 125.646 45.8755 125.658 46.4015V49.3251C125.681 50.3886 125.28 51.4175 124.545 52.1861C123.81 52.9548 122.8 53.4004 121.736 53.4254H90.2772C89.2154 53.4004 88.2068 52.9554 87.4727 52.1879C86.7386 51.4203 86.3388 50.3929 86.3611 49.3311V46.3718C86.373 45.845 86.2809 45.321 86.0902 44.8298C85.8995 44.3386 85.6138 43.8898 85.2496 43.5091C84.8854 43.1283 84.4497 42.823 83.9675 42.6107C83.4853 42.3983 82.9659 42.2831 82.4391 42.2715H62.639C60.9707 42.2699 59.3184 42.5973 57.7766 43.2348C56.2349 43.8724 54.8339 44.8076 53.654 45.9871C52.474 47.1665 51.5381 48.567 50.8998 50.1085C50.2615 51.6499 49.9334 53.3021 49.9342 54.9704L49.8926 258.67C49.8926 262.037 51.2297 265.266 53.6099 267.648C55.9901 270.029 59.2186 271.368 62.5856 271.369L145.66 271.417C147.328 271.418 148.98 271.091 150.521 270.454C152.063 269.817 153.463 268.882 154.643 267.703C155.823 266.524 156.759 265.125 157.398 263.584C158.037 262.043 158.365 260.392 158.365 258.724L158.407 55.0239C158.408 53.3555 158.081 51.7031 157.444 50.1611C156.807 48.619 155.873 47.2176 154.694 46.0367C153.515 44.8559 152.116 43.9187 150.575 43.2788C149.034 42.6389 147.382 42.3087 145.714 42.3071Z" fill="#FFEDBF"/>
<path d="M154.116 25.5005H137.977C137.451 25.5121 136.932 25.6272 136.451 25.8392C135.969 26.0513 135.534 26.3561 135.17 26.7363C134.807 27.1166 134.522 27.5647 134.331 28.0552C134.141 28.5456 134.049 29.0688 134.061 29.5948V32.5185C134.083 33.5819 133.683 34.6108 132.947 35.3795C132.212 36.1481 131.202 36.5938 130.139 36.6187H98.6795C97.6177 36.5938 96.6091 36.1488 95.875 35.3812C95.1409 34.6137 94.7411 33.5863 94.7635 32.5244V29.5651C94.7753 29.0383 94.6832 28.5144 94.4925 28.0232C94.3018 27.532 94.0162 27.0832 93.652 26.7024C93.2878 26.3217 92.8521 26.0164 92.3699 25.804C91.8876 25.5917 91.3683 25.4764 90.8415 25.4648H71.0414C69.373 25.4633 67.7207 25.7906 66.179 26.4282C64.6372 27.0658 63.2363 28.001 62.0563 29.1804C60.8763 30.3599 59.9404 31.7604 59.3021 33.3018C58.6639 34.8433 58.3357 36.4954 58.3365 38.1638L58.2949 241.864C58.2949 245.23 59.632 248.46 62.0123 250.841C64.3925 253.222 67.621 254.561 70.9879 254.563L154.063 254.61C155.731 254.612 157.382 254.284 158.924 253.647C160.465 253.01 161.866 252.075 163.046 250.897C164.226 249.718 165.162 248.318 165.8 246.777C166.439 245.236 166.768 243.585 166.768 241.917L166.809 38.2173C166.811 36.5488 166.484 34.8964 165.847 33.3544C165.21 31.8124 164.275 30.4109 163.096 29.2301C161.918 28.0492 160.518 27.1121 158.977 26.4722C157.436 25.8322 155.785 25.5021 154.116 25.5005Z" fill="#FFCE50"/>
<path d="M74.7032 55.2888V58.5296C74.7032 58.6784 74.6441 58.821 74.539 58.9262C74.4338 59.0314 74.2911 59.0905 74.1424 59.0905H72.7401C72.5914 59.0905 72.4487 59.0314 72.3435 58.9262C72.2384 58.821 72.1793 58.6784 72.1793 58.5296V57.1274C72.1793 57.053 72.1497 56.9817 72.0971 56.9291C72.0445 56.8765 71.9732 56.847 71.8988 56.847H70.7771C70.7027 56.847 70.6314 56.8765 70.5788 56.9291C70.5262 56.9817 70.4966 57.053 70.4966 57.1274V58.5296C70.4966 58.6784 70.4375 58.821 70.3323 58.9262C70.2272 59.0314 70.0845 59.0905 69.9357 59.0905H68.5335C68.3848 59.0905 68.2421 59.0314 68.1369 58.9262C68.0317 58.821 67.9727 58.6784 67.9727 58.5296V55.2888C67.9726 55.2111 67.9887 55.1344 68.0199 55.0633C68.0511 54.9922 68.0968 54.9284 68.1539 54.8758L70.9583 52.2299L70.9622 52.226C71.0654 52.1321 71.2 52.0801 71.3395 52.0801C71.4791 52.0801 71.6136 52.1321 71.7169 52.226C71.7181 52.2274 71.7194 52.2287 71.7207 52.2299L74.5252 54.8758C74.5817 54.9286 74.6267 54.9926 74.6574 55.0637C74.688 55.1347 74.7036 55.2114 74.7032 55.2888Z" fill="black"/>
<path d="M157.223 55.359C157.223 55.4125 155.125 55.4719 152.54 55.4957C149.955 55.5194 147.852 55.4957 147.852 55.4362C147.852 55.3768 149.949 55.3174 152.534 55.2996C155.119 55.2817 157.223 55.2996 157.223 55.359Z" fill="#263238"/>
<path d="M157.248 57.7534C157.248 57.8128 155.151 57.8722 152.56 57.896C149.969 57.9198 147.871 57.896 147.871 57.8307C147.871 57.7653 149.969 57.7177 152.56 57.694C155.151 57.6702 157.248 57.6761 157.248 57.7534Z" fill="#263238"/>
<path d="M157.264 60.1536C157.264 60.2071 155.166 60.2725 152.575 60.2903C149.984 60.3081 147.887 60.2903 147.887 60.2309C147.887 60.1715 149.984 60.118 152.575 60.0942C155.166 60.0705 157.264 60.1002 157.264 60.1536Z" fill="#263238"/>
<path d="M157.15 139.568H69.5049C66.7203 139.568 64.4629 141.826 64.4629 144.61V158.86C64.4629 161.645 66.7203 163.903 69.5049 163.903H157.15C159.934 163.903 162.192 161.645 162.192 158.86V144.61C162.192 141.826 159.934 139.568 157.15 139.568Z" fill="#FFE9B1"/>
<path d="M153.832 151.121H139.648C137.212 151.121 135.238 153.094 135.238 155.527C135.238 157.961 137.212 159.934 139.648 159.934H153.832C156.267 159.934 158.241 157.961 158.241 155.527C158.241 153.094 156.267 151.121 153.832 151.121Z" fill="#5E53FA"/>
<path d="M68.5287 76.8535V77.4477H69.5508V77.8577H68.5287V78.6659H68.0117V76.4375H69.6875V76.8535H68.5287Z" fill="#263238"/>
<path d="M71.4474 78.654L71.0196 78.0598H70.5501V78.654H70.0391V76.4375H70.9958C71.59 76.4375 71.9585 76.7465 71.9585 77.2457C71.9655 77.3951 71.925 77.5428 71.8428 77.6677C71.7606 77.7927 71.6409 77.8883 71.5009 77.9409L72 78.654H71.4474ZM70.9661 76.8713H70.5501V77.6438H70.9661C71.281 77.6438 71.4415 77.4953 71.4415 77.2576C71.4415 77.0199 71.281 76.8594 70.9661 76.8594V76.8713Z" fill="#263238"/>
<path d="M72.2234 77.5484C72.2151 77.3118 72.2777 77.078 72.4031 76.8772C72.5286 76.6764 72.7112 76.5176 72.9275 76.4212C73.1438 76.3249 73.384 76.2953 73.6172 76.3364C73.8504 76.3774 74.066 76.4872 74.2364 76.6516C74.4068 76.8161 74.5242 77.0277 74.5735 77.2593C74.6229 77.4909 74.6019 77.7319 74.5133 77.9515C74.4247 78.1711 74.2725 78.3592 74.0763 78.4918C73.88 78.6243 73.6487 78.6952 73.4119 78.6953C73.2578 78.7009 73.1042 78.6754 72.9602 78.6203C72.8162 78.5651 72.6848 78.4815 72.5739 78.3745C72.4629 78.2674 72.3747 78.1391 72.3145 77.9972C72.2543 77.8552 72.2233 77.7026 72.2234 77.5484ZM74.125 77.5484C74.1226 77.4115 74.0799 77.2782 74.002 77.1655C73.9242 77.0527 73.8149 76.9654 73.6876 76.9146C73.5604 76.8638 73.421 76.8517 73.2869 76.8799C73.1528 76.9081 73.0301 76.9752 72.934 77.0729C72.838 77.1706 72.7729 77.2945 72.747 77.429C72.7212 77.5635 72.7356 77.7027 72.7886 77.8291C72.8415 77.9554 72.9306 78.0633 73.0447 78.1392C73.1588 78.2151 73.2927 78.2556 73.4297 78.2556C73.5253 78.2634 73.6216 78.2506 73.7119 78.2181C73.8021 78.1855 73.8844 78.134 73.9531 78.067C74.0218 78 74.0754 77.919 74.1101 77.8296C74.1449 77.7401 74.1601 77.6443 74.1547 77.5484H74.125Z" fill="#263238"/>
<path d="M77.0496 78.654V77.3289L76.396 78.4223H76.1702L75.5165 77.3526V78.654H75.0352V76.4375H75.463L76.289 77.8161L77.1269 76.4375H77.5429V78.654H77.0496Z" fill="#263238"/>
<path d="M119.317 76.8594H118.609V76.4375H120.505V76.8594H119.798V78.6421H119.317V76.8594Z" fill="black"/>
<path d="M120.624 77.5484C120.615 77.3118 120.678 77.078 120.804 76.8772C120.929 76.6764 121.112 76.5176 121.328 76.4212C121.544 76.3249 121.784 76.2953 122.018 76.3364C122.251 76.3774 122.466 76.4872 122.637 76.6516C122.807 76.8161 122.925 77.0277 122.974 77.2593C123.023 77.4909 123.002 77.7319 122.914 77.9515C122.825 78.1711 122.673 78.3592 122.477 78.4918C122.28 78.6243 122.049 78.6952 121.812 78.6953C121.658 78.7009 121.505 78.6754 121.361 78.6203C121.217 78.5651 121.085 78.4815 120.974 78.3745C120.863 78.2674 120.775 78.1391 120.715 77.9972C120.655 77.8552 120.624 77.7026 120.624 77.5484ZM122.531 77.5484C122.529 77.4115 122.486 77.2782 122.408 77.1655C122.331 77.0527 122.221 76.9654 122.094 76.9146C121.967 76.8638 121.827 76.8517 121.693 76.8799C121.559 76.9081 121.436 76.9752 121.34 77.0729C121.244 77.1706 121.179 77.2945 121.153 77.429C121.128 77.5635 121.142 77.7027 121.195 77.8291C121.248 77.9554 121.337 78.0633 121.451 78.1392C121.565 78.2151 121.699 78.2556 121.836 78.2556C121.929 78.259 122.022 78.243 122.109 78.2085C122.196 78.174 122.274 78.1219 122.34 78.0553C122.405 77.9888 122.456 77.9094 122.489 77.8221C122.522 77.7348 122.536 77.6416 122.531 77.5484Z" fill="black"/>
<path d="M67.3691 97.5049H68.3021C68.4545 97.4938 68.6075 97.5141 68.7516 97.5648C68.8958 97.6154 69.0279 97.6952 69.1398 97.7992C69.2517 97.9032 69.341 98.0292 69.402 98.1692C69.463 98.3093 69.4945 98.4604 69.4945 98.6132C69.4945 98.766 69.463 98.9171 69.402 99.0571C69.341 99.1972 69.2517 99.3231 69.1398 99.4271C69.0279 99.5312 68.8958 99.611 68.7516 99.6616C68.6075 99.7122 68.4545 99.7326 68.3021 99.7214H67.3691V97.5049ZM68.2843 99.4481C68.5049 99.4481 68.7165 99.3604 68.8725 99.2044C69.0286 99.0484 69.1162 98.8368 69.1162 98.6162C69.1162 98.3955 69.0286 98.1839 68.8725 98.0279C68.7165 97.8719 68.5049 97.7842 68.2843 97.7842H67.69V99.4481H68.2843Z" fill="#263238"/>
<path d="M71.5887 99.4471V99.7204H69.9961V97.5039H71.5589V97.7832H70.311V98.4606H71.4223V98.728H70.311V99.4471H71.5887Z" fill="#263238"/>
<path d="M73.8882 98.3058C73.8882 98.7872 73.5435 99.0784 72.9671 99.0784H72.4204V99.7498H72.1055V97.5333H72.9671C73.5614 97.5036 73.8882 97.7948 73.8882 98.3058ZM73.5732 98.3058C73.5732 97.9909 73.3653 97.8126 72.979 97.8126H72.4442V98.805H72.979C73.3653 98.7753 73.5614 98.5911 73.5614 98.3058H73.5732Z" fill="#263238"/>
<path d="M75.6593 99.1678H74.4708L74.2271 99.7204H73.9062L74.9046 97.5039H75.2195L76.2238 99.7204H75.897L75.6593 99.1678ZM75.5464 98.9123L75.065 97.8307L74.5896 98.9123H75.5464Z" fill="#263238"/>
<path d="M78.0422 99.7205L77.5668 99.0431H76.8774V99.7146H76.5625V97.498H77.4242C78.0184 97.498 78.3512 97.7892 78.3512 98.2706C78.3585 98.4248 78.3147 98.5771 78.2266 98.7039C78.1385 98.8307 78.011 98.9248 77.8639 98.9718L78.3868 99.7146L78.0422 99.7205ZM78.0422 98.2765C78.0422 97.9616 77.8282 97.7833 77.4479 97.7833H76.9072V98.7757H77.4479C77.8223 98.7757 78.0362 98.5915 78.0362 98.3062L78.0422 98.2765Z" fill="#263238"/>
<path d="M79.2723 97.7832H78.5117V97.5039H80.342V97.7832H79.5814V99.7204H79.2723V97.7832Z" fill="#263238"/>
<path d="M80.6264 98.7637V97.5039H80.9413V98.7518C80.9413 99.245 81.1671 99.4649 81.5652 99.4649C81.9634 99.4649 82.1951 99.245 82.1951 98.7518V97.5039H82.4744V98.7637C82.4847 98.8929 82.4682 99.0228 82.4258 99.1453C82.3835 99.2677 82.3162 99.3801 82.2283 99.4753C82.1404 99.5705 82.0337 99.6465 81.915 99.6985C81.7963 99.7504 81.6681 99.7772 81.5385 99.7772C81.4089 99.7772 81.2807 99.7504 81.162 99.6985C81.0433 99.6465 80.9366 99.5705 80.8487 99.4753C80.7608 99.3801 80.6935 99.2677 80.6512 99.1453C80.6088 99.0228 80.5923 98.8929 80.6026 98.7637H80.6264Z" fill="#263238"/>
<path d="M84.6301 99.7205L84.1488 99.0431H83.4654V99.7146H83.1445V97.498H84.0121C84.6064 97.498 84.9332 97.7892 84.9332 98.2706C84.9415 98.425 84.8981 98.5778 84.8099 98.7048C84.7216 98.8318 84.5936 98.9257 84.4459 98.9718L84.9748 99.7146L84.6301 99.7205ZM84.6301 98.2765C84.6301 97.9616 84.4162 97.7833 84.0359 97.7833H83.5011V98.7757H84.0359C84.4043 98.7757 84.6182 98.5915 84.6182 98.3062L84.6301 98.2765Z" fill="#263238"/>
<path d="M87.0557 99.4471V99.7204H85.4453V97.5039H87.0082V97.7832H85.7603V98.4606H86.8715V98.728H85.7603V99.4471H87.0557Z" fill="#263238"/>
<path d="M99.6562 147.501C99.6728 147.656 99.6555 147.813 99.6055 147.961C99.5555 148.108 99.4739 148.244 99.3665 148.357C99.2591 148.47 99.1284 148.558 98.9835 148.616C98.8385 148.673 98.6828 148.698 98.5271 148.69C98.3187 148.693 98.1134 148.639 97.9329 148.535L98.123 148.161C98.2447 148.24 98.388 148.279 98.5331 148.274C98.6183 148.278 98.7035 148.265 98.7829 148.233C98.8623 148.202 98.934 148.154 98.9932 148.093C99.0524 148.031 99.0977 147.958 99.126 147.877C99.1542 147.797 99.1648 147.711 99.157 147.626C99.0835 147.693 98.9973 147.746 98.9035 147.779C98.8096 147.813 98.7099 147.828 98.6103 147.822C98.5139 147.831 98.4166 147.82 98.3247 147.79C98.2327 147.759 98.1481 147.71 98.076 147.645C98.004 147.581 97.9462 147.502 97.9062 147.413C97.8662 147.325 97.845 147.23 97.8438 147.133C97.8473 147.028 97.8723 146.926 97.9169 146.831C97.9616 146.737 98.0252 146.653 98.1036 146.584C98.1821 146.515 98.2739 146.462 98.3732 146.43C98.4726 146.398 98.5776 146.386 98.6816 146.396C99.2818 146.426 99.6562 146.788 99.6562 147.501ZM99.0619 147.115C99.0619 146.925 98.9193 146.788 98.6757 146.788C98.6287 146.782 98.5808 146.786 98.5354 146.799C98.49 146.813 98.448 146.836 98.4123 146.867C98.3765 146.899 98.3479 146.937 98.3283 146.98C98.3087 147.024 98.2985 147.07 98.2985 147.118C98.2985 147.165 98.3087 147.212 98.3283 147.256C98.3479 147.299 98.3765 147.337 98.4123 147.368C98.448 147.4 98.49 147.423 98.5354 147.437C98.5808 147.45 98.6287 147.454 98.6757 147.448C98.7251 147.457 98.776 147.456 98.8248 147.444C98.8737 147.431 98.9192 147.409 98.9583 147.377C98.9974 147.345 99.029 147.305 99.051 147.26C99.0731 147.215 99.0849 147.165 99.0857 147.115H99.0619Z" fill="#263238"/>
<path d="M99.8888 147.234C99.9073 147.169 99.9463 147.113 99.9999 147.072C100.053 147.032 100.119 147.01 100.186 147.01C100.253 147.01 100.318 147.032 100.372 147.072C100.426 147.113 100.465 147.169 100.483 147.234C100.496 147.28 100.498 147.328 100.49 147.375C100.481 147.422 100.461 147.467 100.433 147.505C100.404 147.543 100.367 147.574 100.324 147.595C100.281 147.617 100.234 147.628 100.186 147.628C100.138 147.628 100.091 147.617 100.048 147.595C100.005 147.574 99.9681 147.543 99.9393 147.505C99.9105 147.467 99.8909 147.422 99.8822 147.375C99.8734 147.328 99.8757 147.28 99.8888 147.234ZM99.8888 148.369C99.9073 148.304 99.9463 148.248 99.9999 148.207C100.053 148.167 100.119 148.145 100.186 148.145C100.253 148.145 100.318 148.167 100.372 148.207C100.426 148.248 100.465 148.304 100.483 148.369C100.496 148.415 100.498 148.463 100.49 148.51C100.481 148.557 100.461 148.602 100.433 148.64C100.404 148.678 100.367 148.709 100.324 148.73C100.281 148.752 100.234 148.763 100.186 148.763C100.138 148.763 100.091 148.752 100.048 148.73C100.005 148.709 99.9681 148.678 99.9393 148.64C99.9105 148.602 99.8909 148.557 99.8822 148.51C99.8734 148.463 99.8757 148.415 99.8888 148.369Z" fill="#263238"/>
<path d="M100.738 147.549C100.738 146.818 101.142 146.402 101.689 146.402C102.236 146.402 102.64 146.818 102.64 147.549C102.64 148.28 102.236 148.696 101.689 148.696C101.142 148.696 100.738 148.28 100.738 147.549ZM102.123 147.549C102.123 147.044 101.945 146.836 101.689 146.836C101.434 146.836 101.255 147.044 101.255 147.549C101.255 148.054 101.434 148.262 101.689 148.262C101.945 148.262 102.117 148.054 102.117 147.549H102.123Z" fill="#263238"/>
<path d="M102.883 147.549C102.883 146.818 103.287 146.402 103.828 146.402C104.368 146.402 104.778 146.818 104.778 147.549C104.778 148.28 104.374 148.696 103.828 148.696C103.281 148.696 102.883 148.28 102.883 147.549ZM104.261 147.549C104.261 147.044 104.083 146.836 103.828 146.836C103.572 146.836 103.4 147.044 103.4 147.549C103.4 148.054 103.578 148.262 103.828 148.262C104.077 148.262 104.261 148.054 104.261 147.549Z" fill="#263238"/>
<path d="M105.967 147.568H106.864V147.966H105.967V147.568Z" fill="#263238"/>
<path d="M108.898 146.428V148.638H108.387V146.856H107.941V146.428H108.898Z" fill="#263238"/>
<path d="M110.937 148.24V148.656H109.267V148.324L110.117 147.521C110.313 147.331 110.349 147.218 110.349 147.111C110.349 147.004 110.23 146.838 109.998 146.838C109.909 146.834 109.82 146.852 109.739 146.89C109.658 146.929 109.588 146.986 109.534 147.058L109.166 146.814C109.267 146.678 109.4 146.569 109.554 146.498C109.707 146.426 109.876 146.394 110.045 146.404C110.539 146.404 110.866 146.66 110.866 147.058C110.863 147.195 110.829 147.331 110.765 147.452C110.701 147.574 110.609 147.679 110.497 147.759L109.986 148.24H110.937Z" fill="#263238"/>
<path d="M111.133 147.234C111.151 147.169 111.19 147.113 111.244 147.072C111.298 147.032 111.363 147.01 111.43 147.01C111.497 147.01 111.563 147.032 111.616 147.072C111.67 147.113 111.709 147.169 111.727 147.234C111.709 147.298 111.67 147.355 111.616 147.396C111.563 147.436 111.497 147.458 111.43 147.458C111.363 147.458 111.298 147.436 111.244 147.396C111.19 147.355 111.151 147.298 111.133 147.234ZM111.133 148.369C111.151 148.304 111.19 148.248 111.244 148.207C111.298 148.167 111.363 148.145 111.43 148.145C111.497 148.145 111.563 148.167 111.616 148.207C111.67 148.248 111.709 148.304 111.727 148.369C111.74 148.415 111.743 148.463 111.734 148.51C111.725 148.557 111.706 148.602 111.677 148.64C111.648 148.678 111.611 148.709 111.568 148.73C111.525 148.752 111.478 148.763 111.43 148.763C111.382 148.763 111.335 148.752 111.292 148.73C111.249 148.709 111.212 148.678 111.183 148.64C111.155 148.602 111.135 148.557 111.126 148.51C111.118 148.463 111.12 148.415 111.133 148.369Z" fill="#263238"/>
<path d="M111.98 147.549C111.98 146.818 112.385 146.402 112.925 146.402C113.466 146.402 113.876 146.818 113.876 147.549C113.876 148.28 113.472 148.696 112.925 148.696C112.379 148.696 111.98 148.28 111.98 147.549ZM113.359 147.549C113.359 147.044 113.181 146.836 112.925 146.836C112.67 146.836 112.497 147.044 112.497 147.549C112.497 148.054 112.676 148.262 112.925 148.262C113.175 148.262 113.359 148.054 113.359 147.549Z" fill="#263238"/>
<path d="M114.127 147.549C114.127 146.818 114.531 146.402 115.078 146.402C115.624 146.402 116.029 146.818 116.029 147.549C116.029 148.28 115.624 148.696 115.078 148.696C114.531 148.696 114.127 148.28 114.127 147.549ZM115.512 147.549C115.512 147.044 115.333 146.836 115.078 146.836C114.822 146.836 114.644 147.044 114.644 147.549C114.644 148.054 114.822 148.262 115.078 148.262C115.333 148.262 115.512 148.054 115.512 147.549Z" fill="#263238"/>
<path d="M119.232 147.248C119.232 147.741 118.863 148.05 118.269 148.05H117.824V148.644H117.312V146.428H118.269C118.863 146.428 119.232 146.749 119.232 147.248ZM118.715 147.248C118.715 147.004 118.554 146.862 118.24 146.862H117.824V147.616H118.24C118.566 147.616 118.715 147.485 118.715 147.248Z" fill="#263238"/>
<path d="M121.61 148.656V147.331L120.957 148.424H120.725L120.077 147.361V148.656H119.596V146.428H120.018L120.85 147.8L121.664 146.428H122.086V148.638L121.61 148.656Z" fill="#263238"/>
<path d="M152.595 131.47H124.844C124.215 131.471 123.591 131.347 123.01 131.107C122.428 130.867 121.899 130.514 121.454 130.069C121.008 129.624 120.655 129.096 120.414 128.514C120.173 127.933 120.049 127.31 120.049 126.68C120.049 126.051 120.173 125.427 120.414 124.846C120.655 124.264 121.008 123.736 121.454 123.291C121.899 122.847 122.428 122.494 123.01 122.254C123.591 122.013 124.215 121.89 124.844 121.891H152.595C153.866 121.891 155.084 122.395 155.982 123.293C156.88 124.192 157.385 125.41 157.385 126.68C157.385 127.95 156.88 129.169 155.982 130.067C155.084 130.965 153.866 131.47 152.595 131.47Z" fill="#5E53FA"/>
<path d="M131.832 127.426L132.01 127.039C132.227 127.188 132.484 127.269 132.747 127.271C133.056 127.271 133.181 127.17 133.181 127.033C133.181 126.611 131.88 126.903 131.88 126.065C131.88 125.684 132.189 125.369 132.824 125.369C133.097 125.364 133.366 125.431 133.603 125.566L133.442 125.964C133.262 125.856 133.058 125.795 132.848 125.785C132.545 125.785 132.426 125.898 132.426 126.041C132.426 126.457 133.728 126.172 133.728 126.992C133.728 127.366 133.419 127.687 132.777 127.687C132.442 127.701 132.112 127.609 131.832 127.426Z" fill="white"/>
<path d="M135.784 127.205V127.621H134.055V125.381H135.748V125.797H134.56V126.278H135.6V126.682H134.56V127.205H135.784Z" fill="white"/>
<path d="M137.673 127.14H136.633L136.437 127.621H135.902L136.901 125.381H137.418L138.416 127.621H137.875L137.673 127.14ZM137.513 126.742L137.156 125.886L136.8 126.742H137.513Z" fill="white"/>
<path d="M140.081 127.621L139.647 126.997H139.171V127.621H138.648V125.381H139.623C140.217 125.381 140.592 125.69 140.592 126.189C140.598 126.34 140.558 126.489 140.476 126.616C140.394 126.743 140.274 126.841 140.134 126.896L140.633 127.621H140.081ZM139.593 125.803H139.171V126.581H139.593C139.908 126.581 140.069 126.433 140.069 126.189C140.069 125.945 139.908 125.803 139.593 125.803Z" fill="white"/>
<path d="M140.863 126.498C140.877 126.257 140.962 126.025 141.107 125.832C141.252 125.639 141.451 125.492 141.678 125.411C141.906 125.33 142.152 125.318 142.386 125.376C142.621 125.434 142.833 125.559 142.997 125.737L142.664 126.046C142.597 125.962 142.513 125.894 142.416 125.847C142.319 125.801 142.213 125.778 142.105 125.779C141.915 125.779 141.732 125.855 141.597 125.989C141.462 126.124 141.386 126.307 141.386 126.498C141.386 126.689 141.462 126.871 141.597 127.006C141.732 127.141 141.915 127.217 142.105 127.217C142.213 127.218 142.319 127.195 142.416 127.148C142.513 127.102 142.597 127.034 142.664 126.949L142.997 127.258C142.833 127.436 142.621 127.562 142.386 127.62C142.152 127.678 141.906 127.665 141.678 127.584C141.451 127.503 141.252 127.357 141.107 127.164C140.962 126.971 140.877 126.739 140.863 126.498Z" fill="white"/>
<path d="M145.404 125.381V127.621H144.869V126.7H143.847V127.621H143.33V125.381H143.847V126.237H144.869V125.357L145.404 125.381Z" fill="white"/>
<path d="M144.87 156.542V157.136H142.558V156.673L143.747 155.561C144.02 155.3 144.068 155.145 144.068 154.997C144.068 154.848 143.901 154.616 143.575 154.616C143.453 154.612 143.332 154.637 143.222 154.69C143.112 154.743 143.017 154.822 142.945 154.919L142.428 154.593C142.562 154.404 142.741 154.252 142.948 154.148C143.155 154.044 143.385 153.993 143.616 153.998C144.3 153.998 144.751 154.349 144.751 154.902C144.747 155.092 144.699 155.278 144.61 155.446C144.521 155.614 144.395 155.76 144.24 155.87L143.539 156.542H144.87Z" fill="white"/>
<path d="M145.137 155.598C145.137 154.588 145.695 154.018 146.444 154.018C147.193 154.018 147.757 154.612 147.757 155.598C147.757 156.585 147.205 157.179 146.444 157.179C145.683 157.179 145.137 156.608 145.137 155.598ZM147.044 155.598C147.044 154.903 146.801 154.618 146.45 154.618C146.099 154.618 145.856 154.903 145.856 155.598C145.856 156.294 146.105 156.585 146.45 156.585C146.795 156.585 147.044 156.294 147.044 155.598Z" fill="white"/>
<path d="M150.949 156.214L151.4 156.636C151.245 156.816 151.051 156.958 150.833 157.052C150.614 157.146 150.378 157.188 150.14 157.177C149.793 157.194 149.449 157.096 149.162 156.899C148.875 156.701 148.662 156.415 148.554 156.083H148.061V155.715H148.488C148.485 155.675 148.485 155.636 148.488 155.596C148.486 155.557 148.486 155.517 148.488 155.477H148.061V155.115H148.554C148.661 154.783 148.875 154.496 149.162 154.297C149.448 154.099 149.792 154 150.14 154.016C150.378 154.004 150.614 154.047 150.833 154.14C151.051 154.234 151.245 154.376 151.4 154.556L150.949 154.978C150.855 154.864 150.737 154.772 150.604 154.709C150.47 154.646 150.324 154.614 150.176 154.616C150 154.61 149.826 154.653 149.674 154.742C149.521 154.83 149.397 154.959 149.314 155.115H150.42V155.477H149.231C149.228 155.517 149.228 155.557 149.231 155.596C149.228 155.636 149.228 155.675 149.231 155.715H150.42V156.083H149.314C149.398 156.238 149.523 156.365 149.675 156.452C149.827 156.539 150.001 156.583 150.176 156.577C150.324 156.578 150.47 156.546 150.604 156.483C150.737 156.421 150.855 156.329 150.949 156.214Z" fill="white"/>
<path d="M120.394 99.7205L119.918 99.0431H119.229V99.7146H118.914V97.498H119.776C120.37 97.498 120.703 97.7892 120.703 98.2706C120.71 98.4248 120.666 98.5771 120.578 98.7039C120.49 98.8307 120.363 98.9248 120.215 98.9718L120.738 99.7146L120.394 99.7205ZM120.394 98.2765C120.394 97.9616 120.186 97.7833 119.799 97.7833H119.259V98.7757H119.799C120.174 98.7757 120.382 98.5974 120.382 98.3062L120.394 98.2765Z" fill="black"/>
<path d="M122.819 99.4471V99.7204H121.215V97.5039H122.778V97.7832H121.53V98.4606H122.641V98.728H121.53V99.4471H122.819Z" fill="black"/>
<path d="M123.774 97.7832H123.014V97.5039H124.844V97.7832H124.071V99.7204H123.762L123.774 97.7832Z" fill="black"/>
<path d="M125.128 98.7637V97.5039H125.443V98.7518C125.443 99.245 125.669 99.4649 126.067 99.4649C126.465 99.4649 126.697 99.245 126.697 98.7518V97.5039H127V98.7637C127.01 98.8929 126.994 99.0228 126.951 99.1453C126.909 99.2677 126.842 99.3801 126.754 99.4753C126.666 99.5705 126.559 99.6465 126.44 99.6985C126.322 99.7504 126.193 99.7772 126.064 99.7772C125.934 99.7772 125.806 99.7504 125.687 99.6985C125.569 99.6465 125.462 99.5705 125.374 99.4753C125.286 99.3801 125.219 99.2677 125.177 99.1453C125.134 99.0228 125.118 98.8929 125.128 98.7637Z" fill="black"/>
<path d="M129.134 99.7205L128.653 99.0431H127.969V99.7146H127.637V97.498H128.498C129.093 97.498 129.419 97.7892 129.419 98.2706C129.427 98.4248 129.383 98.5771 129.295 98.7039C129.207 98.8307 129.079 98.9248 128.932 98.9718L129.461 99.7146L129.134 99.7205ZM129.134 98.2765C129.134 97.9616 128.92 97.7833 128.54 97.7833H128.005V98.7757H128.54C128.908 98.7757 129.122 98.5974 129.122 98.3062L129.134 98.2765Z" fill="black"/>
<path d="M131.857 97.5039V99.7204H131.601L130.27 98.0684V99.7204H129.955V97.5039H130.211L131.542 99.1559V97.5039H131.857Z" fill="black"/>
<path d="M71.4816 121.586H70.2931L70.0495 122.138H69.7227L70.7269 119.922H71.0419L72.0461 122.138H71.7134L71.4816 121.586ZM71.3747 121.33L70.8933 120.243L70.4179 121.33H71.3747Z" fill="#263238"/>
<path d="M72.3711 119.925H73.3041C73.4564 119.914 73.6094 119.934 73.7536 119.985C73.8977 120.035 74.0299 120.115 74.1418 120.219C74.2537 120.323 74.3429 120.449 74.4039 120.589C74.465 120.729 74.4965 120.88 74.4965 121.033C74.4965 121.186 74.465 121.337 74.4039 121.477C74.3429 121.617 74.2537 121.743 74.1418 121.847C74.0299 121.951 73.8977 122.031 73.7536 122.082C73.6094 122.132 73.4564 122.153 73.3041 122.141H72.3711V119.925ZM73.2862 121.862C73.5069 121.862 73.7185 121.774 73.8745 121.618C74.0305 121.462 74.1182 121.251 74.1182 121.03C74.1182 120.809 74.0305 120.598 73.8745 120.442C73.7185 120.286 73.5069 120.198 73.2862 120.198H72.692V121.862H73.2862Z" fill="#263238"/>
<path d="M74.9809 121.182V119.922H75.3018V121.17C75.3018 121.657 75.5217 121.883 75.9257 121.883C76.3298 121.883 76.52 121.657 76.52 121.17V119.922H76.829V121.182C76.829 121.431 76.7301 121.669 76.554 121.846C76.3779 122.022 76.1391 122.121 75.8901 122.121C75.6411 122.121 75.4022 122.022 75.2262 121.846C75.0501 121.669 74.9512 121.431 74.9512 121.182H74.9809Z" fill="#263238"/>
<path d="M77.508 119.922H77.8229V121.859H79.0114V122.138H77.4961L77.508 119.922Z" fill="#263238"/>
<path d="M79.616 120.195H78.8613V119.922H80.6916V120.195H79.931V122.138H79.616V120.195Z" fill="#263238"/>
<path d="M80.8047 121.886L80.9235 121.642C81.1299 121.81 81.3885 121.9 81.6544 121.897C82.0348 121.897 82.2012 121.749 82.2012 121.553C82.2012 121.012 80.8582 121.357 80.8582 120.531C80.8582 120.192 81.1256 119.901 81.7079 119.901C81.9598 119.894 82.208 119.962 82.421 120.097L82.3141 120.347C82.1353 120.236 81.9302 120.174 81.7198 120.168C81.3455 120.168 81.1791 120.329 81.1791 120.519C81.1791 121.06 82.522 120.721 82.522 121.535C82.522 121.874 82.2487 122.165 81.6663 122.165C81.3551 122.177 81.0497 122.078 80.8047 121.886Z" fill="#263238"/>
<path d="M82.3202 131.227C82.4674 131.197 82.6162 131.175 82.7658 131.161C83.1876 131.093 83.5916 130.941 83.9543 130.716C84.5301 130.362 84.9825 129.839 85.2498 129.218C85.4216 128.81 85.5076 128.371 85.5025 127.929C85.4974 127.486 85.4012 127.049 85.2201 126.645C84.9992 126.161 84.6605 125.739 84.2349 125.42C83.8093 125.1 83.3104 124.892 82.7837 124.815C82.2251 124.744 81.5952 124.815 80.9594 124.785H79.0102H70.3224C69.6237 124.782 68.944 125.013 68.3912 125.441C67.8384 125.868 67.4441 126.468 67.2708 127.144C67.0975 127.821 67.1551 128.537 67.4344 129.177C67.7138 129.818 68.199 130.347 68.8131 130.68C69.0911 130.831 69.3893 130.941 69.6985 131.007C70.0067 131.059 70.3191 131.081 70.6315 131.072H72.4736H75.7776L80.5612 131.126H81.8626C82.0138 131.119 82.1652 131.129 82.3142 131.155C82.164 131.168 82.0129 131.168 81.8626 131.155L80.5612 131.185L75.7776 131.233H72.4736H70.6315C70.3013 131.243 69.971 131.221 69.645 131.167C69.3072 131.097 68.9811 130.979 68.6764 130.817C68.0455 130.474 67.5383 129.942 67.2264 129.295C66.9726 128.771 66.8561 128.192 66.888 127.61C66.9198 127.029 67.0989 126.465 67.4084 125.972C67.718 125.479 68.1478 125.072 68.6576 124.791C69.1673 124.51 69.7402 124.362 70.3224 124.363H79.0102H80.9594C81.6011 124.363 82.1954 124.363 82.8193 124.411C83.3355 124.487 83.827 124.682 84.2552 124.981C84.6835 125.279 85.0369 125.672 85.2879 126.13C85.5388 126.587 85.6804 127.097 85.7017 127.618C85.7229 128.139 85.6231 128.659 85.4102 129.135C85.1199 129.782 84.6307 130.319 84.0137 130.668C83.6354 130.895 83.2109 131.033 82.7718 131.072C82.6277 131.141 82.4762 131.193 82.3202 131.227Z" fill="white"/>
<path d="M77.1262 128.797V129.308H75.0701V128.898L76.1219 127.906C76.3596 127.68 76.4012 127.538 76.4012 127.407C76.4012 127.276 76.2526 127.068 75.9674 127.068C75.8581 127.064 75.7494 127.087 75.6509 127.134C75.5525 127.182 75.4673 127.253 75.4029 127.342L74.9453 127.044C75.0694 126.877 75.2333 126.743 75.4221 126.655C75.6109 126.567 75.8188 126.527 76.0268 126.539C76.6211 126.539 77.0371 126.848 77.0371 127.342C77.0346 127.511 76.9918 127.678 76.9122 127.828C76.8327 127.977 76.7186 128.106 76.5795 128.203L75.9852 128.797H77.1262Z" fill="#263238"/>
<path d="M81.2817 127.002H80.6875V129.094H81.2817V127.002Z" fill="#263238"/>
<path d="M82.0292 127.75H79.9375V128.344H82.0292V127.75Z" fill="#263238"/>
<path d="M92.926 121.03C92.924 120.876 92.9539 120.723 93.0137 120.581C93.0735 120.44 93.162 120.312 93.2736 120.206C93.3852 120.1 93.5175 120.018 93.6622 119.965C93.8069 119.913 93.9608 119.891 94.1144 119.901C94.2717 119.893 94.4287 119.92 94.5744 119.98C94.7202 120.039 94.8512 120.13 94.9583 120.245L94.7503 120.441C94.6709 120.356 94.5741 120.288 94.4665 120.243C94.3589 120.198 94.2429 120.177 94.1263 120.18C94.0084 120.17 93.8896 120.185 93.7776 120.223C93.6657 120.262 93.5629 120.323 93.4757 120.403C93.3886 120.483 93.3191 120.58 93.2715 120.689C93.2239 120.797 93.1994 120.914 93.1994 121.033C93.1994 121.151 93.2239 121.268 93.2715 121.377C93.3191 121.485 93.3886 121.582 93.4757 121.663C93.5629 121.743 93.6657 121.804 93.7776 121.842C93.8896 121.881 94.0084 121.895 94.1263 121.885C94.2433 121.888 94.3595 121.865 94.4671 121.819C94.5746 121.773 94.6712 121.704 94.7503 121.618L94.9583 121.814C94.8515 121.93 94.7207 122.022 94.575 122.082C94.4293 122.143 94.2721 122.171 94.1144 122.165C93.9603 122.175 93.8059 122.152 93.6607 122.1C93.5156 122.047 93.3831 121.964 93.2714 121.858C93.1597 121.751 93.0714 121.623 93.0119 121.48C92.9525 121.337 92.9232 121.184 92.926 121.03Z" fill="#263238"/>
<path d="M97.3313 119.922V122.138H97.0104V121.152H95.7388V122.138H95.4238V119.922H95.7388V120.885H97.0104V119.934L97.3313 119.922Z" fill="#263238"/>
<path d="M97.9609 119.922H98.2818V122.138H97.9609V119.922Z" fill="#263238"/>
<path d="M98.9416 119.922H99.2625V121.859H100.451V122.138H98.9297L98.9416 119.922Z" fill="#263238"/>
<path d="M100.824 119.925H101.757C101.91 119.914 102.063 119.934 102.207 119.985C102.351 120.035 102.483 120.115 102.595 120.219C102.707 120.323 102.796 120.449 102.857 120.589C102.918 120.729 102.95 120.88 102.95 121.033C102.95 121.186 102.918 121.337 102.857 121.477C102.796 121.617 102.707 121.743 102.595 121.847C102.483 121.951 102.351 122.031 102.207 122.082C102.063 122.132 101.91 122.153 101.757 122.141H100.824V119.925ZM101.739 121.862C101.96 121.862 102.172 121.774 102.328 121.618C102.484 121.462 102.571 121.251 102.571 121.03C102.571 120.809 102.484 120.598 102.328 120.442C102.172 120.286 101.96 120.198 101.739 120.198H101.145V121.862H101.739Z" fill="#263238"/>
<path d="M103.978 131.227C104.125 131.197 104.274 131.175 104.424 131.161C104.916 131.086 105.384 130.898 105.791 130.612C106.199 130.326 106.534 129.95 106.772 129.513C107.011 129.075 107.145 128.589 107.164 128.092C107.183 127.595 107.087 127.099 106.884 126.645C106.663 126.16 106.323 125.738 105.896 125.418C105.47 125.099 104.97 124.891 104.442 124.815C103.889 124.744 103.253 124.815 102.623 124.785H100.674H91.9865C91.2878 124.782 90.6081 125.013 90.0553 125.441C89.5025 125.868 89.1082 126.468 88.9349 127.144C88.7615 127.821 88.8191 128.537 89.0985 129.177C89.3779 129.818 89.8631 130.347 90.4771 130.68C90.7548 130.831 91.0531 130.942 91.3625 131.007C91.6707 131.059 91.9831 131.081 92.2955 131.072H94.1317H97.4357L102.225 131.126H103.521C103.674 131.119 103.827 131.129 103.978 131.155C103.826 131.168 103.673 131.168 103.521 131.155L102.225 131.185L97.4357 131.233H94.1317H92.2955C91.9654 131.243 91.635 131.221 91.3091 131.167C90.9712 131.097 90.6451 130.979 90.3404 130.817C89.7096 130.474 89.2023 129.942 88.8905 129.295C88.6366 128.771 88.5202 128.192 88.552 127.61C88.5839 127.029 88.763 126.465 89.0725 125.972C89.3821 125.479 89.8119 125.072 90.3216 124.791C90.8314 124.51 91.4043 124.362 91.9865 124.363H100.674H102.623C103.265 124.363 103.859 124.363 104.483 124.411C105.049 124.498 105.584 124.727 106.038 125.076C106.492 125.425 106.851 125.883 107.08 126.407C107.271 126.837 107.369 127.301 107.369 127.771C107.369 128.241 107.271 128.706 107.08 129.135C106.794 129.783 106.306 130.32 105.69 130.668C105.311 130.893 104.887 131.031 104.448 131.072C104.298 131.143 104.14 131.194 103.978 131.227Z" fill="white"/>
<path d="M96.7363 127.947C96.7363 127.05 97.2355 126.539 97.9248 126.539C98.6141 126.539 99.1133 127.05 99.1133 127.947C99.1133 128.845 98.6201 129.356 97.9248 129.356C97.2295 129.356 96.7363 128.845 96.7363 127.947ZM98.4418 127.947C98.4418 127.353 98.2219 127.074 97.907 127.074C97.592 127.074 97.3781 127.329 97.3781 127.947C97.3781 128.565 97.592 128.821 97.907 128.821C98.2219 128.821 98.4596 128.565 98.4596 127.947H98.4418Z" fill="#263238"/>
<path d="M102.942 127.002H102.348V129.094H102.942V127.002Z" fill="#263238"/>
<path d="M103.684 127.75H101.592V128.344H103.684V127.75Z" fill="#263238"/>
<path d="M165.135 136.237C165.135 136.32 141.698 136.391 112.788 136.391C83.8783 136.391 60.4414 136.32 60.4414 136.237C60.4414 136.153 83.8723 136.082 112.788 136.082C141.704 136.082 165.135 136.147 165.135 136.237Z" fill="#E0E0E0"/>
<path d="M93.5451 163.777C93.4619 163.777 93.3906 158.465 93.3906 151.893C93.3906 145.32 93.4619 140.008 93.5451 140.008C93.6283 140.008 93.6996 145.314 93.6996 151.893C93.6996 158.471 93.6283 163.777 93.5451 163.777Z" fill="#263238"/>
<path d="M157.15 167.309H69.5049C66.7203 167.309 64.4629 169.566 64.4629 172.351V186.601C64.4629 189.385 66.7203 191.643 69.5049 191.643H157.15C159.934 191.643 162.192 189.385 162.192 186.601V172.351C162.192 169.566 159.934 167.309 157.15 167.309Z" fill="#FFE9B1"/>
<path d="M101.598 174.659C101.614 174.814 101.597 174.971 101.547 175.119C101.497 175.267 101.415 175.402 101.308 175.515C101.201 175.628 101.07 175.716 100.925 175.774C100.78 175.831 100.624 175.857 100.469 175.848C100.26 175.851 100.055 175.798 99.8743 175.693L100.064 175.319C100.187 175.396 100.33 175.434 100.474 175.426C100.559 175.431 100.644 175.417 100.723 175.386C100.802 175.355 100.873 175.308 100.932 175.247C100.991 175.186 101.037 175.113 101.065 175.034C101.094 174.954 101.105 174.869 101.098 174.784C101.025 174.852 100.939 174.904 100.845 174.937C100.751 174.971 100.651 174.986 100.552 174.98C100.455 174.989 100.358 174.978 100.266 174.948C100.174 174.917 100.089 174.868 100.017 174.804C99.9454 174.739 99.8876 174.66 99.8476 174.572C99.8077 174.483 99.7864 174.388 99.7852 174.291C99.7887 174.187 99.8137 174.084 99.8583 173.99C99.903 173.895 99.9666 173.811 100.045 173.742C100.124 173.673 100.215 173.62 100.315 173.588C100.414 173.556 100.519 173.544 100.623 173.554C101.223 173.56 101.598 173.946 101.598 174.659ZM101.003 174.273C101.003 174.083 100.861 173.946 100.617 173.946C100.57 173.94 100.522 173.944 100.477 173.958C100.431 173.971 100.389 173.994 100.354 174.026C100.318 174.057 100.289 174.095 100.27 174.139C100.25 174.182 100.24 174.229 100.24 174.276C100.24 174.324 100.25 174.37 100.27 174.414C100.289 174.457 100.318 174.495 100.354 174.527C100.389 174.558 100.431 174.581 100.477 174.595C100.522 174.608 100.57 174.612 100.617 174.606C100.667 174.616 100.717 174.614 100.766 174.602C100.815 174.59 100.861 174.567 100.9 174.535C100.939 174.503 100.97 174.464 100.992 174.418C101.014 174.373 101.026 174.323 101.027 174.273H101.003Z" fill="#263238"/>
<path d="M101.828 174.367C101.847 174.302 101.886 174.245 101.939 174.205C101.993 174.164 102.058 174.143 102.125 174.143C102.193 174.143 102.258 174.164 102.311 174.205C102.365 174.245 102.404 174.302 102.423 174.367C102.436 174.413 102.438 174.461 102.429 174.508C102.42 174.555 102.401 174.599 102.372 174.638C102.343 174.676 102.306 174.707 102.263 174.728C102.22 174.749 102.173 174.761 102.125 174.761C102.078 174.761 102.03 174.749 101.988 174.728C101.945 174.707 101.908 174.676 101.879 174.638C101.85 174.599 101.83 174.555 101.822 174.508C101.813 174.461 101.815 174.413 101.828 174.367ZM101.828 175.502C101.847 175.437 101.886 175.38 101.939 175.34C101.993 175.299 102.058 175.278 102.125 175.278C102.193 175.278 102.258 175.299 102.311 175.34C102.365 175.38 102.404 175.437 102.423 175.502C102.436 175.548 102.438 175.596 102.429 175.643C102.42 175.69 102.401 175.734 102.372 175.773C102.343 175.811 102.306 175.842 102.263 175.863C102.22 175.884 102.173 175.896 102.125 175.896C102.078 175.896 102.03 175.884 101.988 175.863C101.945 175.842 101.908 175.811 101.879 175.773C101.85 175.734 101.83 175.69 101.822 175.643C101.813 175.596 101.815 175.548 101.828 175.502Z" fill="#263238"/>
<path d="M102.68 174.707C102.68 173.977 103.084 173.561 103.63 173.561C104.177 173.561 104.581 173.977 104.581 174.707C104.581 175.438 104.177 175.854 103.63 175.854C103.084 175.854 102.68 175.438 102.68 174.707ZM104.064 174.707C104.064 174.202 103.886 173.994 103.63 173.994C103.375 173.994 103.197 174.202 103.197 174.707C103.197 175.213 103.375 175.421 103.63 175.421C103.886 175.421 104.058 175.213 104.058 174.707H104.064Z" fill="#263238"/>
<path d="M104.824 174.707C104.824 173.977 105.228 173.561 105.769 173.561C106.31 173.561 106.72 173.977 106.72 174.707C106.72 175.438 106.316 175.854 105.769 175.854C105.222 175.854 104.824 175.438 104.824 174.707ZM106.203 174.707C106.203 174.202 106.025 173.994 105.769 173.994C105.514 173.994 105.341 174.202 105.341 174.707C105.341 175.213 105.519 175.421 105.769 175.421C106.019 175.421 106.203 175.213 106.203 174.707Z" fill="#263238"/>
<path d="M107.906 174.725H108.804V175.123H107.906V174.725Z" fill="#263238"/>
<path d="M110.838 173.602V175.812H110.327V174.029H109.881V173.619L110.838 173.602Z" fill="#263238"/>
<path d="M112.876 175.399V175.815H111.206V175.482L112.056 174.68C112.252 174.489 112.288 174.377 112.288 174.27C112.288 174.163 112.169 173.996 111.937 173.996C111.848 173.992 111.759 174.01 111.678 174.048C111.597 174.087 111.527 174.144 111.474 174.216L111.105 173.972C111.206 173.836 111.339 173.727 111.493 173.656C111.647 173.584 111.816 173.552 111.985 173.562C112.478 173.562 112.805 173.818 112.805 174.216C112.803 174.354 112.768 174.489 112.704 174.611C112.64 174.732 112.549 174.837 112.437 174.917L111.926 175.399H112.876Z" fill="#263238"/>
<path d="M113.07 174.367C113.089 174.302 113.128 174.245 113.182 174.205C113.235 174.164 113.3 174.143 113.368 174.143C113.435 174.143 113.5 174.164 113.554 174.205C113.607 174.245 113.646 174.302 113.665 174.367C113.646 174.431 113.607 174.488 113.554 174.529C113.5 174.569 113.435 174.591 113.368 174.591C113.3 174.591 113.235 174.569 113.182 174.529C113.128 174.488 113.089 174.431 113.07 174.367ZM113.07 175.502C113.089 175.437 113.128 175.38 113.182 175.34C113.235 175.299 113.3 175.278 113.368 175.278C113.435 175.278 113.5 175.299 113.554 175.34C113.607 175.38 113.646 175.437 113.665 175.502C113.678 175.548 113.68 175.596 113.671 175.643C113.663 175.69 113.643 175.734 113.614 175.773C113.585 175.811 113.548 175.842 113.505 175.863C113.463 175.884 113.415 175.896 113.368 175.896C113.32 175.896 113.273 175.884 113.23 175.863C113.187 175.842 113.15 175.811 113.121 175.773C113.092 175.734 113.073 175.69 113.064 175.643C113.055 175.596 113.057 175.548 113.07 175.502Z" fill="#263238"/>
<path d="M113.922 174.707C113.922 173.977 114.326 173.561 114.867 173.561C115.407 173.561 115.817 173.977 115.817 174.707C115.817 175.438 115.413 175.854 114.867 175.854C114.32 175.854 113.922 175.438 113.922 174.707ZM115.3 174.707C115.3 174.202 115.122 173.994 114.867 173.994C114.611 173.994 114.439 174.202 114.439 174.707C114.439 175.213 114.617 175.421 114.867 175.421C115.116 175.421 115.3 175.213 115.3 174.707Z" fill="#263238"/>
<path d="M116.066 174.707C116.066 173.977 116.47 173.561 117.017 173.561C117.564 173.561 117.968 173.977 117.968 174.707C117.968 175.438 117.564 175.854 117.017 175.854C116.47 175.854 116.066 175.438 116.066 174.707ZM117.451 174.707C117.451 174.202 117.273 173.994 117.017 173.994C116.762 173.994 116.583 174.202 116.583 174.707C116.583 175.213 116.762 175.421 117.017 175.421C117.273 175.421 117.451 175.213 117.451 174.707Z" fill="#263238"/>
<path d="M121.173 174.404C121.173 174.897 120.805 175.206 120.211 175.206H119.765V175.8H119.254V173.59H120.211C120.805 173.602 121.173 173.905 121.173 174.404ZM120.656 174.404C120.656 174.16 120.496 174.018 120.181 174.018H119.765V174.784H120.181C120.508 174.784 120.656 174.642 120.656 174.404Z" fill="#263238"/>
<path d="M123.55 175.812V174.487L122.884 175.557H122.652L122.005 174.487V175.789H121.523V173.578H121.945L122.777 174.951L123.591 173.578H124.013V175.789L123.55 175.812Z" fill="#263238"/>
<path d="M87.9903 175.968C86.9682 174.643 84.0921 175.29 82.0954 176.229C82.0954 176.229 80.7227 176.794 80.2057 177.091L75.6895 176.283C75.324 176.218 74.9477 176.264 74.608 176.413L74.2277 176.586C74.1848 176.606 74.1486 176.638 74.1232 176.678C74.0979 176.718 74.0844 176.764 74.0844 176.812C74.0844 176.859 74.0979 176.905 74.1232 176.945C74.1486 176.985 74.1848 177.017 74.2277 177.037L77.496 178.642V178.683L74.0851 180.68L74.0316 180.71C73.3875 181.073 72.6311 181.183 71.9101 181.019L70.1274 180.609C70.0298 180.578 69.9244 180.581 69.8291 180.619C69.7338 180.657 69.6543 180.726 69.6041 180.815C69.5539 180.904 69.536 181.008 69.5533 181.109C69.5707 181.21 69.6224 181.302 69.6996 181.369L71.6606 183.188C71.8098 183.328 71.9959 183.422 72.1969 183.46C72.3979 183.498 72.6056 183.478 72.7956 183.402L73.782 183.01L78.7558 180.953L78.0486 183.687C78.0422 183.714 78.0421 183.741 78.0481 183.768C78.0542 183.795 78.0663 183.82 78.0835 183.841C78.1008 183.862 78.1227 183.879 78.1475 183.891C78.1724 183.902 78.1996 183.908 78.2269 183.907H78.4527C78.6071 183.909 78.7596 183.872 78.8958 183.8C79.032 183.727 79.1474 183.621 79.2312 183.491L81.3823 179.86L87.2534 177.436C88.0378 177.132 88.3468 176.491 87.9903 175.968Z" fill="#455A64"/>
<path d="M87.9878 147.629C86.9657 146.297 84.0896 146.951 82.0929 147.89C82.0929 147.89 80.7202 148.449 80.2033 148.752L75.687 147.949C75.3215 147.885 74.9452 147.931 74.6055 148.08L74.2252 148.252C74.1823 148.273 74.1461 148.305 74.1208 148.345C74.0954 148.385 74.0819 148.431 74.0819 148.478C74.0819 148.526 74.0954 148.572 74.1208 148.612C74.1461 148.652 74.1823 148.684 74.2252 148.704L77.4935 150.309V150.35L74.0826 152.347H74.0291C73.3854 152.712 72.6277 152.82 71.9077 152.65L70.1249 152.246C70.0378 152.219 69.9447 152.219 69.8575 152.246C69.7844 152.271 69.719 152.314 69.6676 152.371C69.6163 152.429 69.5808 152.499 69.5646 152.575C69.5484 152.65 69.5521 152.728 69.5753 152.802C69.5986 152.876 69.6405 152.942 69.6971 152.995L71.6581 154.819C71.8072 154.959 71.9936 155.053 72.1949 155.09C72.3962 155.127 72.6039 155.105 72.7931 155.027L73.7795 154.641L78.7533 152.585L78.0462 155.318C78.0398 155.345 78.0396 155.372 78.0456 155.399C78.0517 155.426 78.0638 155.451 78.081 155.472C78.0983 155.493 78.1202 155.51 78.145 155.522C78.1699 155.533 78.1971 155.539 78.2244 155.538H78.4503C78.6047 155.54 78.7571 155.503 78.8933 155.431C79.0295 155.358 79.145 155.252 79.2287 155.122L81.3799 151.491L87.251 149.061C88.0354 148.817 88.3444 148.146 87.9878 147.629Z" fill="#5E53FA"/>
<rect x="73.0664" y="157.828" width="11.0286" height="2.42583" rx="1.21291" fill="#FFCE50"/>
<path d="M155.382 175.172C155.382 175.255 151.258 175.327 146.172 175.327C141.085 175.327 136.961 175.255 136.961 175.172C136.961 175.089 141.085 175.018 146.172 175.018C151.258 175.018 155.382 175.083 155.382 175.172Z" fill="#263238"/>
<path d="M93.5451 191.518C93.4619 191.518 93.3906 186.205 93.3906 179.633C93.3906 173.061 93.4619 167.748 93.5451 167.748C93.6283 167.748 93.6996 173.055 93.6996 179.633C93.6996 186.211 93.6283 191.518 93.5451 191.518Z" fill="#263238"/>
<path d="M120.027 44.2718C119.196 43.1961 116.862 43.7212 115.235 44.4859C115.235 44.4859 114.124 44.9396 113.706 45.1842L110.036 44.5266C109.739 44.4741 109.433 44.5132 109.159 44.6388L108.848 44.7764C108.813 44.7931 108.784 44.8192 108.764 44.8517C108.744 44.8841 108.733 44.9216 108.733 44.9599C108.733 44.9983 108.744 45.0358 108.764 45.0682C108.784 45.1007 108.813 45.1268 108.848 45.1435L111.509 46.4485V46.4791C110.015 47.3559 108.731 48.1001 108.731 48.1001H108.69C108.166 48.3978 107.549 48.487 106.962 48.3499L105.54 48.0186C105.468 47.9983 105.392 47.9983 105.32 48.0186C105.261 48.0399 105.209 48.0759 105.168 48.1232C105.127 48.1705 105.099 48.2276 105.086 48.2889C105.073 48.3502 105.076 48.4138 105.095 48.4735C105.114 48.5333 105.147 48.5873 105.193 48.6303L106.783 50.1087C106.906 50.2219 107.058 50.2983 107.222 50.329C107.386 50.3596 107.556 50.3433 107.711 50.282L108.512 49.9659L112.554 48.2939L111.983 50.5165C111.978 50.5375 111.977 50.5595 111.981 50.5808C111.986 50.6021 111.995 50.6221 112.008 50.6393C112.022 50.6566 112.039 50.6705 112.058 50.6801C112.078 50.6898 112.099 50.6948 112.121 50.6949H112.309C112.435 50.6964 112.559 50.6659 112.67 50.6061C112.78 50.5463 112.874 50.4593 112.941 50.3533L114.69 47.4018L119.456 45.434C120.068 45.2199 120.318 44.7 120.027 44.2718Z" fill="#263238"/>
<path d="M100.646 53.8628V55.2117H103.022V56.1625H100.646V58.0225H99.457V52.918H103.314V53.8628H100.646Z" fill="#263238"/>
<path d="M104.129 52.918H105.317V57.0777H107.879V58.0403H104.141L104.129 52.918Z" fill="#263238"/>
<path d="M108.531 52.918H109.72V58.0225H108.531V52.918Z" fill="#263238"/>
<path d="M114.369 55.3894H115.45V57.4573C114.843 57.8838 114.118 58.1102 113.376 58.1051C113.015 58.1293 112.652 58.0791 112.311 57.9575C111.97 57.8359 111.657 57.6455 111.393 57.3981C111.128 57.1507 110.917 56.8517 110.773 56.5194C110.629 56.1872 110.555 55.8288 110.555 55.4666C110.555 55.1044 110.629 54.7461 110.773 54.4139C110.917 54.0816 111.128 53.7825 111.393 53.5352C111.657 53.2878 111.97 53.0974 112.311 52.9758C112.652 52.8542 113.015 52.8039 113.376 52.8282C113.776 52.8103 114.175 52.8802 114.544 53.0332C114.914 53.1862 115.245 53.4185 115.516 53.7136L114.755 54.4089C114.591 54.2207 114.388 54.0703 114.16 53.9677C113.932 53.8652 113.685 53.8129 113.436 53.8146C113.002 53.8146 112.587 53.9868 112.28 54.2933C111.974 54.5997 111.802 55.0154 111.802 55.4488C111.802 55.8822 111.974 56.2979 112.28 56.6043C112.587 56.9108 113.002 57.083 113.436 57.083C113.755 57.0893 114.07 57.0136 114.351 56.8631L114.369 55.3894Z" fill="#263238"/>
<path d="M121.22 52.918V58.0225H120.031V55.9248H117.708V58.0225H116.52V52.918H117.708V54.9265H120.031V52.918H121.22Z" fill="#263238"/>
<path d="M123.478 53.8806H121.844V52.918H126.289V53.8806H124.666V58.0403H123.478V53.8806Z" fill="#263238"/>
<path d="M105.341 61.9973C105.341 62.4727 104.991 62.7461 104.289 62.7461H103.006V59.9531H104.194C104.818 59.9531 105.175 60.2146 105.175 60.6662C105.18 60.8039 105.142 60.9398 105.065 61.0542C104.988 61.1686 104.877 61.2554 104.747 61.3021C104.916 61.3201 105.072 61.4021 105.182 61.5314C105.293 61.6607 105.35 61.8274 105.341 61.9973ZM103.303 60.2146V61.2248H104.194C104.64 61.2248 104.896 61.0525 104.896 60.7197C104.896 60.3869 104.64 60.2146 104.194 60.2146H103.303ZM105.044 61.9973C105.044 61.6348 104.777 61.4744 104.289 61.4744H103.303V62.5262H104.289C104.777 62.5024 105.056 62.342 105.056 61.9735L105.044 61.9973Z" fill="#263238"/>
<path d="M105.768 61.3512C105.759 61.0591 105.837 60.7708 105.992 60.5233C106.148 60.2757 106.373 60.0802 106.641 59.9618C106.908 59.8434 107.204 59.8074 107.492 59.8586C107.78 59.9097 108.046 60.0456 108.256 60.2489C108.466 60.4522 108.611 60.7135 108.671 60.9994C108.732 61.2854 108.706 61.5829 108.596 61.8539C108.487 62.1249 108.299 62.3569 108.056 62.5204C107.814 62.6839 107.528 62.7713 107.236 62.7715C107.045 62.7796 106.855 62.7487 106.676 62.6808C106.498 62.6129 106.335 62.5094 106.197 62.3765C106.06 62.2436 105.951 62.0842 105.877 61.908C105.804 61.7317 105.767 61.5423 105.768 61.3512ZM108.407 61.3512C108.414 61.1148 108.35 60.8816 108.224 60.6815C108.098 60.4815 107.915 60.3236 107.698 60.2281C107.482 60.1327 107.242 60.104 107.009 60.1458C106.776 60.1875 106.561 60.2978 106.391 60.4625C106.222 60.6272 106.105 60.8388 106.056 61.0703C106.007 61.3018 106.028 61.5425 106.117 61.7618C106.206 61.981 106.358 62.1688 106.554 62.301C106.751 62.4333 106.982 62.504 107.218 62.5041C107.374 62.5123 107.529 62.4884 107.674 62.4338C107.82 62.3793 107.953 62.2952 108.064 62.187C108.176 62.0788 108.264 61.9487 108.323 61.8049C108.382 61.6611 108.41 61.5066 108.407 61.3512Z" fill="#263238"/>
<path d="M109.12 61.3512C109.11 61.0591 109.188 60.7708 109.344 60.5233C109.499 60.2757 109.725 60.0802 109.992 59.9618C110.259 59.8434 110.556 59.8074 110.844 59.8586C111.132 59.9097 111.398 60.0456 111.608 60.2489C111.818 60.4522 111.962 60.7135 112.023 60.9994C112.083 61.2854 112.057 61.5829 111.948 61.8539C111.838 62.1249 111.65 62.3569 111.408 62.5204C111.166 62.6839 110.88 62.7713 110.588 62.7715C110.397 62.7796 110.206 62.7487 110.028 62.6808C109.849 62.6129 109.686 62.5094 109.549 62.3765C109.412 62.2436 109.303 62.0842 109.229 61.908C109.155 61.7317 109.118 61.5423 109.12 61.3512ZM111.758 61.3512C111.765 61.1148 111.702 60.8816 111.576 60.6815C111.449 60.4815 111.266 60.3236 111.05 60.2281C110.833 60.1327 110.593 60.104 110.361 60.1458C110.128 60.1875 109.913 60.2978 109.743 60.4625C109.573 60.6272 109.456 60.8388 109.408 61.0703C109.359 61.3018 109.38 61.5425 109.469 61.7618C109.558 61.981 109.71 62.1688 109.906 62.301C110.102 62.4333 110.333 62.504 110.57 62.5041C110.725 62.5123 110.88 62.4884 111.026 62.4338C111.171 62.3793 111.304 62.2952 111.416 62.187C111.527 62.0788 111.615 61.9487 111.674 61.8049C111.733 61.6611 111.762 61.5066 111.758 61.3512Z" fill="#263238"/>
<path d="M113.585 61.4638L112.99 62.058V62.7949H112.699V60.002H112.99V61.6896L114.631 60.002H114.969L113.781 61.2617L115.07 62.7949H114.72L113.585 61.4638Z" fill="#263238"/>
<path d="M115.555 59.9531H115.852V62.7461H115.555V59.9531Z" fill="#263238"/>
<path d="M119.097 59.9531V62.7461H118.853L117.071 60.4761V62.7461H116.773V59.9531H117.017L118.8 62.2172V59.9531H119.097Z" fill="#263238"/>
<path d="M121.979 61.3491H122.288V62.4128C122.002 62.6505 121.639 62.7771 121.266 62.7693C121.072 62.7819 120.876 62.7544 120.693 62.6886C120.509 62.6228 120.341 62.52 120.199 62.3866C120.057 62.2532 119.943 62.092 119.866 61.9131C119.788 61.7341 119.748 61.5411 119.748 61.3461C119.748 61.1511 119.788 60.9581 119.866 60.7791C119.943 60.6002 120.057 60.439 120.199 60.3056C120.341 60.1722 120.509 60.0694 120.693 60.0036C120.876 59.9378 121.072 59.9103 121.266 59.9229C121.458 59.9133 121.65 59.9444 121.829 60.014C122.008 60.0836 122.171 60.1903 122.306 60.327L122.122 60.5171C122.012 60.4079 121.881 60.3224 121.737 60.2662C121.593 60.2099 121.439 60.1841 121.284 60.1903C121.125 60.1789 120.966 60.2003 120.816 60.2533C120.666 60.3062 120.528 60.3895 120.412 60.4979C120.295 60.6064 120.202 60.7376 120.139 60.8836C120.075 61.0295 120.042 61.1869 120.042 61.3461C120.042 61.5053 120.075 61.6627 120.139 61.8086C120.202 61.9546 120.295 62.0858 120.412 62.1943C120.528 62.3027 120.666 62.386 120.816 62.4389C120.966 62.4919 121.125 62.5133 121.284 62.5019C121.544 62.5101 121.8 62.4352 122.015 62.288L121.979 61.3491Z" fill="#263238"/>
<path d="M158.537 68.719C158.537 68.7916 138.125 68.8539 112.952 68.8539C87.7794 68.8539 67.3672 68.7916 67.3672 68.719C67.3672 68.6463 87.7742 68.584 112.952 68.584C138.13 68.584 158.537 68.6411 158.537 68.719Z" fill="white"/>
<path d="M107.788 88.5714H69.3648C68.3719 88.5714 67.4197 88.177 66.7176 87.4749C66.0155 86.7728 65.6211 85.8206 65.6211 84.8277C65.6211 83.8348 66.0155 82.8826 66.7176 82.1805C67.4197 81.4784 68.3719 81.084 69.3648 81.084H107.788C108.781 81.084 109.734 81.4784 110.436 82.1805C111.138 82.8826 111.532 83.8348 111.532 84.8277C111.532 85.8206 111.138 86.7728 110.436 87.4749C109.734 88.177 108.781 88.5714 107.788 88.5714Z" fill="#FFE6A5"/>
<path d="M107.788 112.312H69.3648C68.8732 112.312 68.3864 112.215 67.9322 112.027C67.4779 111.839 67.0652 111.563 66.7176 111.215C66.37 110.868 66.0942 110.455 65.9061 110.001C65.7179 109.546 65.6211 109.06 65.6211 108.568C65.6211 107.575 66.0155 106.623 66.7176 105.921C67.4197 105.219 68.3719 104.824 69.3648 104.824H107.788C108.781 104.824 109.734 105.219 110.436 105.921C111.138 106.623 111.532 107.575 111.532 108.568C111.532 109.06 111.435 109.546 111.247 110.001C111.059 110.455 110.783 110.868 110.436 111.215C110.088 111.563 109.675 111.839 109.221 112.027C108.767 112.215 108.28 112.312 107.788 112.312Z" fill="#FFE6A5"/>
<path d="M156.34 88.5735H121.101C120.108 88.5735 119.155 88.1793 118.452 87.4774C117.749 86.7755 117.353 85.8233 117.352 84.8298C117.351 84.3369 117.447 83.8487 117.635 83.3931C117.823 82.9374 118.099 82.5234 118.448 82.1746C118.796 81.8257 119.21 81.549 119.665 81.3602C120.12 81.1714 120.608 81.0742 121.101 81.0742H156.34C157.333 81.0742 158.285 81.4686 158.987 82.1707C159.689 82.8728 160.083 83.825 160.083 84.8179C160.085 85.3106 159.989 85.7987 159.802 86.2542C159.614 86.7098 159.339 87.1239 158.991 87.4728C158.643 87.8217 158.23 88.0985 157.775 88.2874C157.32 88.4763 156.832 88.5735 156.34 88.5735Z" fill="#FFE6A5"/>
<path d="M156.34 112.931H121.101C120.107 112.929 119.154 112.534 118.452 111.831C117.749 111.128 117.353 110.175 117.352 109.181C117.353 108.188 117.749 107.236 118.452 106.534C119.155 105.832 120.108 105.437 121.101 105.438H156.34C157.333 105.438 158.285 105.832 158.987 106.534C159.689 107.236 160.083 108.188 160.083 109.181C160.083 110.175 159.689 111.128 158.987 111.831C158.285 112.534 157.333 112.929 156.34 112.931Z" fill="#FFE6A5"/>
</g>
<path d="M202.086 90.6992C201.361 97.4926 199.648 104.838 196.656 112.722" stroke="white" stroke-width="0.84034" stroke-miterlimit="10" stroke-linecap="round" stroke-linejoin="round"/>
<path d="M163.379 21.9766C163.379 21.9766 194.457 36.9956 201.205 70.1872" stroke="white" stroke-width="0.84034" stroke-miterlimit="10" stroke-linecap="round" stroke-linejoin="round"/>
</svg>
