<svg width="200" height="205" viewBox="0 0 200 205" fill="none" xmlns="http://www.w3.org/2000/svg">
<path d="M186.661 120.657C198.724 100.687 204.662 77.5598 192.304 58.071C171.904 25.9018 125.193 8.96776 91.6715 2.86833C77.3299 0.260005 62.3717 -0.622806 47.7888 3.51037C33.1926 7.64355 18.918 17.3144 10.313 32.0414C-3.69354 55.9844 0.0728204 86.7491 7.72616 112.244C14.066 133.391 22.7915 153.656 35.7124 169.827C62.1573 202.92 98.1052 208.604 132.941 179.592C148.475 166.657 172.119 144.721 186.661 120.657Z" fill="#CDCAFF"/>
<mask id="mask0_25_5319" style="mask-type:alpha" maskUnits="userSpaceOnUse" x="0" y="0" width="200" height="199">
<path d="M186.661 120.657C198.724 100.687 204.662 77.5598 192.304 58.071C171.904 25.9018 125.193 8.96776 91.6715 2.86833C77.3299 0.260005 62.3717 -0.622806 47.7888 3.51037C33.1926 7.64355 18.918 17.3144 10.313 32.0414C-3.69354 55.9844 0.0728204 86.7491 7.72616 112.244C14.066 133.391 22.7915 153.656 35.7124 169.827C62.1573 202.92 98.1052 208.604 132.941 179.592C148.475 166.657 172.119 144.721 186.661 120.657Z" fill="#C4C1F8"/>
</mask>
<g mask="url(#mask0_25_5319)">
<path d="M219.877 106.777L218.849 105.014L200.418 115.955C197.775 113.605 187.935 104.941 187.127 104.28C186.246 103.619 164.365 89.1536 160.84 86.8039C167.742 76.5973 168.036 63.8208 168.036 63.1599V63.013V62.8662C167.889 62.2053 163.63 46.2713 157.536 39.4425C155.92 37.6802 155.7 33.4213 156.728 27.4736L172.882 29.7499L217.527 42.6733L218.481 39.2956L173.617 26.4456L157.315 24.0959C159.739 13.9627 164.511 3.75616 165.98 3.02187C169.358 1.5533 190.505 -11.003 191.386 -11.517L190.358 -13.2793C190.211 -13.1324 168.477 -0.282413 165.246 1.18616C162.455 2.36102 157.536 14.5502 155.333 23.8756L152.322 23.435C154.745 13.2285 159.592 2.87502 161.06 2.14073C164.438 0.672157 185.585 -11.8841 186.467 -12.3981L185.439 -14.1604C185.218 -14.0136 163.483 -1.09013 160.253 0.305016C157.462 1.47987 152.469 13.8893 150.34 23.1413L140.06 21.6727L123.612 27.4736L107.09 26.7393L97.3242 20.1307C91.5233 16.1656 84.8413 11.6864 78.1593 7.2073L84.2539 3.02187L109.073 -34.4267L108.118 -42.1367L104.594 -41.6961L105.328 -35.3079L81.6105 0.525299L75.0019 5.15131C59.435 -5.42241 45.043 -15.2618 43.9416 -16.2898C43.9416 -16.2898 44.0885 -16.143 44.1619 -15.9961L41.0779 -14.1604C41.3716 -13.6464 41.6653 -13.2058 68.6136 5.15131C69.8619 5.95902 71.1102 6.84016 72.3585 7.64788L53.781 31.659L32.8539 44.509C30.137 41.939 27.4936 39.5893 25.2173 37.5333C24.1159 36.5053 23.0879 35.5507 22.0599 34.6696L41.5185 17.781L41.5919 17.7076L50.6236 4.41702L43.5745 -1.0167L42.3262 0.598732L47.9068 4.78416L43.6479 11.099L39.4625 5.6653L37.847 6.91359L42.3996 12.8613L40.0499 16.3125L39.3156 16.8999L33.5147 7.2073L31.8993 8.30873L37.847 18.295L20.5913 33.2745C18.9025 31.659 17.6542 30.4842 17.1402 29.8233C13.5422 25.1239 5.90559 11.613 5.75873 11.4662L1.79358 13.7425C2.0873 14.3299 9.72387 27.7673 13.6156 32.6136C14.717 34.0088 17.7276 36.7256 22.2067 40.8376C24.1893 42.5999 26.4656 44.6559 28.8887 46.9322L8.98959 59.1948L5.83216 63.2333C-0.482702 52.9533 -5.03528 45.6839 -5.47585 45.3902L-6.72413 47.0056C-6.79756 46.9322 -6.87099 46.9322 -6.87099 46.9322C-6.28356 47.593 -1.65756 55.0093 4.43701 64.9956L-3.78699 75.4225L-11.0564 78.5799L-10.2487 80.4156L-6.43042 78.8002L-21.4833 97.8916L-18.693 100.094L0.47187 75.7896L8.32873 72.3385L8.7693 72.0448C14.4967 81.4436 20.9585 92.0173 26.4656 100.976L17.287 103.252L-23.0987 131.302L-21.0427 134.239L-6.1367 123.885L4.58387 142.096L10.2379 153.11L-9.80814 156.635C-10.469 154.946 -12.2313 150.613 -14.067 146.281C-19.0601 134.679 -19.7944 134.533 -20.5287 134.386L-20.8959 136.295C-21.1161 136.295 -21.1896 136.148 -21.1896 136.148C-20.1616 137.103 -15.6824 147.236 -11.7907 156.855L-25.375 159.278L-25.0079 161.261L-11.2033 158.837L-9.44099 168.457L1.20616 176.46L-8.41299 212.734L-6.43042 213.248L3.04187 177.415L30.5776 188.429L29.8433 192.321L4.87759 244.969L6.7133 245.85L31.7525 192.982L32.4133 189.237L45.7773 194.524C34.8365 211.486 19.1227 239.242 18.2416 240.857L20.0039 241.885C20.2976 241.371 48.2739 191.807 55.6902 184.17C52.1656 190.632 49.5222 195.919 48.0536 199.811C37.4065 216.773 24.1159 240.343 23.3082 241.812L25.0704 242.84C25.2173 242.546 36.4519 222.647 46.585 206.125C46.4382 208.035 46.2179 210.017 45.9242 211.926C44.8962 220.664 43.9416 228.888 47.2459 233.735C50.9908 239.095 70.5228 260.609 71.3305 261.491L74.7082 258.407C74.4879 258.186 54.5153 236.231 50.9908 231.091C48.641 227.713 49.5222 219.93 50.4033 212.44C50.697 210.017 50.9907 207.594 51.1376 205.171C51.3579 202.234 55.1028 194.597 59.8756 185.859C60.3162 185.345 60.7568 184.905 61.0505 184.611C65.7499 180.425 83.593 164.345 96.4431 151.935C97.1773 153.697 97.6913 155.019 97.8382 155.827C98.3522 158.47 94.8276 173.303 92.0373 185.272C86.163 210.237 83.5931 222.427 85.5022 225.951C86.0896 227.126 87.705 229.696 89.8345 233.221L73.7536 250.329L75.2222 251.725L91.1562 234.909C95.5619 241.959 101.656 251.725 106.943 260.095C105.695 261.491 104.887 262.372 104.667 262.519C104.667 262.519 104.667 262.519 104.74 262.519L105.915 264.207C106.062 264.061 106.87 263.253 108.118 261.931C113.111 269.788 117.076 276.029 117.444 276.69L121.335 274.267C121.189 274.12 116.783 267.145 111.349 258.48C118.472 250.623 131.101 236.378 140.5 225.804L160.913 244.088C154.305 251.798 144.025 263.473 142.85 264.207C142.85 264.207 142.923 264.134 142.997 264.134L143.584 266.117C144.025 265.97 144.539 265.823 154.011 255.102C157.536 251.064 161.06 247.099 162.455 245.41L188.082 268.393L189.404 266.851L174.204 253.267L189.551 238.14L198.435 246.438L200.491 244.235L178.022 223.161L177.949 223.087L164.658 213.395L171.781 206.199L196.526 230.21L197.921 228.741L171.707 203.335L162.969 212.22L149.018 196.139L158.857 190.045L169.578 190.412L175.819 187.328L182.281 184.17L201.226 196.139L202.327 194.45L182.428 181.894L177.802 184.17L198.656 150.026C202.768 160.747 206.806 170.88 206.806 171.027L208.715 170.292C208.642 170.145 204.089 158.47 199.61 146.942C193.222 130.347 191.68 125.501 191.313 124.106L199.757 119.113L209.083 149.732L210.992 149.145L201.519 118.011L219.877 106.777ZM198.509 117.057L177.508 129.466L168.77 118.158L179.931 114.413L183.823 104.647C184.925 105.381 185.585 105.822 185.732 105.969C186.467 106.409 193.442 112.577 198.509 117.057ZM182.208 103.546L178.463 112.871L165.466 117.203L175.746 130.641L173.103 132.183L162.749 138.351L162.529 138.498L159.078 143.491L151.001 146.575L149.238 147.676L136.094 108.465C141.675 103.105 147.256 98.3322 152.029 95.4685C155.113 93.6328 157.536 91.2831 159.518 88.6396C165.025 92.1642 176.333 99.6539 182.208 103.546ZM103.933 144.739C106.943 141.655 109.22 139.232 110.101 137.91C113.038 133.505 123.538 120.728 134.553 109.861L147.549 148.557L117.003 167.282L103.933 144.739ZM33.1476 174.111L18.2416 165.96L19.4165 163.023L33.9553 169.558L33.1476 174.111ZM34.5427 166.474L34.3959 167.429L20.2242 161.04L21.4725 157.809L34.8365 160.233L34.5427 166.474ZM23.3816 152.963C28.081 153.33 33.1476 153.991 35.1302 154.725L34.9833 158.177L22.2802 155.9L23.3816 152.963ZM29.623 151.568C27.4202 151.274 25.2173 151.054 23.969 150.981L26.1719 138.645L35.8645 140.627L35.277 152.743C34.0287 152.302 32.2665 151.935 29.623 151.568ZM39.903 101.122L67.5856 93.9265C68.0262 94.8811 68.5402 95.7622 68.9808 96.7168L68.4668 100.976L52.4593 115.588C47.0256 114.78 41.1513 113.826 39.2422 113.385L39.903 101.122ZM40.7842 78.5799C40.7107 78.5065 36.9659 73.8071 33.0742 69.2545C30.7979 66.5376 28.9622 64.4082 27.6405 62.8662C26.9062 61.985 26.3187 61.3242 25.8047 60.8836L36.305 54.0548C46.5116 63.9676 57.6728 75.8631 63.4002 86.2165C64.2079 87.6851 65.0156 89.2271 65.8233 90.6956L40.1233 97.3776L41.0779 78.8736L40.7842 78.5799ZM136.241 56.4045C133.892 56.1108 128.531 55.4499 127.136 55.2296C126.989 55.0828 126.842 54.789 126.622 54.4219L137.49 45.4636L136.241 56.4045ZM126.549 57.2122C127.503 57.359 134.699 58.2402 136.021 58.387L134.699 69.1076L130.367 72.5588L126.549 68.8139L107.164 78.1393L103.345 72.4119L105.842 71.6042L125.154 55.6702C125.814 57.0653 126.255 57.1388 126.549 57.2122ZM89.3205 89.0068L97.1039 98.6994L94.5339 100.682L85.7225 91.3565L89.3205 89.0068ZM98.7193 97.4511L91.1562 87.9788L106.356 80.7093L111.055 87.6851L98.7193 97.4511ZM89.0268 86.7305L74.1208 96.7168C73.313 95.1013 72.5053 93.5594 71.6976 91.9439L96.2962 74.6148L101.142 73.0728L105.181 79.0205L89.0268 86.7305ZM84.1071 92.5313L92.9919 102.004L80.9496 111.476C80.6559 111.035 80.509 110.595 80.3622 110.374C78.7468 106.556 76.9845 102.591 75.0753 98.5525L84.1071 92.5313ZM94.3871 103.472L94.7542 103.839L94.8276 103.913L116.195 120.141C110.101 126.969 105.254 133.064 103.419 135.854C102.611 137.103 100.408 139.452 97.3976 142.536C92.4779 132.403 85.3553 119.333 81.9776 113.238L94.3871 103.472ZM117.517 118.672L96.2228 102.444L96.0025 102.224L120.307 83.0591L132.203 103.619C127.21 108.318 122.07 113.605 117.517 118.672ZM112.671 86.4368L108.192 79.8282L126.035 71.237L128.678 73.807L112.671 86.4368ZM104.006 68.4468L101.142 69.3279L95.6353 61.1773C104.3 56.331 113.479 51.2645 121.335 46.9322C122.143 49.2085 122.877 50.9707 123.465 52.3659L104.006 68.4468ZM99.1599 69.9888L94.7542 71.3839L70.0822 88.7865C69.201 87.1711 68.3933 85.5556 67.5122 84.0136C66.5576 82.3248 65.5296 80.6359 64.3548 78.8736C67.7325 76.8176 79.995 69.9153 93.8731 62.2053L99.1599 69.9888ZM92.1108 60.8836C72.0648 72.0448 65.4562 75.8631 63.1799 77.1848C60.9036 73.9539 58.3336 70.723 55.5433 67.4188L81.3168 43.5545L92.6982 60.443C92.5513 60.6633 92.3311 60.7368 92.1108 60.8836ZM70.6696 100.021C72.799 104.353 74.6348 108.612 76.3236 112.504L72.4319 119.994L69.0542 138.718L65.9702 140.554L70.6696 100.021ZM86.9708 132.256C89.5408 137.176 92.0373 141.949 93.9465 145.987C87.0442 152.743 77.6453 161.481 69.715 168.75C70.5228 167.355 71.257 166.033 72.0648 164.712C80.8762 149.439 86.3099 139.966 86.9708 136.442C87.1176 135.267 87.1176 133.872 86.9708 132.256ZM98.2788 144.519C101.656 141.141 104.08 138.498 105.034 137.029C108.265 132.109 120.821 117.057 133.084 105.602L133.818 107.804C122.363 118.966 111.423 132.256 108.339 136.809C107.237 138.498 103.786 142.022 99.2333 146.575C98.9396 145.914 98.6459 145.18 98.2788 144.519ZM155.92 40.8376C161.427 47.0056 165.539 61.6913 165.98 63.3068C165.907 65.1425 164.805 85.1885 151.001 93.5594C146.375 96.4231 140.867 100.976 135.434 106.189L134.699 104.06C139.032 100.094 143.291 96.6433 147.035 94.4405C162.382 85.1151 162.969 63.2333 162.969 62.3522V62.2053V62.0585C162.823 61.3976 158.564 45.4636 152.469 38.6348C150.927 36.8725 150.633 32.687 151.661 26.8862L154.672 27.3267C153.424 34.0087 153.864 38.5613 155.92 40.8376ZM56.2042 34.3025L75.2956 9.63045C85.9428 16.8265 95.1213 23.0679 95.2682 23.1413L105.842 30.3373L124.052 31.145L140.353 25.3442L149.532 26.6659C148.357 33.2745 148.798 37.7536 150.854 40.0299C156.361 46.1979 160.473 60.8836 160.913 62.499C160.84 64.3348 159.739 84.3808 145.934 92.7516C142.263 95.0279 138.004 98.3322 133.745 102.224L121.923 81.7373L136.535 70.2091L139.766 43.5545L140.353 43.0405L141.749 35.4039L138.224 34.743L137.049 41.1313L125.154 51.0442C124.419 49.2819 123.612 47.1525 122.877 45.1699L122.51 44.0685L121.482 44.6559C121.335 44.7293 108.265 51.9253 94.6073 59.5619L81.7573 40.5439L54.295 65.9502C48.4208 59.2682 41.7387 52.733 35.7176 46.9322L56.2042 34.3025ZM11.3393 61.8382L31.5322 49.4287C32.6336 50.4567 33.735 51.4848 34.8365 52.5862L9.43016 69.1076C8.84273 68.153 8.32873 67.2719 7.7413 66.3908L11.3393 61.8382ZM7.37416 70.4293L3.1153 72.2651L6.41959 68.0796C6.86016 68.8139 7.30073 69.4748 7.7413 70.2091L7.37416 70.4293ZM10.5316 70.8699L24.1159 62.0585C26.1719 64.041 33.9553 73.4399 38.9485 79.6079L37.9939 97.9651L28.4482 100.462C22.5005 90.5488 16.1122 80.0485 10.5316 70.8699ZM37.847 101.636L35.9379 138.571L25.2907 136.442L17.7276 138.057L23.0145 121.903L17.5073 107.511L18.829 106.63L37.847 101.636ZM15.8184 108.686L20.885 121.903L15.4513 138.498L5.97902 140.48L-4.44785 122.711L15.8184 108.686ZM7.00702 142.316L24.0425 138.718L21.8396 151.054L12.3673 152.743L7.00702 142.316ZM-9.22071 158.544L10.605 155.093L9.2833 163.757L2.16073 174.698L-7.53185 167.429L-9.22071 158.544ZM3.92302 175.653L11.1924 164.491L12.7344 154.725L21.1787 153.257L15.745 166.841L32.7805 176.167L30.9447 186.373L3.92302 175.653ZM36.5253 166.841L37.1862 154.579L37.7002 154.358C37.6267 154.138 37.4799 153.918 37.1862 153.697L37.9205 139.159V139.012L38.2142 132.77L52.0188 135.12L52.3859 133.137L38.361 130.788L39.1687 115.514C41.0779 115.955 44.8962 116.616 52.6796 117.717L53.1202 117.791L68.0996 104.133L63.6205 142.243L40.8576 176.754L38.5079 189.384L32.8539 187.107L36.5253 166.841ZM54.8825 182.114C53.267 183.583 50.4033 187.548 46.9522 192.761L40.417 190.118L42.8402 177.415L65.3828 143.197L70.8165 139.893L74.2676 120.581L77.2782 114.927C81.0965 124.546 83.0791 132.109 82.4182 135.561C81.9042 138.424 74.5613 151.127 68.0996 162.362C64.7219 168.236 61.5645 173.67 58.8476 178.59C57.0853 180.132 55.7636 181.38 54.8825 182.114ZM63.2533 179.985C64.2813 178.149 65.3093 176.313 66.3373 174.478C74.855 166.694 86.4568 156.047 94.8276 147.896C95.1948 148.631 95.4885 149.292 95.7822 149.953C85.0616 160.233 70.4493 173.523 63.2533 179.985ZM89.7611 223.748C89.6142 223.234 89.247 220.958 91.3031 210.531C92.6248 203.923 94.4605 195.845 96.3696 187.915L109.293 190.265L109.66 188.282L96.8836 186.006C100.849 168.971 103.272 158.397 102.611 155.019C102.391 153.697 101.51 151.421 100.261 148.631C100.775 148.117 101.289 147.603 101.803 147.162L116.489 172.569L126.182 174.331L135.727 185.345L93.5059 229.843C91.5968 226.832 90.2751 224.703 89.7611 223.748ZM128.311 195.772L147.182 214.937C144.979 217.433 142.63 220.077 140.207 222.794L119.94 204.583L128.311 195.772ZM110.101 256.571C104.74 248.053 98.5725 238.287 94.3871 231.532L118.472 206.125L138.811 224.336C128.311 236.231 116.783 249.228 110.101 256.571ZM160.767 214.276L175.893 225.29L188.009 236.598L172.662 251.798L141.822 224.189C144.906 220.664 147.549 217.727 149.459 215.598L150.119 214.863L129.853 194.303L136.976 186.74L160.767 214.129V214.276ZM139.032 184.611L146.668 177.782L156.801 188.576L147.476 194.377L139.032 184.611ZM168.991 188.209L158.931 187.842L146.889 174.992L137.783 183.069L127.65 171.394L118.325 169.705L117.958 169.117L151.955 148.264L160.473 145.033L163.997 139.893L173.984 134.019L187.274 164.418L174.277 185.639L168.991 188.209ZM197.628 147.383L188.523 162.289L175.673 132.991L189.33 124.913C189.404 125.207 189.477 125.501 189.624 125.795C190.065 127.043 190.652 128.879 191.533 131.228C193.002 135.12 195.058 140.554 197.628 147.383ZM135.874 155.166L134.185 156.267L126.182 143.491L127.87 142.389L135.874 155.166ZM154.158 83.7199L143.511 73.6602L147.696 62.4256L149.605 63.1599L145.861 73.1462L155.48 82.2513L154.158 83.7199Z" fill="#A19CF9"/>
</g>
<path d="M174.069 177.377H142.694C139.721 177.377 137.244 179.844 137.244 182.804C137.244 185.764 139.721 188.231 142.694 188.231H144.84C144.84 190.205 144.84 193.329 144.84 193.329L147.978 188.231H174.069C177.041 188.231 179.518 185.764 179.518 182.804C179.518 179.844 177.041 177.377 174.069 177.377Z" fill="url(#paint0_linear_25_5319)"/>
<path d="M138.421 191.049L129.462 189.434L114.997 164.321L110.077 168.14L80.0449 109.911L107.728 89.9383L111.84 88.3228L93.1886 61.6683L94.4369 60.7871L114.189 89.0571L108.462 91.26L81.9541 110.351L110.591 165.79L115.438 162.045L130.417 188.112L138.714 189.507L138.421 191.049Z" fill="black"/>
<rect x="133.775" y="175.664" width="59.3827" height="21.6358" rx="10.8179" fill="black"/>
<path d="M147.008 203.261V195.304L155.054 195.215L147.008 203.261Z" fill="black" stroke="black" stroke-width="0.840097"/>
<rect x="144.316" y="182.98" width="32.1394" height="6.57016" rx="3.28508" fill="#464646"/>
<path d="M93.9953 41.8418C90.3239 41.8418 87.3867 44.7789 87.3867 48.4504C87.3867 52.1218 94.0687 58.9507 93.9953 58.9507C93.9219 58.9507 100.604 52.1218 100.604 48.4504C100.604 44.8524 97.5933 41.8418 93.9953 41.8418ZM93.9953 51.1672C92.4533 51.1672 91.205 49.9189 91.205 48.3769C91.205 46.8349 92.4533 45.5867 93.9953 45.5867C95.5373 45.5867 96.7856 46.8349 96.7856 48.3769C96.859 49.9189 95.5373 51.1672 93.9953 51.1672Z" fill="black"/>
<path d="M96.9141 61.1836C96.9141 62.8401 95.5588 64.1954 93.9024 64.1954C92.2459 64.1954 90.8906 62.8401 90.8906 61.1836C90.8906 59.5272 92.2459 58.1719 93.9024 58.1719C95.5588 58.1719 96.9141 59.5272 96.9141 61.1836Z" fill="white"/>
<defs>
<linearGradient id="paint0_linear_25_5319" x1="137.247" y1="185.422" x2="179.551" y2="185.422" gradientUnits="userSpaceOnUse">
<stop stop-color="#A378FA"/>
<stop offset="1" stop-color="#525CFA"/>
</linearGradient>
</defs>
</svg>
