<svg width="65" height="59" viewBox="0 0 65 59" fill="none" xmlns="http://www.w3.org/2000/svg">
<path d="M64.5 18.2725C64.4572 17.4831 64.3717 16.6937 64.2862 15.9043C63.4524 9.22643 60.1601 3.48727 53.5326 1.33242C41.1543 -2.69993 25.7401 3.25259 14.4093 8.15967C5.30193 12.1067 -0.448978 17.9312 1.02616 28.4494C3.33508 45.0268 19.6685 52.1954 33.9924 56.0144C40.5129 57.7426 50.9885 60.4735 55.9057 54.1583C59.2194 49.8912 60.609 42.2959 62.0414 37.1755C63.7303 31.031 64.8848 24.6517 64.5 18.2725Z" fill="black"/>
<path d="M23.3643 17.0889C24.9365 17.0889 26.3428 17.4209 27.583 18.085C28.8232 18.7393 29.79 19.667 30.4834 20.8682C31.1768 22.0596 31.5234 23.4365 31.5234 24.999C31.5234 26.5908 31.167 28.0312 30.4541 29.3203C29.7412 30.5996 28.7402 31.6055 27.4512 32.3379C26.1621 33.0703 24.6875 33.4365 23.0273 33.4365C21.4648 33.4365 20.0635 33.1094 18.8232 32.4551C17.5928 31.8008 16.626 30.873 15.9229 29.6719C15.2197 28.4609 14.8682 27.0645 14.8682 25.4824C14.8682 23.9004 15.2197 22.4746 15.9229 21.2051C16.6357 19.9258 17.6367 18.9199 18.9258 18.1875C20.2148 17.4551 21.6943 17.0889 23.3643 17.0889ZM23.0859 17.6162C22.3633 17.6162 21.7236 17.9287 21.167 18.5537C20.6104 19.1689 20.1758 20.0625 19.8633 21.2344C19.5508 22.4062 19.3945 23.793 19.3945 25.3945C19.3945 27.1133 19.5654 28.5342 19.9072 29.6572C20.2588 30.7803 20.7275 31.6006 21.3135 32.1182C21.8994 32.6357 22.5635 32.8945 23.3057 32.8945C24.0186 32.8945 24.6533 32.582 25.21 31.957C25.7666 31.332 26.2012 30.4287 26.5137 29.2471C26.8359 28.0654 26.9971 26.6787 26.9971 25.0869C26.9971 23.3779 26.8213 21.9668 26.4697 20.8535C26.1279 19.7305 25.6641 18.9102 25.0781 18.3926C24.4922 17.875 23.8281 17.6162 23.0859 17.6162ZM47.4463 27.4893C47.4463 29.6182 47.4853 31.1514 47.5635 32.0889C47.2607 32.0205 46.2598 31.9717 44.5605 31.9424L44.5605 37.2451L41.0742 37.2451L41.0742 31.9277L32.8857 31.9277V31.2978L44.0771 17.0889L44.5605 17.0889L44.5605 28.8369H44.7949C45.3418 28.8369 45.7471 28.7978 46.0107 28.7197C46.2842 28.6318 46.4697 28.5 46.5674 28.3242C46.6748 28.1484 46.7578 27.8701 46.8164 27.4893H47.4463ZM41.0742 21.8643L35.6543 28.8369L41.0742 28.8369L41.0742 21.8643Z" fill="white"/>
</svg>
