<svg width="89" height="41" viewBox="0 0 89 41" fill="none" xmlns="http://www.w3.org/2000/svg">
<path d="M36.8293 30.7961C36.6702 23.0651 39.6279 15.5477 44.6424 10.0202C40.0065 4.72241 33.2553 1.45291 25.8629 1.50574C12.8156 1.57985 2.80317 12.3653 1.95635 25.2935C1.90819 26.0284 0.650021 25.9588 0.680811 25.2156C1.20898 11.5688 12.1182 0.135124 25.7237 0.0190892C33.5683 -0.051763 40.7268 3.39171 45.6702 8.9437C49.4905 5.13881 54.3255 2.42901 59.7999 1.4778C74.7491 -1.13261 90.1312 10.9305 88.0618 27.041C87.997 27.533 87.3209 27.3689 87.3398 26.9082C87.8566 14.8467 79.0594 4.13715 67.1883 2.71481C59.3231 1.78294 51.9562 4.78389 46.6483 10.096C49.774 14.0397 51.8455 18.9084 52.3708 24.2955C52.8839 29.5698 52.0474 37.6774 46.5006 40.0458C40.588 42.5912 36.9288 35.8401 36.8293 30.7961ZM50.6616 22.8673C49.9514 18.4699 48.1743 14.4896 45.6126 11.19C43.1869 13.9022 41.2781 17.1291 40.0338 20.6854C39.0863 23.4017 38.5099 26.232 38.3664 29.1098C38.1774 32.9265 39.2905 39.4175 44.4802 39.0236C51.1611 38.5122 51.4229 27.6415 50.6616 22.8673Z" fill="#D8D8D8"/>
</svg>
