<svg width="65" height="59" viewBox="0 0 65 59" fill="none" xmlns="http://www.w3.org/2000/svg">
<path d="M64.1254 18.7776C64.0829 17.993 63.9979 17.2084 63.9129 16.4238C63.0842 9.78635 59.8118 4.08197 53.2245 1.94018C40.9212 -2.06773 25.6004 3.84871 14.3383 8.72606C5.28612 12.6491 -0.429935 18.4383 1.03627 28.8928C3.33119 45.3698 19.5657 52.495 33.8027 56.2908C40.2837 58.0085 50.6959 60.7228 55.5832 54.4459C58.8768 50.2047 60.258 42.6554 61.6817 37.566C63.3604 31.4587 64.5079 25.1182 64.1254 18.7776Z" fill="black"/>
<path d="M26.3135 20.1104C27.8857 20.1104 29.292 20.4424 30.5322 21.1064C31.7725 21.7607 32.7393 22.6885 33.4326 23.8896C34.126 25.0811 34.4727 26.458 34.4727 28.0205C34.4727 29.6123 34.1162 31.0527 33.4033 32.3418C32.6904 33.6211 31.6895 34.627 30.4004 35.3594C29.1113 36.0918 27.6367 36.458 25.9766 36.458C24.4141 36.458 23.0127 36.1309 21.7725 35.4766C20.542 34.8223 19.5752 33.8945 18.8721 32.6934C18.1689 31.4824 17.8174 30.0859 17.8174 28.5039C17.8174 26.9219 18.1689 25.4961 18.8721 24.2266C19.585 22.9473 20.5859 21.9414 21.875 21.209C23.1641 20.4766 24.6436 20.1104 26.3135 20.1104ZM26.0352 20.6377C25.3125 20.6377 24.6729 20.9502 24.1162 21.5752C23.5596 22.1904 23.125 23.084 22.8125 24.2559C22.5 25.4277 22.3437 26.8145 22.3437 28.416C22.3437 30.1348 22.5146 31.5557 22.8564 32.6787C23.208 33.8018 23.6768 34.6221 24.2627 35.1396C24.8486 35.6572 25.5127 35.916 26.2549 35.916C26.9678 35.916 27.6025 35.6035 28.1592 34.9785C28.7158 34.3535 29.1504 33.4502 29.4629 32.2686C29.7852 31.0869 29.9463 29.7002 29.9463 28.1084C29.9463 26.3994 29.7705 24.9883 29.4189 23.875C29.0771 22.752 28.6133 21.9316 28.0273 21.4141C27.4414 20.8965 26.7773 20.6377 26.0352 20.6377ZM37.0654 23.8604C38.5303 21.3604 40.8691 20.1104 44.082 20.1104C45.1074 20.1104 45.9961 20.2617 46.748 20.5645C47.5 20.8574 48.0762 21.292 48.4766 21.8682C48.8867 22.4346 49.0918 23.1182 49.0918 23.9189C49.0918 25.0811 48.667 26.1064 47.8174 26.9951C46.9678 27.8838 45.7568 28.8799 44.1846 29.9834C42.6123 31.0869 41.5674 31.9121 41.0498 32.459L47.5391 32.459C48.0859 32.459 48.4912 32.4199 48.7549 32.3418C49.0186 32.2539 49.2041 32.1221 49.3115 31.9463C49.4189 31.7607 49.4971 31.4824 49.5459 31.1113H50.1758C50.1758 33.4746 50.2148 35.1641 50.293 36.1797C49.8437 36.082 48.3545 36.0332 45.8252 36.0332L37.0947 36.0332V35.4619C37.3779 35.1689 38.2373 34.3682 39.6729 33.0596C41.1084 31.751 42.251 30.4228 43.1006 29.0752C43.96 27.7178 44.3896 26.3262 44.3896 24.9004C44.3896 22.8594 43.457 21.8389 41.5918 21.8389C40.752 21.8389 40.0049 22.0342 39.3506 22.4248C38.7061 22.8057 38.1152 23.3818 37.5781 24.1533L37.0654 23.8604Z" fill="white"/>
</svg>
