<svg width="500" height="500" viewBox="0 0 500 500" fill="none" xmlns="http://www.w3.org/2000/svg">
<path d="M500 382.4H0V382.65H500V382.4Z" fill="#EBEBEB"/>
<path d="M449.9 391.92H359V392.17H449.9V391.92Z" fill="#EBEBEB"/>
<path d="M331.22 389.21H306.33V389.46H331.22V389.21Z" fill="#EBEBEB"/>
<path d="M388.11 401.21H349.52V401.46H388.11V401.21Z" fill="#EBEBEB"/>
<path d="M75.1 399.53H52.46V399.78H75.1V399.53Z" fill="#EBEBEB"/>
<path d="M110.89 399.53H84V399.78H110.89V399.53Z" fill="#EBEBEB"/>
<path d="M225.15 395.31H178.31V395.56H225.15V395.31Z" fill="#EBEBEB"/>
<path d="M237 337.8H43.91C42.3973 337.797 40.9475 337.195 39.8788 336.124C38.8102 335.054 38.21 333.603 38.21 332.09V60.66C38.2231 59.156 38.8292 57.718 39.8964 56.6582C40.9637 55.5985 42.4059 55.0026 43.91 55H237C238.514 55 239.967 55.6016 241.038 56.6724C242.108 57.7433 242.71 59.1956 242.71 60.71V332.09C242.71 333.604 242.108 335.057 241.038 336.128C239.967 337.198 238.514 337.8 237 337.8ZM43.91 55.2C42.4636 55.2026 41.0774 55.7791 40.0556 56.8027C39.0338 57.8264 38.46 59.2136 38.46 60.66V332.09C38.46 333.536 39.0338 334.924 40.0556 335.947C41.0774 336.971 42.4636 337.547 43.91 337.55H237C238.447 337.547 239.834 336.971 240.858 335.948C241.881 334.924 242.457 333.537 242.46 332.09V60.66C242.457 59.2127 241.881 57.8255 240.858 56.8021C239.834 55.7787 238.447 55.2026 237 55.2H43.91Z" fill="#EBEBEB"/>
<path d="M453.31 337.8H260.21C258.696 337.797 257.246 337.195 256.175 336.125C255.105 335.054 254.503 333.604 254.5 332.09V60.66C254.516 59.1551 255.124 57.7171 256.193 56.6576C257.262 55.5981 258.705 55.0025 260.21 55H453.31C454.812 55.0052 456.252 55.6022 457.317 56.6617C458.382 57.7212 458.987 59.1578 459 60.66V332.09C459 333.601 458.401 335.05 457.335 336.121C456.268 337.191 454.821 337.795 453.31 337.8ZM260.21 55.2C258.763 55.2026 257.375 55.7787 256.352 56.8021C255.329 57.8255 254.753 59.2127 254.75 60.66V332.09C254.753 333.537 255.329 334.924 256.352 335.948C257.375 336.971 258.763 337.547 260.21 337.55H453.31C454.757 337.547 456.145 336.971 457.168 335.948C458.191 334.924 458.767 333.537 458.77 332.09V60.66C458.767 59.2127 458.191 57.8255 457.168 56.8021C456.145 55.7787 454.757 55.2026 453.31 55.2H260.21Z" fill="#EBEBEB"/>
<path d="M52.45 382.39H172.01L172.01 117.98H52.45L52.45 382.39Z" fill="#F0F0F0"/>
<path d="M52.46 382.39H166.35L166.35 117.98H52.46L52.46 382.39Z" fill="#F5F5F5"/>
<path d="M160.35 376.4L160.35 123.99H58.46L58.46 376.4H160.35Z" fill="#F0F0F0"/>
<path d="M91.3799 243H70.6099C69.9026 242.997 69.225 242.715 68.7249 242.215C68.2247 241.715 67.9426 241.037 67.9399 240.33C67.9426 239.623 68.2247 238.945 68.7249 238.445C69.225 237.945 69.9026 237.663 70.6099 237.66H91.3799C92.0873 237.663 92.7649 237.945 93.265 238.445C93.7652 238.945 94.0473 239.623 94.0499 240.33C94.0473 241.037 93.7652 241.715 93.265 242.215C92.7649 242.715 92.0873 242.997 91.3799 243Z" fill="white"/>
<path d="M60.02 376.4L60.02 123.99H58.46L58.46 376.4H60.02Z" fill="#F0F0F0"/>
<path d="M228.03 377.38H245.83V300.18H228.03V377.38Z" fill="#F0F0F0"/>
<path d="M154.63 382.28H242.41V377.39H154.63V382.28Z" fill="#F0F0F0"/>
<path d="M228.03 300.19H151.21V377.39H228.03V300.19Z" fill="#F5F5F5"/>
<path d="M221.02 309.69H158.2V335.01H221.02V309.69Z" fill="#F0F0F0"/>
<path d="M221.02 342.56H158.2V367.88H221.02V342.56Z" fill="#F0F0F0"/>
<path d="M182.56 311.82H196.67C197.128 311.817 197.566 311.634 197.89 311.31C198.214 310.986 198.397 310.548 198.4 310.09C198.4 309.63 198.218 309.189 197.894 308.863C197.57 308.537 197.13 308.353 196.67 308.35H182.56C182.1 308.353 181.66 308.537 181.336 308.863C181.012 309.189 180.83 309.63 180.83 310.09C180.833 310.548 181.016 310.986 181.34 311.31C181.663 311.634 182.102 311.817 182.56 311.82Z" fill="#F5F5F5"/>
<path d="M182.56 344.7H196.67C197.123 344.698 197.557 344.519 197.88 344.201C198.203 343.884 198.39 343.453 198.4 343C198.397 342.542 198.214 342.104 197.89 341.78C197.566 341.456 197.128 341.273 196.67 341.27H182.56C182.102 341.273 181.663 341.456 181.34 341.78C181.016 342.104 180.833 342.542 180.83 343C180.84 343.453 181.027 343.884 181.35 344.201C181.673 344.519 182.107 344.698 182.56 344.7Z" fill="#F5F5F5"/>
<path d="M195.47 298.67C195.121 298.667 194.787 298.528 194.54 298.281C194.293 298.034 194.153 297.699 194.15 297.35V257.24C194.15 256.89 194.289 256.554 194.537 256.307C194.784 256.059 195.12 255.92 195.47 255.92C195.819 255.923 196.154 256.063 196.401 256.31C196.647 256.557 196.787 256.891 196.79 257.24V297.35C196.787 297.699 196.647 298.034 196.401 298.281C196.154 298.528 195.819 298.667 195.47 298.67Z" fill="#F5F5F5"/>
<path d="M207.82 297.11H183.12V300.22H207.82V297.11Z" fill="#F0F0F0"/>
<path d="M202.31 274.67C202.137 274.67 201.97 274.602 201.847 274.48C201.723 274.359 201.653 274.193 201.65 274.02V254C201.653 253.826 201.723 253.659 201.846 253.536C201.969 253.413 202.136 253.343 202.31 253.34C202.484 253.343 202.651 253.413 202.774 253.536C202.897 253.659 202.967 253.826 202.97 254V274C202.971 274.087 202.955 274.174 202.923 274.256C202.89 274.337 202.842 274.411 202.78 274.473C202.719 274.535 202.646 274.585 202.565 274.619C202.484 274.653 202.398 274.67 202.31 274.67Z" fill="#F0F0F0"/>
<path d="M176.26 260.9C176.26 260.9 176.75 242 195.47 242C214.19 242 214.67 260.88 214.67 260.88L176.26 260.9Z" fill="#F0F0F0"/>
<path d="M338.31 287.6C338.84 287.6 339.38 287.6 339.92 287.65C345.451 288.05 350.652 290.434 354.564 294.365C358.476 298.295 360.836 303.507 361.21 309.04C361.368 311.554 361.118 314.076 360.47 316.51C357.963 326.272 356.753 336.322 356.87 346.4V375.74C356.871 376.248 356.772 376.751 356.578 377.221C356.384 377.691 356.099 378.117 355.739 378.476C355.379 378.835 354.952 379.119 354.482 379.312C354.012 379.505 353.508 379.603 353 379.6H259.87V287.6H338.31Z" fill="#F0F0F0"/>
<path d="M236.92 310.55C236.93 307.288 237.635 304.065 238.989 301.097C240.344 298.13 242.315 295.485 244.772 293.339C247.23 291.193 250.116 289.597 253.24 288.655C256.363 287.714 259.651 287.449 262.885 287.88C266.119 288.31 269.224 289.425 271.992 291.15C274.761 292.875 277.13 295.171 278.941 297.885C280.752 300.598 281.963 303.666 282.494 306.885C283.025 310.104 282.863 313.399 282.02 316.55C279.521 326.313 278.314 336.363 278.43 346.44V375.78C278.43 376.286 278.33 376.788 278.136 377.256C277.942 377.723 277.657 378.148 277.299 378.506C276.94 378.864 276.515 379.147 276.046 379.34C275.578 379.533 275.076 379.631 274.57 379.63H245.16C244.654 379.63 244.154 379.53 243.687 379.337C243.22 379.144 242.795 378.86 242.438 378.502C242.08 378.145 241.797 377.72 241.603 377.253C241.41 376.786 241.31 376.286 241.31 375.78V344.68C241.395 335.229 240.197 325.809 237.75 316.68C237.199 314.683 236.919 312.621 236.92 310.55Z" fill="#F5F5F5"/>
<path d="M291.49 379.6H375.1V323.74H291.49V379.6Z" fill="#F0F0F0"/>
<path d="M444.2 336.38H332.29V250.71C332.29 246.106 334.119 241.69 337.375 238.435C340.63 235.179 345.046 233.35 349.65 233.35H426.84C431.444 233.35 435.86 235.179 439.115 238.435C442.371 241.69 444.2 246.106 444.2 250.71V336.38Z" fill="#E0E0E0"/>
<path d="M422.33 336.38H310.42V249.87C310.42 245.486 312.162 241.282 315.262 238.182C318.362 235.082 322.566 233.34 326.95 233.34H405.76C410.144 233.34 414.349 235.082 417.449 238.182C420.549 241.282 422.29 245.486 422.29 249.87V336.38H422.33Z" fill="#F5F5F5"/>
<path d="M369.64 341.39H292.57C291.244 341.39 289.972 340.863 289.034 339.926C288.097 338.988 287.57 337.716 287.57 336.39V323.72C287.57 322.394 288.097 321.122 289.034 320.184C289.972 319.247 291.244 318.72 292.57 318.72H369.64C370.04 318.72 370.425 318.879 370.708 319.162C370.991 319.445 371.15 319.83 371.15 320.23V339.89C371.147 340.289 370.987 340.67 370.704 340.951C370.421 341.232 370.039 341.39 369.64 341.39Z" fill="#E0E0E0"/>
<path d="M452.45 287.6C452.98 287.6 453.51 287.6 454.06 287.65C459.589 288.052 464.788 290.438 468.698 294.368C472.608 298.298 474.967 303.509 475.34 309.04C475.508 311.554 475.258 314.078 474.6 316.51C472.092 326.275 470.882 336.328 471 346.41V375.75C471 376.256 470.9 376.758 470.706 377.226C470.512 377.693 470.227 378.118 469.869 378.476C469.51 378.833 469.085 379.117 468.616 379.31C468.148 379.503 467.646 379.601 467.14 379.6H374V287.6H452.45Z" fill="#F0F0F0"/>
<path d="M351.06 310.55C351.02 304.569 353.317 298.809 357.462 294.497C361.606 290.186 367.271 287.663 373.249 287.467C379.227 287.272 385.045 289.419 389.463 293.45C393.881 297.482 396.549 303.079 396.9 309.05C397.058 311.564 396.808 314.086 396.16 316.52C393.653 326.282 392.443 336.332 392.56 346.41V375.75C392.56 376.771 392.154 377.75 391.432 378.472C390.71 379.194 389.731 379.6 388.71 379.6H359.29C358.784 379.6 358.284 379.5 357.817 379.307C357.35 379.113 356.925 378.83 356.568 378.472C356.21 378.115 355.927 377.69 355.733 377.223C355.54 376.756 355.44 376.256 355.44 375.75V344.68C355.523 335.229 354.329 325.811 351.89 316.68C351.339 314.683 351.059 312.621 351.06 310.55Z" fill="#F5F5F5"/>
<path d="M261.5 382.4H450.81C451.177 382.4 451.541 382.327 451.88 382.187C452.219 382.046 452.527 381.839 452.786 381.579C453.046 381.319 453.251 381.01 453.39 380.671C453.53 380.331 453.601 379.967 453.6 379.6H258.71C258.709 379.967 258.78 380.331 258.919 380.671C259.059 381.01 259.264 381.319 259.524 381.579C259.783 381.839 260.091 382.046 260.43 382.187C260.769 382.327 261.133 382.4 261.5 382.4Z" fill="#E0E0E0"/>
<path d="M373.62 167.87H434.51V101.46L373.62 101.46V167.87Z" fill="#E0E0E0"/>
<path d="M369.99 167.87H432.46V101.46L369.99 101.46V167.87Z" fill="#F5F5F5"/>
<path d="M427.22 162.64V106.69H375.21V162.64H427.22Z" fill="white"/>
<path d="M401.22 120.52L415.44 145.16H387L401.22 120.52Z" fill="#F5F5F5"/>
<path d="M288.2 206.64H349.09V140.23H288.2V206.64Z" fill="#E0E0E0"/>
<path d="M284.57 206.64H347.04V140.23H284.57V206.64Z" fill="#F5F5F5"/>
<path d="M341.8 201.41V145.46H289.79V201.41H341.8Z" fill="white"/>
<path d="M309.44 183.41L303.27 172.72C302.628 171.604 302.291 170.339 302.292 169.052C302.294 167.765 302.634 166.5 303.278 165.386C303.922 164.272 304.848 163.346 305.963 162.703C307.078 162.059 308.343 161.72 309.63 161.72H322C323.287 161.722 324.551 162.061 325.665 162.705C326.78 163.348 327.706 164.273 328.351 165.387C328.996 166.5 329.337 167.764 329.34 169.051C329.344 170.338 329.009 171.603 328.37 172.72L322.2 183.41C321.557 184.534 320.628 185.469 319.508 186.118C318.387 186.768 317.115 187.111 315.82 187.111C314.525 187.111 313.253 186.768 312.132 186.118C311.012 185.469 310.083 184.534 309.44 183.41Z" fill="#F5F5F5"/>
<path d="M250 427.56C357.082 427.56 443.89 422.492 443.89 416.24C443.89 409.988 357.082 404.92 250 404.92C142.917 404.92 56.11 409.988 56.11 416.24C56.11 422.492 142.917 427.56 250 427.56Z" fill="#F5F5F5"/>
<path d="M316.5 99.3H85.98L101.15 413.24H331.67L316.5 99.3Z" fill="#084BB4"/>
<path opacity="0.2" d="M316.5 99.3H85.98L101.15 413.24H331.67L316.5 99.3Z" fill="black"/>
<path d="M318.63 99.3H88.11L103.29 413.24H333.81L318.63 99.3Z" fill="#084BB4"/>
<path opacity="0.2" d="M306.46 109.86H98.65L113.17 399.05L293.87 398.81L323.9 372.19L306.46 109.86Z" fill="black"/>
<path d="M308.05 109.85C310.266 196.456 317.26 282.874 329 368.71C312.533 380.043 296.15 391.377 279.85 402.71H124.43C109.76 305.72 101.15 207.911 98.65 109.85H308.05Z" fill="white"/>
<path d="M329 368.71C312.533 380.043 296.15 391.377 279.85 402.71C283.41 387.71 287.12 372.71 290.98 357.71L329 368.71Z" fill="#EBEBEB"/>
<path d="M155 136.31C155.393 146.897 155.853 157.49 156.38 168.09H124.61C124.077 157.49 123.617 146.897 123.23 136.31H155ZM158.24 132.96H119.76C120.207 145.78 120.763 158.607 121.43 171.44H159.92C159.253 158.613 158.697 145.787 158.25 132.96H158.24Z" fill="#084BB4"/>
<path d="M284.82 148.24H176C175.9 145.85 175.81 143.45 175.72 141.06H284.53C284.62 143.45 284.72 145.85 284.82 148.24Z" fill="#E0E0E0"/>
<path d="M261.83 163.34H176.67C176.56 160.94 176.44 158.55 176.34 156.16H261.49C261.603 158.553 261.717 160.947 261.83 163.34Z" fill="#E0E0E0"/>
<path d="M158.12 198.55C158.787 209.15 159.53 219.75 160.35 230.35H128.57C127.75 219.75 127.007 209.15 126.34 198.55H158.12ZM161.26 195.2H122.78C123.567 208.033 124.463 220.867 125.47 233.7H164C163 220.873 162.1 208.04 161.3 195.2H161.26Z" fill="#084BB4"/>
<path d="M219.4 210.49H179.4C179.24 208.09 179.07 205.7 178.92 203.3H218.92C219.07 205.7 219.23 208.09 219.4 210.49Z" fill="#E0E0E0"/>
<path d="M257.27 210.49H227.86C227.7 208.09 227.53 205.7 227.38 203.3H256.79C256.94 205.7 257.1 208.09 257.27 210.49Z" fill="#E0E0E0"/>
<path d="M275.73 225.6H180.5C180.32 223.2 180.15 220.81 179.97 218.41H275.2C275.38 220.81 275.55 223.2 275.73 225.6Z" fill="#E0E0E0"/>
<path d="M162.89 260.82C163.843 271.42 164.87 282.02 165.97 292.62H134.19C133.09 282.02 132.063 271.42 131.11 260.82H162.89ZM165.95 257.47H127.46C128.593 270.31 129.833 283.147 131.18 295.98H169.67C168.337 283.14 167.097 270.303 165.95 257.47Z" fill="#084BB4"/>
<path d="M294.1 280.69H185.27L185.99 287.87H294.82L294.1 280.69Z" fill="#E0E0E0"/>
<path d="M269 265.58H183.84C184.06 267.97 184.28 270.37 184.51 272.76H269.66C269.44 270.37 269.21 268 269 265.58Z" fill="#E0E0E0"/>
<path d="M169.32 323.09C170.56 333.69 171.87 344.287 173.25 354.88H141.47C140.09 344.293 138.78 333.697 137.54 323.09H169.32ZM172.32 319.74H133.8C135.267 332.58 136.85 345.41 138.55 358.23H177C175.313 345.41 173.73 332.58 172.25 319.74H172.32Z" fill="#084BB4"/>
<path d="M300.09 335H191.26C190.97 332.6 190.68 330.21 190.4 327.81H299.22C299.51 330.24 299.79 332.63 300.09 335Z" fill="#E0E0E0"/>
<path d="M242.69 350.13H193.15C192.84 347.74 192.54 345.34 192.24 342.95H241.78C242.08 345.34 242.38 347.74 242.69 350.13Z" fill="#E0E0E0"/>
<path d="M272.27 350.13H250.88C250.57 347.74 250.27 345.34 249.97 342.95H271.36C271.66 345.34 272 347.74 272.27 350.13Z" fill="#E0E0E0"/>
<path d="M141 163.55L139.59 161.31C136.51 156.41 130.23 152.04 128.06 150.76L129.68 147.89C133.937 150.475 137.741 153.742 140.94 157.56C145.78 150.97 152.94 144.16 162.74 136.84L164.81 139.54C154.35 147.37 147.03 154.54 142.41 161.44L141 163.55Z" fill="#084BB4"/>
<path d="M144.8 225.81L143.33 223.57C140.13 218.67 133.73 214.29 131.53 213.01L133.06 210.14C137.399 212.726 141.292 215.995 144.59 219.82C149.25 213.22 156.22 206.41 165.83 199.08C166.54 199.98 167.26 200.88 167.97 201.79C157.72 209.63 150.59 216.79 146.16 223.7C145.7 224.4 145.25 225.11 144.8 225.81Z" fill="#084BB4"/>
<path d="M150.32 288.24L148.79 286C145.45 281.1 138.93 276.72 136.7 275.45C137.18 274.45 137.7 273.53 138.16 272.58C142.566 275.17 146.541 278.433 149.94 282.25C154.43 275.65 161.22 268.85 170.62 261.51L172.84 264.22C162.84 272.06 155.84 279.22 151.61 286.13L150.32 288.24Z" fill="#084BB4"/>
<path d="M251.13 385.46C245.23 385.46 241.83 383.28 238.83 381.36C235.83 379.44 233.25 377.78 228.27 377.78C223.29 377.78 221.07 379.52 218.72 381.36C216.37 383.2 213.49 385.46 207.59 385.46C201.69 385.46 198.29 383.28 195.3 381.36C192.31 379.44 189.73 377.78 184.74 377.78C179.75 377.78 177.54 379.52 175.19 381.36C172.84 383.2 169.96 385.46 164.07 385.46C158.18 385.46 154.77 383.28 151.77 381.36C148.77 379.44 146.2 377.78 141.21 377.78C141.08 376.78 140.94 375.86 140.81 374.9C146.71 374.9 150.1 377.08 153.1 379C156.1 380.92 158.67 382.58 163.65 382.58C168.63 382.58 170.85 380.84 173.2 379C175.55 377.16 178.44 374.9 184.34 374.9C190.24 374.9 193.62 377.08 196.62 379C199.62 380.92 202.2 382.58 207.18 382.58C212.16 382.58 214.38 380.84 216.73 379C219.08 377.16 221.97 374.9 227.87 374.9C233.77 374.9 237.16 377.08 240.16 379C243.16 380.92 245.73 382.58 250.72 382.58C250.85 383.54 251 384.5 251.13 385.46Z" fill="#EBEBEB"/>
<path d="M259.59 107.07C256.21 98.07 248.4 92.16 240 92.16H222.88C221.606 92.1489 220.362 91.7639 219.305 91.0529C218.247 90.3418 217.421 89.336 216.93 88.16C215.72 85.2858 213.696 82.8279 211.107 81.0886C208.519 79.3492 205.478 78.4043 202.36 78.37C199.343 78.3394 196.396 79.2724 193.946 81.0333C191.496 82.7941 189.672 85.2908 188.74 88.16C188.36 89.3339 187.615 90.3555 186.612 91.0752C185.61 91.795 184.404 92.1751 183.17 92.16H166.06C157.65 92.16 150.41 98.1 147.91 107.07L146.91 110.64H260.91L259.59 107.07Z" fill="#263238"/>
<path d="M260.2 114.16H148C147.054 114.149 146.147 113.78 145.462 113.126C144.777 112.473 144.366 111.585 144.31 110.64C144.285 110.186 144.354 109.732 144.512 109.306C144.669 108.879 144.912 108.49 145.226 108.161C145.54 107.832 145.918 107.571 146.336 107.394C146.755 107.216 147.205 107.127 147.66 107.13H259.86C260.805 107.141 261.71 107.509 262.395 108.16C263.079 108.811 263.492 109.697 263.55 110.64C263.576 111.095 263.508 111.55 263.351 111.977C263.195 112.405 262.952 112.796 262.638 113.126C262.324 113.456 261.945 113.718 261.526 113.896C261.107 114.073 260.655 114.163 260.2 114.16Z" fill="#084BB4"/>
<path opacity="0.2" d="M260.2 114.16H148C147.054 114.149 146.147 113.78 145.462 113.126C144.777 112.473 144.366 111.585 144.31 110.64C144.285 110.186 144.354 109.732 144.512 109.306C144.669 108.879 144.912 108.49 145.226 108.161C145.54 107.832 145.918 107.571 146.336 107.394C146.755 107.216 147.205 107.127 147.66 107.13H259.86C260.805 107.141 261.71 107.509 262.395 108.16C263.079 108.811 263.492 109.697 263.55 110.64C263.576 111.095 263.508 111.55 263.351 111.977C263.195 112.405 262.952 112.796 262.638 113.126C262.324 113.456 261.945 113.718 261.526 113.896C261.107 114.073 260.655 114.163 260.2 114.16Z" fill="black"/>
<path d="M360.92 410.23H353.59L352.86 393.26H360.19L360.92 410.23Z" fill="#FFC3BD"/>
<path d="M404.91 410.23H397.58L393.9 393.26H401.22L404.91 410.23Z" fill="#FFC3BD"/>
<path d="M397.06 409.38H405.29C405.435 409.379 405.576 409.428 405.689 409.519C405.802 409.611 405.88 409.738 405.91 409.88L407.36 416.4C407.393 416.558 407.39 416.722 407.351 416.878C407.313 417.035 407.239 417.182 407.136 417.306C407.034 417.431 406.904 417.531 406.758 417.599C406.611 417.667 406.452 417.702 406.29 417.7C403.42 417.65 402.02 417.48 398.4 417.48C396.17 417.48 391.58 417.71 388.51 417.71C385.44 417.71 385.03 414.71 386.29 414.4C391.94 413.16 394.06 411.46 395.87 409.83C396.199 409.54 396.622 409.38 397.06 409.38Z" fill="#263238"/>
<path d="M353.64 409.38H361.64C361.785 409.379 361.926 409.428 362.039 409.519C362.152 409.611 362.23 409.738 362.26 409.88L363.71 416.4C363.746 416.553 363.747 416.712 363.714 416.865C363.68 417.018 363.614 417.162 363.518 417.287C363.422 417.411 363.3 417.513 363.16 417.584C363.021 417.656 362.867 417.695 362.71 417.7C359.82 417.65 355.65 417.48 352.02 417.48C347.78 417.48 344.12 417.71 339.14 417.71C336.14 417.71 335.3 414.71 336.56 414.4C342.29 413.14 346.97 413.01 351.92 409.95C352.432 409.61 353.026 409.413 353.64 409.38Z" fill="#263238"/>
<path d="M368 142.92C367 148.28 366.42 154.92 370.17 158.5C370.17 158.5 368.02 163.94 358.06 163.94C348.96 163.94 353.52 158.5 353.52 158.5C359.52 157.07 359.18 149.68 358.14 145.5L368 142.92Z" fill="#FFC3BD"/>
<path d="M350.66 159.25C350.86 157.92 353.2 156.37 355.86 155.79C358.52 155.21 368.74 153.92 371.86 155.21C374.98 156.5 371.32 160.32 371.32 160.32L350.66 159.25Z" fill="#084BB4"/>
<path opacity="0.4" d="M350.66 159.25C350.86 157.92 353.2 156.37 355.86 155.79C358.52 155.21 368.74 153.92 371.86 155.21C374.98 156.5 371.32 160.32 371.32 160.32L350.66 159.25Z" fill="white"/>
<path opacity="0.2" d="M352.86 393.27L353.24 402.01H360.57L360.19 393.27H352.86Z" fill="black"/>
<path opacity="0.2" d="M401.23 393.27H393.9L395.8 402.01H403.13L401.23 393.27Z" fill="black"/>
<path d="M385.35 165.1L376.52 171C376.52 171 389.2 193.55 388.14 197.16C386.69 202.08 384.67 212.83 381.92 218.29C382.28 219.47 384.11 222.16 385.13 222.62C392.13 217.3 399.2 200.62 398.94 195.95C398.33 185.36 385.35 165.1 385.35 165.1Z" fill="#FFC3BD"/>
<path d="M381.92 218.31L374.92 217.77L378.59 225.48C378.59 225.48 384.7 225.75 385.72 221.08L381.92 218.31Z" fill="#B55B52"/>
<path d="M416.52 255.91L415.93 257.02L411.97 264.51L271.39 190.18L275.93 181.58L416.52 255.91Z" fill="#084BB4"/>
<path d="M425.61 238.74L422.71 244.22L421.07 247.32L280.48 172.99L285.02 164.39L425.61 238.74Z" fill="#084BB4"/>
<path d="M280.526 172.965L275.977 181.554L416.509 255.993L421.059 247.404L280.526 172.965Z" fill="#084BB4"/>
<path opacity="0.2" d="M280.526 172.965L275.977 181.554L416.509 255.993L421.059 247.404L280.526 172.965Z" fill="black"/>
<path d="M265.33 165.53L261.24 173.27L271.39 190.18L285.02 164.4L265.33 165.53Z" fill="#084BB4"/>
<path opacity="0.8" d="M265.33 165.53L261.24 173.27L271.39 190.18L285.02 164.4L265.33 165.53Z" fill="white"/>
<path d="M256.89 166.02L261.24 173.27L265.33 165.53L256.89 166.02Z" fill="#084BB4"/>
<path d="M369.29 221.28L372.95 228.1L378.62 225.48L374.95 217.77L369.29 221.28Z" fill="#B55B52"/>
<path d="M383.25 160.16C390.18 161.16 398.12 185.16 398.12 185.16L383.56 193.38C383.56 193.38 377.15 182 374 173.5C370.68 164.61 375.82 159.08 383.25 160.16Z" fill="#263238"/>
<path opacity="0.2" d="M379.22 168.39C376.07 165.51 378 177.84 379.5 185.73C380.27 187.27 381 188.67 381.62 189.84C385.13 183.64 383.56 172.36 379.22 168.39Z" fill="black"/>
<path d="M342.21 160.54C342.21 160.54 333.56 182.66 341.77 223.86H381C381.27 217.86 377.49 188.5 383.29 160.16C378.957 159.323 374.575 158.769 370.17 158.5C364.625 158.18 359.065 158.18 353.52 158.5C349.702 158.882 345.921 159.564 342.21 160.54Z" fill="#263238"/>
<path d="M348.24 170.82L338.36 166.91C338.36 166.91 326.98 190.14 323.36 191.31C318.49 192.91 308.49 197.31 302.43 198.17C301.67 199.17 300.49 202.17 300.68 203.27C309.03 206 326.8 202.38 330.48 199.52C338.92 193 348.24 170.82 348.24 170.82Z" fill="#FFC3BD"/>
<path opacity="0.2" d="M349.35 168.18C347.72 164.42 344.6 162.85 341.35 163.4C340.09 168.01 337.96 178.14 338.35 193.4L340.68 194.52C340.68 194.52 352.14 174.61 349.35 168.18Z" fill="black"/>
<path d="M350.91 165.55C353.37 172.11 340.91 191.41 340.91 191.41L326.25 183.41C328.452 177.407 331.292 171.658 334.72 166.26C339.87 158.57 348.2 158.36 350.91 165.55Z" fill="#263238"/>
<path d="M302.79 198.15L294.07 200L298.49 208.07C300.927 206.857 303.142 205.241 305.04 203.29L302.79 198.15Z" fill="#FFC3BD"/>
<path d="M289.95 201.83L293.43 206.65L298.49 208.11L294.07 200.04L289.95 201.83Z" fill="#FFC3BD"/>
<path d="M351.38 135.21C351.38 135.8 351.01 136.21 350.62 136.21C350.23 136.21 349.95 135.69 349.99 135.1C350.03 134.51 350.36 134.1 350.75 134.1C351.14 134.1 351.42 134.62 351.38 135.21Z" fill="#263238"/>
<path d="M351.9 135.26C351.093 137.022 350.046 138.664 348.79 140.14C349.176 140.452 349.626 140.676 350.108 140.795C350.59 140.915 351.093 140.926 351.58 140.83L351.9 135.26Z" fill="#ED847E"/>
<path d="M350.63 133.17C350.577 133.159 350.526 133.138 350.48 133.11C350.441 133.086 350.408 133.054 350.382 133.016C350.355 132.979 350.337 132.936 350.328 132.891C350.318 132.846 350.318 132.8 350.327 132.755C350.336 132.71 350.354 132.668 350.38 132.63C350.67 132.162 351.067 131.769 351.538 131.484C352.009 131.199 352.541 131.029 353.09 130.99C353.181 130.995 353.268 131.033 353.332 131.098C353.397 131.162 353.435 131.249 353.44 131.34C353.44 131.433 353.403 131.522 353.338 131.587C353.272 131.653 353.183 131.69 353.09 131.69C352.664 131.73 352.252 131.869 351.889 132.096C351.526 132.324 351.222 132.633 351 133C350.964 133.063 350.909 133.114 350.842 133.144C350.776 133.175 350.702 133.184 350.63 133.17Z" fill="#263238"/>
<path d="M371.26 134.7C370.4 141.92 370.26 146.18 366.39 149.7C360.56 154.98 351.81 151.15 350.49 143.81C349.31 137.21 350.92 126.52 358.18 124.04C359.778 123.487 361.49 123.352 363.154 123.647C364.819 123.942 366.38 124.657 367.691 125.725C369.001 126.793 370.017 128.178 370.641 129.749C371.266 131.319 371.479 133.024 371.26 134.7Z" fill="#FFC3BD"/>
<path d="M356.71 136.11C354.18 136.61 350.14 130.99 353.44 126.22C351.77 125.39 346.32 128.67 344.27 125.61C342.22 122.55 347.91 120.92 346.82 118.33C350.68 119.12 344.32 123.94 347.99 123.47C351.66 123 355.89 116.22 359.99 119C367.24 123.87 377.12 115.75 373.09 125.92C378.03 124.92 381.41 130.76 376.7 134.81C367.31 142.86 373.09 143.92 367.14 144.33C364.16 144.55 357.23 141 356.71 136.11Z" fill="#263238"/>
<path d="M360.46 138C360.114 138.722 359.627 139.367 359.027 139.898C358.428 140.428 357.728 140.834 356.97 141.09C354.97 141.78 353.82 139.99 354.29 138.02C354.71 136.24 356.29 133.74 358.36 133.92C358.814 133.964 359.25 134.122 359.628 134.378C360.006 134.635 360.313 134.982 360.522 135.388C360.731 135.794 360.835 136.245 360.824 136.702C360.813 137.158 360.688 137.604 360.46 138Z" fill="#FFC3BD"/>
<path d="M355.67 223.86C355.67 223.86 363.99 279.86 368.55 300.86C373.55 323.86 392.38 400.35 392.38 400.35H405.8C405.8 400.35 393.39 325.69 390.53 302.94C387.44 278.26 380.96 223.89 380.96 223.89L355.67 223.86Z" fill="#084BB4"/>
<path opacity="0.2" d="M355.67 223.86C355.67 223.86 363.99 279.86 368.55 300.86C373.55 323.86 392.38 400.35 392.38 400.35H405.8C405.8 400.35 393.39 325.69 390.53 302.94C387.44 278.26 380.96 223.89 380.96 223.89L355.67 223.86Z" fill="white"/>
<path opacity="0.2" d="M365.55 243.44C364.93 242.56 364.37 242.26 363.85 242.44H363.74C363.622 242.492 363.511 242.559 363.41 242.64C363.304 242.726 363.206 242.824 363.12 242.93L362.96 243.13L362.75 243.46C362.576 243.751 362.426 244.055 362.3 244.37C362.22 244.56 362.14 244.76 362.07 244.96C362 245.16 361.89 245.47 361.81 245.75C361.73 246.03 361.58 246.51 361.47 246.92C361.47 247.03 361.42 247.13 361.39 247.24C361.36 247.35 361.28 247.7 361.23 247.93C361.18 248.16 361.14 248.33 361.1 248.53C361.01 248.92 360.93 249.33 360.85 249.75C360.77 250.17 360.68 250.66 360.6 251.13C360.6 251.29 360.55 251.45 360.52 251.62C360.42 252.22 360.33 252.83 360.24 253.46C362.46 267.4 365.1 283.38 367.24 294.53C367.34 294.17 367.45 293.79 367.54 293.38C367.977 291.52 368.311 289.637 368.54 287.74C370.43 273.37 369.56 249.17 365.55 243.44Z" fill="black"/>
<path d="M341.77 223.86C341.77 223.86 340.77 278.64 341.56 300.99C342.39 324.23 350.51 400.32 350.51 400.32H362.92C362.92 400.32 363.37 325.58 363.92 302.76C364.52 277.88 367.52 223.86 367.52 223.86H341.77Z" fill="#084BB4"/>
<path opacity="0.2" d="M341.77 223.86C341.77 223.86 340.77 278.64 341.56 300.99C342.39 324.23 350.51 400.32 350.51 400.32H362.92C362.92 400.32 363.37 325.58 363.92 302.76C364.52 277.88 367.52 223.86 367.52 223.86H341.77Z" fill="white"/>
<path d="M363.74 396.52C363.79 396.52 363.74 400.57 363.74 400.57H349.43L348.83 396.02L363.74 396.52Z" fill="#263238"/>
<path d="M405.8 396.82C405.86 396.82 406.47 400.57 406.47 400.57H391.72L390.42 396.27L405.8 396.82Z" fill="#263238"/>
<path d="M394.64 410.66C394.142 410.701 393.644 410.57 393.23 410.29C393.096 410.181 392.992 410.039 392.929 409.878C392.865 409.716 392.845 409.541 392.87 409.37C392.871 409.27 392.899 409.172 392.949 409.086C393 409 393.073 408.929 393.16 408.88C393.97 408.47 396.34 409.88 396.61 410.08C396.638 410.1 396.659 410.128 396.671 410.16C396.684 410.192 396.687 410.226 396.68 410.26C396.675 410.294 396.66 410.325 396.637 410.35C396.613 410.375 396.583 410.392 396.55 410.4C395.925 410.556 395.284 410.643 394.64 410.66ZM393.55 409.15C393.474 409.133 393.396 409.133 393.32 409.15C393.285 409.17 393.256 409.199 393.237 409.235C393.218 409.27 393.208 409.31 393.21 409.35C393.195 409.467 393.209 409.585 393.251 409.695C393.292 409.805 393.361 409.903 393.45 409.98C394.266 410.359 395.198 410.409 396.05 410.12C395.287 409.639 394.438 409.309 393.55 409.15Z" fill="#084BB4"/>
<path d="M396.51 410.41C396.484 410.418 396.456 410.418 396.43 410.41C395.67 410 394.21 408.41 394.36 407.58C394.385 407.453 394.454 407.339 394.554 407.257C394.655 407.175 394.78 407.13 394.91 407.13C395.042 407.11 395.177 407.12 395.304 407.158C395.432 407.196 395.55 407.261 395.65 407.35C396.5 408.04 396.65 410.16 396.65 410.25C396.649 410.281 396.642 410.311 396.628 410.339C396.614 410.367 396.594 410.391 396.57 410.41C396.55 410.414 396.53 410.414 396.51 410.41ZM395.03 407.41H395C394.77 407.41 394.75 407.54 394.74 407.59C394.65 408.07 395.58 409.28 396.34 409.85C396.288 409.016 395.984 408.218 395.47 407.56C395.406 407.505 395.331 407.465 395.25 407.442C395.168 407.42 395.083 407.416 395 407.43L395.03 407.41Z" fill="#084BB4"/>
<path d="M350.59 410.66C349.963 410.718 349.334 410.559 348.81 410.21C348.695 410.105 348.606 409.974 348.55 409.828C348.495 409.682 348.474 409.525 348.49 409.37C348.49 409.275 348.516 409.182 348.566 409.101C348.615 409.02 348.686 408.954 348.77 408.91C349.66 408.41 352.61 409.91 352.94 410.08C352.973 410.095 353 410.121 353.017 410.154C353.033 410.187 353.038 410.224 353.03 410.26C353.026 410.296 353.01 410.329 352.984 410.354C352.959 410.38 352.926 410.396 352.89 410.4C352.134 410.561 351.363 410.648 350.59 410.66ZM349.26 409.15C349.15 409.146 349.041 409.166 348.94 409.21C348.907 409.229 348.879 409.257 348.86 409.29C348.84 409.324 348.83 409.361 348.83 409.4C348.816 409.502 348.828 409.606 348.864 409.702C348.901 409.798 348.961 409.883 349.04 409.95C349.49 410.35 350.7 410.42 352.32 410.15C351.363 409.647 350.329 409.309 349.26 409.15Z" fill="#084BB4"/>
<path d="M352.86 410.41H352.79C351.9 410.01 350.15 408.41 350.29 407.6C350.29 407.41 350.46 407.16 350.93 407.12C351.108 407.094 351.289 407.106 351.462 407.156C351.634 407.206 351.794 407.293 351.93 407.41C352.86 408.18 353.05 410.15 353.06 410.24C353.064 410.269 353.06 410.299 353.048 410.326C353.035 410.352 353.015 410.375 352.99 410.39C352.951 410.413 352.904 410.42 352.86 410.41ZM351.07 407.41H351C350.69 407.41 350.67 407.56 350.66 407.61C350.58 408.1 351.77 409.35 352.66 409.89C352.574 409.05 352.224 408.259 351.66 407.63C351.49 407.502 351.283 407.432 351.07 407.43V407.41Z" fill="#084BB4"/>
</svg>
